<?xml version="1.0" encoding="utf-8"?>
<!-- Generator: Adobe Illustrator 19.0.0, SVG Export Plug-In . SVG Version: 6.00 Build 0)  -->
<svg version="1.1" id="Calque_1" xmlns="http://www.w3.org/2000/svg" xmlns:xlink="http://www.w3.org/1999/xlink" x="0px" y="0px"
	 viewBox="0 0 353.3 303" style="enable-background:new 0 0 353.3 303;" xml:space="preserve">
<style type="text/css">
	.st0{fill:#1C2B4D;}
	.st1{fill:#8CCBBD;}
	.st2{fill:#18264F;}
	.st3{fill:#F4F4F0;}
	.st4{fill:#BBDFDC;}
	.st5{fill:#275F93;}
	.st6{fill:#71AAC4;}
	.st7{clip-path:url(#SVGID_2_);fill:#0E7A73;}
	.st8{fill:#92CEC3;}
	.st9{clip-path:url(#SVGID_4_);fill:#67BFAC;}
	.st10{clip-path:url(#SVGID_6_);fill:#67BFAC;}
	.st11{clip-path:url(#SVGID_8_);fill:#0E7A73;}
	.st12{clip-path:url(#SVGID_10_);fill:#67BFAC;}
	.st13{clip-path:url(#SVGID_12_);fill:#67BFAC;}
	.st14{clip-path:url(#SVGID_14_);fill:#0E7A73;}
	.st15{clip-path:url(#SVGID_16_);fill:#67BFAC;}
	.st16{clip-path:url(#SVGID_18_);fill:#67BFAC;}
</style>
<path class="st0" d="M46.2,194.1c0.4-3.8-0.9-6.2-2.1-7.5c-1.5-1.7-3.7-2.8-6.4-3.1c-2.7-0.3-5.1,0.3-6.9,1.6
	c-1.4,1-3.2,3.1-3.6,6.9l-0.9,8.6l28.4,3.1l0.6-5.3l-9.3-1L46.2,194.1z M33.6,189.1c1.2-0.8,2.7-0.8,3.5-0.7c1,0.1,2.4,0.5,3.3,1.5
	c0.8,0.9,1.1,2.1,0.9,3.8l-0.4,3.3l-9.4-1l0.4-3.4C32,191,32.6,189.8,33.6,189.1"/>
<path class="st0" d="M57,159.4c-1.2-1-2.5-1.6-4-2l-18.2-4.5l-1.3,5.2l18.2,4.5c1.4,0.4,2.4,1.1,2.9,2.2c0.5,1.2,0.6,2.6,0.2,4.1
	c-0.4,1.5-1.1,2.7-2.1,3.5c-1,0.8-2.2,1-3.6,0.7l-18.2-4.5l-1.3,5.2l18.2,4.5c0.8,0.2,1.7,0.3,2.5,0.3c0.7,0,1.4-0.1,2-0.2
	c1.3-0.3,2.6-0.9,3.7-1.8c1.9-1.5,3.3-3.8,4-6.4c0.7-2.6,0.5-5.3-0.5-7.5C58.9,161.4,58.1,160.3,57,159.4"/>
<polygon class="st0" points="47.4,120.8 45.3,125.7 60.9,132.4 36.5,140.8 64.7,153 66.8,148.1 51.3,141.4 75.6,132.9 "/>
<path class="st0" d="M76,127.6l3.2-4.9l-3.6-5.2l5-7.6l6.2,1.3l3.2-4.8l-32.6-6.3L76,127.6z M72.6,113.2l-4-5.8l6.9,1.4L72.6,113.2z
	"/>
<rect x="70.6" y="88.4" transform="matrix(-0.7482 -0.6635 0.6635 -0.7482 87.9146 215.5547)" class="st0" width="28.6" height="5.3"/>
<path class="st0" d="M107.5,75.4c-1.3-0.8-2.7-1.2-4.4-1.2c-0.8,0-1.9-0.1-2.9-0.2l-6.4-0.3c-0.7,0-1.7-0.2-2-0.9
	c-0.3-0.5-0.1-1.4,0.4-2c0.7-0.9,1.9-1.3,3.3-1l0.5,0.1l1-5.3l-0.5-0.1c-1.7-0.3-3.4-0.2-4.9,0.4c-1.4,0.5-2.6,1.5-3.5,2.6
	c-0.8,1-1.4,2.3-1.6,3.6c-0.2,1.4,0,2.8,0.5,4c0.5,1.1,1.4,2.1,2.5,2.8c1.1,0.7,2.5,1.1,4,1.2l4.6,0.2c0.2,0,3,0.2,4.7,0.3
	c1.4,0.1,2.2,0.5,2.6,1.2c0.4,0.9,0.2,2.2-0.6,3.1c-0.4,0.6-1.1,1.1-1.8,1.3c-0.9,0.3-2,0.4-3.2,0.1l-0.5-0.1l-1,5.3l0.5,0.1
	c0.8,0.2,1.6,0.2,2.4,0.3c1.3,0,2.5-0.2,3.7-0.6c1.1-0.4,2.1-1,3-1.8c0.5-0.4,0.9-0.8,1.2-1.3c2-2.5,2.5-5.9,1.2-8.7
	C109.7,77.2,108.7,76.2,107.5,75.4"/>
<polygon class="st0" points="121,72.6 117.3,66.1 126,61 123.5,56.8 114.8,61.8 111.6,56.3 122.2,50.2 119.8,46 104.6,54.7 
	118.9,79.5 134.1,70.8 131.6,66.5 "/>
<path class="st0" d="M167.4,37.4c-1.4-1.2-3.1-2.1-5-2.5c-1.9-0.5-4-0.6-6.3-0.3l-7,1l3.9,28.3l7-1c2.2-0.3,4.3-1,6-1.9
	c1.7-0.9,3.1-2.2,4.1-3.8c1.9-2.8,2.6-6.4,2.1-10.4C171.6,42.9,170,39.6,167.4,37.4 M165.7,54.2c-1.3,1.9-3.5,3.1-6.5,3.5l-1.7,0.2
	l-2.4-17.8l1.7-0.2c3.1-0.4,5.4,0.1,7.2,1.6c1.6,1.3,2.6,3.4,3,6.1C167.3,50.2,166.8,52.6,165.7,54.2"/>
<polygon class="st0" points="179.8,61.4 197.2,63.6 197.9,58.7 185.7,57.2 186.7,49.7 196.7,51 197.3,46.1 187.3,44.8 188.1,38.5 
	200.3,40.1 200.9,35.2 183.5,33 "/>
<path class="st0" d="M242.6,55.2c-0.4-1.7-1.6-4.2-5-6L230,45l-13.7,25.1l4.7,2.5l4.5-8.2l3,1.6c3.4,1.9,6.1,1.5,7.8,0.9
	c2.2-0.7,4-2.4,5.3-4.8C242.8,59.9,243.2,57.4,242.6,55.2 M237.2,59.9c-0.5,0.9-1.3,2.1-2.6,2.5c-1.1,0.4-2.4,0.2-3.8-0.6l-3-1.6
	l4.6-8.3l3,1.6c1.4,0.8,2.3,1.8,2.6,2.9C238.2,57.8,237.6,59.2,237.2,59.9"/>
<path class="st0" d="M258.7,88.3l12.4-14.1l-4-3.5l-12.4,14.1c-1,1.1-2.1,1.6-3.3,1.5c-1.3-0.1-2.6-0.7-3.7-1.7
	c-1.1-1-1.9-2.3-2.1-3.5c-0.2-1.2,0.1-2.4,1.1-3.5l12.4-14.1l-4-3.5l-12.4,14.1c-1.1,1.2-1.8,2.6-2.2,4c-0.4,1.3-0.4,2.7-0.1,4.1
	c0.5,2.4,1.8,4.7,3.9,6.4c2,1.8,4.5,2.8,6.9,3c0.1,0,0.3,0,0.4,0c1.2,0,2.4-0.2,3.6-0.7C256.4,90.3,257.7,89.4,258.7,88.3"/>
<polygon class="st0" points="293.2,102 290,97.7 276.4,107.7 281.4,82.5 256.7,100.7 259.9,105 273.5,94.9 268.5,120.2 "/>
<path class="st0" d="M272.8,123.2l2.5,5.3l6.3-0.5l4,8.2l-4.3,4.7l2.5,5.2l22.1-24.8L272.8,123.2z M294,127.2l-4.8,5.2l-2.3-4.7
	L294,127.2z"/>
<rect x="285.5" y="146.7" transform="matrix(0.9469 -0.3215 0.3215 0.9469 -32.1083 104.2948)" class="st0" width="28.6" height="5.3"/>
<path class="st0" d="M299,177.6c1.3,0,2.6-0.3,3.7-1c1.3-0.7,2.3-1.9,3.1-3.4c0.4-0.7,1-1.7,1.5-2.5l3.3-5.5c0.4-0.6,1-1.4,1.7-1.3
	c0.6,0,1.3,0.6,1.6,1.3c0.3,0.7,0.5,1.9-0.6,3.4L313,169l4.2,3.3l0.3-0.4c1.1-1.4,1.7-2.9,2-4.5c0.2-1.5-0.1-3-0.7-4.3
	c-0.5-1.2-1.4-2.3-2.4-3.1c-1.2-0.9-2.4-1.3-3.7-1.4c-1.3-0.1-2.5,0.2-3.7,0.9c-1.2,0.7-2.1,1.7-2.9,3l-2.3,4
	c-0.1,0.1-1.6,2.5-2.4,4.1c-0.7,1.2-1.4,1.7-2.3,1.7c-1-0.1-2-0.9-2.5-2c-0.3-0.7-0.4-1.5-0.3-2.2c0.1-1,0.6-2,1.4-2.9l0.3-0.4
	l-4.2-3.4l-0.3,0.4c-1.4,1.7-2.2,3.5-2.5,5.5c-0.2,1.1-0.1,2.3,0.2,3.5c0.1,0.6,0.3,1.2,0.6,1.7c1.3,2.9,4.1,5,7.1,5.1
	C298.8,177.6,298.9,177.6,299,177.6"/>
<polygon class="st0" points="322.4,182.1 294,185.2 295.9,202.6 300.8,202.1 299.5,189.9 307,189.1 308.1,199.1 312.9,198.6 
	311.8,188.6 318.2,187.9 319.5,200 324.3,199.5 "/>
<polygon class="st1" points="56.3,215.4 42.5,234.8 38.2,229.3 27.1,237.9 39.9,219.1 43.9,223.9 "/>
<path class="st0" d="M33.3,260.4c-0.3,0.9-1,1.6-2,1.8c-0.2,0-0.4,0.1-0.5,0.1c-0.4,0-0.7-0.1-1.1-0.2c-0.6-0.2-1.1-0.6-1.5-1.2
	l1.1-0.9c0.3,0.3,0.6,0.6,0.9,0.7c0.3,0.1,0.6,0.1,0.8,0.1c0.5-0.1,0.8-0.4,0.9-0.8c0.1-0.4-0.2-0.8-0.4-1.1c-0.4-0.4-1-1.1-1.1-1.1
	l-1.1-1.1c-0.3-0.3-0.6-0.7-0.7-1.1c-0.1-0.4-0.1-0.8,0-1.2c0.1-0.4,0.3-0.8,0.7-1c0.3-0.3,0.7-0.5,1.1-0.5c0.4-0.1,0.9-0.1,1.3,0.1
	c0.5,0.2,0.9,0.5,1.2,0.9l-1.1,0.9c-0.5-0.6-0.9-0.6-1.2-0.5c-0.3,0.1-0.6,0.3-0.6,0.5c0,0.2,0,0.5,0.3,0.8l1.5,1.5
	c0.2,0.2,0.5,0.5,0.7,0.7c0.4,0.4,0.6,0.8,0.8,1.2C33.4,259.5,33.4,260,33.3,260.4"/>
<polygon class="st0" points="36.1,256.7 39.4,256.7 39.4,258.1 36.1,258.1 36.1,260.9 40.1,260.9 40.1,262.3 36.1,262.3 34.7,262.3 
	34.7,253 36.1,253 40.1,253 40.1,254.3 36.1,254.3 "/>
<path class="st0" d="M48,262.3h-1.6l-2.2-3.1h-1v3.1h-1.4V253h1.2h1.5c1.2,0,1.9,0.5,2.2,0.9c0.5,0.5,0.7,1.3,0.7,2.2
	c0,0.9-0.3,1.6-0.7,2.1c-0.2,0.3-0.6,0.5-1,0.7L48,262.3z M44.4,257.8c0.6,0,1-0.2,1.3-0.5c0.3-0.4,0.4-0.9,0.4-1.3
	c0-0.4-0.1-0.9-0.4-1.3c-0.3-0.3-0.7-0.5-1.3-0.5h-1.2v3.5H44.4z"/>
<polygon class="st0" points="51.9,259.1 54.2,253 55.8,253 51.9,262.7 47.9,253 49.4,253 "/>
<rect x="57" y="253" class="st0" width="1.4" height="9.3"/>
<path class="st0" d="M66.8,261.5c-0.2,0.2-0.5,0.3-0.7,0.4c-0.6,0.2-1.1,0.4-1.7,0.4c-0.6,0-1.2-0.1-1.7-0.4c-0.5-0.2-1-0.6-1.4-1
	c-0.4-0.4-0.7-0.9-1-1.5c-0.2-0.6-0.4-1.2-0.4-1.8c0-0.6,0.1-1.2,0.4-1.8c0.2-0.6,0.6-1.1,1-1.5c0.4-0.4,0.9-0.8,1.4-1
	c0.5-0.2,1.1-0.4,1.7-0.4c0.6,0,1.2,0.1,1.7,0.4c0.1,0,0.1,0.1,0.2,0.1v1.7c-0.5-0.5-1.2-0.7-1.9-0.7c-0.8,0-1.6,0.3-2.2,0.9
	c-0.6,0.6-0.9,1.4-0.9,2.3c0,0.9,0.3,1.7,0.9,2.3c0.6,0.6,1.3,0.9,2.2,0.9c0.8,0,1.6-0.3,2.2-0.9c0.1-0.1,0.2-0.2,0.3-0.4V261.5z"/>
<polygon class="st0" points="69.8,256.7 73,256.7 73,258.1 69.8,258.1 69.8,260.9 73.7,260.9 73.7,262.3 69.8,262.3 68.4,262.3 
	68.4,253 69.8,253 73.7,253 73.7,254.3 69.8,254.3 "/>
<path class="st0" d="M83.8,260.3h-3.2l-0.8,2h-1.5l3.9-9.7l3.9,9.7h-1.5L83.8,260.3z M83.3,259l-1.1-2.8l-1.1,2.8H83.3z"/>
<polygon class="st0" points="88.7,256.3 88.7,262.3 87.3,262.3 87.3,252.5 92.9,258.9 92.9,253 94.3,253 94.3,262.7 "/>
<polygon class="st0" points="101.9,254.3 99.5,254.3 99.5,262.3 98.1,262.3 98.1,254.3 95.6,254.3 95.6,253 101.9,253 "/>
<rect x="103.2" y="253" class="st0" width="1.4" height="9.3"/>
<polygon class="st0" points="111.4,256.3 111.4,262.3 110.1,262.3 110.1,252.5 115.6,258.9 115.6,253 117.1,253 117.1,262.7 "/>
<path class="st0" d="M119.9,261.5c-0.3-0.3-0.6-0.6-0.8-1c-0.2-0.4-0.3-0.9-0.3-1.4V253h1.4v6.1c0,0.6,0.2,1,0.6,1.3
	c0.3,0.3,0.8,0.4,1.4,0.4c0.5,0,1-0.2,1.4-0.4c0.4-0.3,0.5-0.7,0.5-1.3V253h1.4v6.1c0,0.5-0.1,1-0.3,1.4c-0.2,0.4-0.5,0.7-0.8,1
	c-0.6,0.5-1.4,0.7-2.2,0.7C121.3,262.3,120.5,262,119.9,261.5"/>
<rect x="127.2" y="253" class="st0" width="1.4" height="9.3"/>
<path class="st0" d="M135.1,260.4c-0.3,0.9-1,1.6-2,1.8c-0.2,0-0.4,0.1-0.5,0.1c-0.4,0-0.7-0.1-1.1-0.2c-0.6-0.2-1.1-0.6-1.5-1.2
	l1.1-0.9c0.3,0.3,0.6,0.6,0.9,0.7c0.3,0.1,0.6,0.1,0.8,0.1c0.5-0.1,0.8-0.4,0.9-0.8c0.1-0.4-0.2-0.8-0.4-1.1c-0.4-0.4-1-1.1-1.1-1.1
	l-1.1-1.1c-0.3-0.3-0.6-0.7-0.7-1.1c-0.1-0.4-0.1-0.8,0-1.2c0.1-0.4,0.3-0.8,0.7-1c0.3-0.3,0.7-0.5,1.1-0.5c0.4-0.1,0.9-0.1,1.3,0.1
	c0.5,0.2,0.9,0.5,1.2,0.9l-1.1,0.9c-0.5-0.6-0.9-0.6-1.2-0.5c-0.3,0.1-0.6,0.3-0.6,0.5c0,0.2,0,0.5,0.3,0.8l1.5,1.5
	c0.2,0.2,0.5,0.5,0.7,0.7c0.4,0.4,0.6,0.8,0.8,1.2C135.2,259.5,135.3,260,135.1,260.4"/>
<rect x="136.6" y="253" class="st0" width="1.4" height="9.3"/>
<path class="st0" d="M145.3,259.5c0,0.5-0.1,0.9-0.3,1.3c-0.2,0.4-0.5,0.7-0.8,0.9c-0.6,0.4-1.4,0.6-2.4,0.6H141h-1.2V253h1.4h0.6
	c1,0,1.7,0.2,2.2,0.6c0.3,0.2,0.5,0.5,0.6,0.8c0.1,0.3,0.2,0.6,0.2,1c0,0.5-0.2,1.1-0.7,1.7c0.1,0.1,0.3,0.2,0.4,0.3
	c0.3,0.3,0.5,0.6,0.6,0.9C145.3,258.7,145.3,259.1,145.3,259.5 M141.2,254.3v2.8c0.3-0.1,0.6-0.2,0.9-0.3c0.4-0.2,0.8-0.4,1-0.7
	c0.3-0.3,0.4-0.5,0.4-0.8c0-0.5-0.2-0.6-0.3-0.7c-0.3-0.3-1-0.3-1.5-0.3H141.2z M144.1,259.5c0-0.5-0.2-0.9-0.5-1.2
	c-0.2-0.2-0.4-0.3-0.7-0.5c-0.1,0-0.2,0.1-0.4,0.2c-0.5,0.2-1,0.3-1.4,0.4v2.5h0.6c0.8,0,1.4-0.1,1.8-0.4
	C143.9,260.3,144.1,260,144.1,259.5"/>
<polygon class="st0" points="152,262.3 148.3,262.3 146.9,262.3 146.9,253 148.3,253 148.3,260.9 152,260.9 "/>
<polygon class="st0" points="154.4,256.7 157.7,256.7 157.7,258.1 154.4,258.1 154.4,260.9 158.4,260.9 158.4,262.3 154.4,262.3 
	153,262.3 153,253 154.4,253 158.4,253 158.4,254.3 154.4,254.3 "/>
<path class="st0" d="M164.7,260.4c-0.3,0.9-1,1.6-2,1.8c-0.2,0-0.4,0.1-0.5,0.1c-0.4,0-0.7-0.1-1.1-0.2c-0.6-0.2-1.1-0.6-1.5-1.2
	l1.1-0.9c0.3,0.3,0.6,0.6,0.9,0.7c0.3,0.1,0.6,0.1,0.8,0.1c0.5-0.1,0.8-0.4,0.9-0.8c0.1-0.4-0.2-0.8-0.4-1.1c-0.4-0.4-1-1.1-1.1-1.1
	l-1.1-1.1c-0.3-0.3-0.6-0.7-0.7-1.1c-0.1-0.4-0.1-0.8,0-1.2c0.1-0.4,0.3-0.8,0.7-1c0.3-0.3,0.7-0.5,1.1-0.5c0.4-0.1,0.9-0.1,1.3,0.1
	c0.5,0.2,0.9,0.5,1.2,0.9l-1.1,0.9c-0.5-0.6-0.9-0.6-1.2-0.5c-0.3,0.1-0.6,0.3-0.6,0.5c0,0.2,0,0.5,0.3,0.8l1.5,1.5
	c0.2,0.2,0.5,0.5,0.7,0.7c0.4,0.4,0.6,0.8,0.8,1.2C164.8,259.5,164.9,260,164.7,260.4"/>
<path class="st0" d="M175.5,259.5c0,0.5-0.1,0.9-0.3,1.3c-0.2,0.4-0.5,0.7-0.8,0.9c-0.6,0.4-1.4,0.6-2.4,0.6h-0.8H170V253h1.4h0.6
	c1,0,1.7,0.2,2.2,0.6c0.3,0.2,0.5,0.5,0.6,0.8c0.1,0.3,0.2,0.6,0.2,1c0,0.5-0.2,1.1-0.7,1.7c0.1,0.1,0.3,0.2,0.4,0.3
	c0.3,0.3,0.5,0.6,0.6,0.9C175.4,258.7,175.5,259.1,175.5,259.5 M171.4,254.3v2.8c0.3-0.1,0.6-0.2,0.9-0.3c0.4-0.2,0.8-0.4,1-0.7
	c0.3-0.3,0.4-0.5,0.4-0.8c0-0.5-0.2-0.6-0.3-0.7c-0.3-0.3-1-0.3-1.5-0.3H171.4z M174.2,259.5c0-0.5-0.2-0.9-0.5-1.2
	c-0.2-0.2-0.4-0.3-0.7-0.5c-0.1,0-0.2,0.1-0.4,0.2c-0.5,0.2-1,0.3-1.4,0.4v2.5h0.6c0.8,0,1.4-0.1,1.8-0.4
	C174.1,260.3,174.2,260,174.2,259.5"/>
<rect x="177" y="253" class="st0" width="1.4" height="9.3"/>
<path class="st0" d="M182.7,261.9c-0.5-0.2-1-0.6-1.4-1c-0.4-0.4-0.7-0.9-1-1.5c-0.2-0.6-0.3-1.2-0.3-1.8c0-0.6,0.1-1.2,0.3-1.8
	c0.2-0.6,0.6-1,1-1.5c0.4-0.4,0.9-0.8,1.4-1c0.5-0.2,1.1-0.4,1.7-0.4c0.6,0,1.2,0.1,1.7,0.4c0.5,0.2,1,0.6,1.4,1
	c0.4,0.4,0.7,0.9,0.9,1.5c0.2,0.6,0.3,1.2,0.3,1.8c0,0.6-0.1,1.2-0.3,1.8c-0.2,0.6-0.5,1.1-0.9,1.5c-0.4,0.4-0.9,0.8-1.4,1
	c-0.6,0.2-1.1,0.4-1.7,0.4C183.8,262.3,183.3,262.1,182.7,261.9 M182.3,255.4c-0.6,0.6-0.9,1.4-0.9,2.3c0,0.9,0.3,1.7,0.9,2.3
	c0.6,0.6,1.3,0.9,2.2,0.9c0.8,0,1.6-0.3,2.2-0.9c0.6-0.6,0.9-1.4,0.9-2.3c0-0.9-0.3-1.7-0.9-2.3c-0.6-0.6-1.3-0.9-2.2-0.9
	C183.6,254.4,182.9,254.8,182.3,255.4"/>
<polygon class="st0" points="195.6,262.3 191.9,262.3 190.5,262.3 190.5,253 191.9,253 191.9,260.9 195.6,260.9 "/>
<path class="st0" d="M198.5,261.9c-0.5-0.2-1-0.6-1.4-1c-0.4-0.4-0.7-0.9-1-1.5c-0.2-0.6-0.4-1.2-0.4-1.8c0-0.6,0.1-1.2,0.4-1.8
	c0.2-0.6,0.6-1,1-1.5c0.4-0.4,0.9-0.8,1.4-1c0.5-0.2,1.1-0.4,1.7-0.4c0.6,0,1.2,0.1,1.7,0.4c0.5,0.2,1,0.6,1.4,1
	c0.4,0.4,0.7,0.9,0.9,1.5c0.2,0.6,0.3,1.2,0.3,1.8c0,0.6-0.1,1.2-0.3,1.8c-0.2,0.6-0.5,1.1-0.9,1.5c-0.4,0.4-0.9,0.8-1.4,1
	c-0.6,0.2-1.1,0.4-1.7,0.4C199.6,262.3,199,262.1,198.5,261.9 M198.1,255.4c-0.6,0.6-0.9,1.4-0.9,2.3c0,0.9,0.3,1.7,0.9,2.3
	c0.6,0.6,1.3,0.9,2.2,0.9s1.6-0.3,2.2-0.9c0.6-0.6,0.9-1.4,0.9-2.3c0-0.9-0.3-1.7-0.9-2.3c-0.6-0.6-1.3-0.9-2.2-0.9
	S198.6,254.8,198.1,255.4"/>
<path class="st0" d="M213.1,258.8v2.5l-0.3,0.2c0,0,0,0,0,0c0,0,0,0,0,0c0,0,0,0,0,0c0,0,0,0,0,0c0,0,0,0,0,0c0,0,0,0,0,0
	c0,0,0,0,0,0c0,0,0,0-0.1,0c0,0,0,0,0,0c0,0,0,0-0.1,0c0,0,0,0,0,0h0c0,0,0,0-0.1,0c0,0-0.1,0-0.1,0l0,0c-0.5,0.2-1,0.4-1.6,0.4h0
	h-0.1h0h-0.1c-0.5,0-1-0.1-1.4-0.2h0c0,0-0.1,0-0.1-0.1c-0.1,0-0.1-0.1-0.2-0.1c-0.2-0.1-0.3-0.1-0.4-0.2c-0.4-0.2-0.7-0.5-1-0.8
	c-0.4-0.4-0.7-0.9-1-1.5c-0.2-0.4-0.3-0.9-0.3-1.3c0-0.1,0-0.3,0-0.5v-0.2c0-0.5,0.1-1.1,0.3-1.6c0.2-0.5,0.6-1.1,1-1.5
	c0.4-0.4,0.9-0.8,1.4-1c0.5-0.3,1.1-0.4,1.7-0.4h0.1h0h0.1h0c0,0,0.1,0,0.1,0c0.5,0,1,0.2,1.5,0.4c0,0,0,0,0,0c0,0,0,0,0.1,0h0v1.7
	c-0.2-0.2-0.4-0.3-0.6-0.4c-0.2-0.1-0.4-0.2-0.6-0.2c0,0,0,0,0,0h0c0,0,0,0,0,0c0,0,0,0,0,0c0,0-0.1,0-0.2,0h0c0,0,0,0,0,0h0
	c0,0,0,0,0,0h0h-0.1c0,0,0,0,0,0h0h0h0h-0.1c-0.6,0-1.1,0.1-1.6,0.5c0,0,0,0-0.1,0c-0.2,0.1-0.4,0.3-0.5,0.4c0,0.1-0.1,0.1-0.2,0.2
	c0,0,0,0,0,0c-0.1,0.1-0.1,0.1-0.2,0.2c0,0,0,0,0,0c0,0,0,0.1-0.1,0.1c0,0,0,0,0,0c-0.2,0.3-0.3,0.6-0.4,1c0,0,0,0,0,0
	c0,0.1,0,0.2-0.1,0.4v0.1c0,0.1,0,0.1,0,0.2c0,0,0,0.1,0,0.2c0,0.2,0,0.5,0.1,0.7c0.1,0.5,0.4,1,0.8,1.4c0.6,0.6,1.3,0.9,2.2,0.9
	h0.1c0,0,0,0,0,0h0h0h0h0.1c0,0,0,0,0,0h0h0c0.1,0,0.2,0,0.3-0.1c0,0,0,0,0,0c0,0,0,0,0,0h0c0,0,0,0,0,0c0,0,0,0,0,0c0,0,0,0,0,0
	c0.2-0.1,0.3-0.1,0.5-0.2h0v-1.7h-1.7v-1.3h3.1V258.8z"/>
<rect x="214.6" y="253" class="st0" width="1.4" height="9.3"/>
<path class="st0" d="M225.1,260.9c0,0-0.1,0.1-0.1,0.1l0.8,1.1l-1,0.8l-0.8-1.1c-0.1,0.1-0.2,0.1-0.3,0.1c-0.6,0.2-1.1,0.4-1.7,0.4
	c-0.6,0-1.2-0.1-1.7-0.4c-0.5-0.2-1-0.6-1.4-1c-0.4-0.4-0.7-0.9-1-1.5c-0.2-0.6-0.3-1.2-0.3-1.8c0-0.6,0.1-1.2,0.3-1.8
	c0.2-0.6,0.6-1.1,1-1.5c0.4-0.4,0.9-0.8,1.4-1c0.5-0.3,1.1-0.4,1.7-0.4c0.6,0,1.2,0.1,1.7,0.4c0.5,0.2,1,0.6,1.4,1
	c0.4,0.4,0.7,0.9,0.9,1.5c0.2,0.6,0.3,1.2,0.3,1.8c0,0.6-0.1,1.2-0.3,1.8C225.8,260,225.5,260.5,225.1,260.9 M223.1,260.6l-0.6-0.9
	l1-0.8l0.6,0.9c0.5-0.6,0.8-1.4,0.8-2.2c0-0.9-0.3-1.7-0.9-2.3c-0.6-0.6-1.3-0.9-2.2-0.9c-0.8,0-1.6,0.3-2.2,0.9
	c-0.6,0.6-0.9,1.4-0.9,2.3c0,0.9,0.3,1.7,0.9,2.3c0.6,0.6,1.3,0.9,2.2,0.9C222.4,260.8,222.7,260.7,223.1,260.6"/>
<path class="st0" d="M228.9,261.5c-0.4-0.3-0.6-0.6-0.8-1c-0.2-0.4-0.3-0.9-0.3-1.4V253h1.4v6.1c0,0.6,0.2,1,0.6,1.3
	c0.3,0.3,0.8,0.4,1.4,0.4c0.5,0,1-0.2,1.4-0.4c0.4-0.3,0.5-0.7,0.5-1.3V253h1.4v6.1c0,0.5-0.1,1-0.3,1.4c-0.2,0.4-0.5,0.7-0.8,1
	c-0.6,0.5-1.4,0.7-2.2,0.7C230.2,262.3,229.4,262,228.9,261.5"/>
<polygon class="st0" points="237.5,256.7 240.8,256.7 240.8,258.1 237.5,258.1 237.5,260.9 241.5,260.9 241.5,262.3 237.5,262.3 
	236.2,262.3 236.2,253 237.5,253 241.5,253 241.5,254.3 237.5,254.3 "/>
<path class="st0" d="M249.2,261.9c-0.5-0.2-1-0.6-1.4-1c-0.4-0.4-0.7-0.9-1-1.5c-0.2-0.6-0.4-1.2-0.4-1.8c0-0.6,0.1-1.2,0.4-1.8
	c0.2-0.6,0.6-1,1-1.5c0.4-0.4,0.9-0.8,1.4-1c0.5-0.2,1.1-0.4,1.7-0.4c0.6,0,1.2,0.1,1.7,0.4c0.5,0.2,1,0.6,1.4,1
	c0.4,0.4,0.7,0.9,0.9,1.5c0.2,0.6,0.3,1.2,0.3,1.8c0,0.6-0.1,1.2-0.3,1.8c-0.2,0.6-0.5,1.1-0.9,1.5c-0.4,0.4-0.9,0.8-1.4,1
	c-0.6,0.2-1.1,0.4-1.7,0.4C250.3,262.3,249.7,262.1,249.2,261.9 M248.8,255.4c-0.6,0.6-0.9,1.4-0.9,2.3c0,0.9,0.3,1.7,0.9,2.3
	c0.6,0.6,1.3,0.9,2.2,0.9c0.8,0,1.6-0.3,2.2-0.9c0.6-0.6,0.9-1.4,0.9-2.3c0-0.9-0.3-1.7-0.9-2.3c-0.6-0.6-1.3-0.9-2.2-0.9
	C250.1,254.4,249.3,254.8,248.8,255.4"/>
<path class="st0" d="M257.9,261.5c-0.4-0.3-0.6-0.6-0.8-1c-0.2-0.4-0.3-0.9-0.3-1.4V253h1.4v6.1c0,0.6,0.2,1,0.6,1.3
	c0.3,0.3,0.8,0.4,1.4,0.4c0.5,0,1-0.2,1.4-0.4c0.4-0.3,0.5-0.7,0.5-1.3V253h1.4v6.1c0,0.5-0.1,1-0.3,1.4c-0.2,0.4-0.5,0.7-0.8,1
	c-0.6,0.5-1.4,0.7-2.2,0.7S258.5,262,257.9,261.5"/>
<path class="st0" d="M275.3,261.5c-0.2,0.2-0.5,0.3-0.7,0.4c-0.6,0.2-1.1,0.4-1.7,0.4c-0.6,0-1.2-0.1-1.7-0.4c-0.5-0.2-1-0.6-1.4-1
	c-0.4-0.4-0.7-0.9-1-1.5c-0.2-0.6-0.3-1.2-0.3-1.8c0-0.6,0.1-1.2,0.3-1.8c0.2-0.6,0.6-1.1,1-1.5c0.4-0.4,0.9-0.8,1.4-1
	c0.5-0.2,1.1-0.4,1.7-0.4c0.6,0,1.2,0.1,1.7,0.4c0.1,0,0.1,0.1,0.2,0.1v1.7c-0.5-0.5-1.2-0.7-1.9-0.7c-0.8,0-1.6,0.3-2.2,0.9
	c-0.6,0.6-0.9,1.4-0.9,2.3c0,0.9,0.3,1.7,0.9,2.3c0.6,0.6,1.3,0.9,2.2,0.9c0.8,0,1.6-0.3,2.2-0.9c0.1-0.1,0.2-0.2,0.3-0.4V261.5z"/>
<polygon class="st0" points="283,262.3 281.6,262.3 281.6,258.3 278.1,258.3 278.1,262.3 276.7,262.3 276.7,253 278.1,253 
	278.1,256.9 281.6,256.9 281.6,253 283,253 "/>
<rect x="284.9" y="253" class="st0" width="1.4" height="9.3"/>
<polygon class="st0" points="295.1,262.3 295.1,257.3 292.3,261.7 289.5,257.3 289.5,262.3 288.1,262.3 288.1,252.5 292.3,259.1 
	296.5,252.5 296.5,262.3 "/>
<rect x="298.4" y="253" class="st0" width="1.4" height="9.3"/>
<path class="st0" d="M308.8,260.9c0,0-0.1,0.1-0.1,0.1l0.8,1.1l-1,0.8l-0.8-1.1c-0.1,0.1-0.2,0.1-0.3,0.1c-0.6,0.2-1.1,0.4-1.7,0.4
	c-0.6,0-1.2-0.1-1.7-0.4c-0.5-0.2-1-0.6-1.4-1c-0.4-0.4-0.7-0.9-1-1.5c-0.2-0.6-0.3-1.2-0.3-1.8c0-0.6,0.1-1.2,0.3-1.8
	c0.2-0.6,0.6-1.1,1-1.5c0.4-0.4,0.9-0.8,1.4-1c0.5-0.3,1.1-0.4,1.7-0.4c0.6,0,1.2,0.1,1.7,0.4c0.5,0.2,1,0.6,1.4,1
	c0.4,0.4,0.7,0.9,0.9,1.5c0.2,0.6,0.3,1.2,0.3,1.8c0,0.6-0.1,1.2-0.3,1.8C309.6,260,309.3,260.5,308.8,260.9 M306.9,260.6l-0.6-0.9
	l1-0.8l0.6,0.9c0.5-0.6,0.8-1.4,0.8-2.2c0-0.9-0.3-1.7-0.9-2.3c-0.6-0.6-1.3-0.9-2.2-0.9c-0.8,0-1.6,0.3-2.2,0.9
	c-0.6,0.6-0.9,1.4-0.9,2.3c0,0.9,0.3,1.7,0.9,2.3c0.6,0.6,1.3,0.9,2.2,0.9C306.1,260.8,306.5,260.7,306.9,260.6"/>
<path class="st0" d="M312.6,261.5c-0.4-0.3-0.6-0.6-0.8-1c-0.2-0.4-0.3-0.9-0.3-1.4V253h1.4v6.1c0,0.6,0.2,1,0.6,1.3
	c0.3,0.3,0.8,0.4,1.4,0.4c0.5,0,1-0.2,1.4-0.4c0.4-0.3,0.5-0.7,0.5-1.3V253h1.4v6.1c0,0.5-0.1,1-0.3,1.4c-0.2,0.4-0.5,0.7-0.8,1
	c-0.6,0.5-1.4,0.7-2.2,0.7C314,262.3,313.2,262,312.6,261.5"/>
<polygon class="st0" points="321.3,256.7 324.6,256.7 324.6,258.1 321.3,258.1 321.3,260.9 325.3,260.9 325.3,262.3 321.3,262.3 
	319.9,262.3 319.9,253 321.3,253 325.3,253 325.3,254.3 321.3,254.3 "/>
<path class="st2" d="M140.6,171.8l-1,0.7l-5.2,3.9c-0.3,0.2-0.6,0.3-1,0.3c-0.5,0-1-0.2-1.3-0.6c-0.5-0.7-0.4-1.8,0.3-2.3l5.2-3.9
	l1-0.7c0.7-0.6,1.8-0.4,2.3,0.3C141.5,170.3,141.3,171.3,140.6,171.8"/>
<path class="st0" d="M149.8,143.9l-0.8,2.6l-5.5,18.1l-0.6,2.1l-1.3,4.4c-0.3,0.9-1.1,1.5-2,1.5h0c-0.2,0-0.4,0-0.6-0.1
	c-1.1-0.3-1.7-1.5-1.4-2.5c0,0,0,0,0,0l7.6-25.2l0.6-1.9c0.3-1.1,1.5-1.7,2.6-1.4C149.5,141.7,150.1,142.9,149.8,143.9"/>
<path class="st0" d="M165.8,146.2c0,0.2,0,0.3-0.1,0.4c-0.3,1.4-1.4,2.3-2.8,2.4h-0.1c-0.2,0-0.3,0-0.5,0l-1.3-0.2l-0.3,0l-11.7-2.1
	l-1.7-0.3c-0.9-0.2-1.6-0.8-2-1.5c-0.3-0.5-0.4-1.2-0.3-1.8c0.3-1.6,1.8-2.6,3.4-2.3l15,2.7c0.2,0,0.3,0.1,0.5,0.1
	c0.1,0,0.1,0,0.2,0.1C165.1,143.9,165.8,145,165.8,146.2"/>
<path class="st0" d="M153.5,107.2c-0.3,0.3-0.7,0.5-1.1,0.5c-0.4,0-0.9-0.2-1.2-0.5l-0.9-0.9l-6.2-6.6c-0.6-0.7-0.6-1.7,0.1-2.3
	c0.7-0.6,1.7-0.6,2.3,0.1l6.2,6.7l0.8,0.9C154.3,105.5,154.2,106.6,153.5,107.2"/>
<path class="st0" d="M154.2,106.2l-1.3,18.5l-0.1,2c-0.1,1-0.9,1.8-2,1.8h-0.1c-1.1-0.1-1.9-1-1.8-2l0.1-1.8l1.3-18.3l0-0.3
	c0.1-1.1,1-1.8,2.1-1.8c0.1,0,0.1,0,0.2,0C153.6,104.4,154.3,105.3,154.2,106.2"/>
<path class="st0" d="M169,135.9c0,0.1,0,0.3,0,0.4c0,0.2,0,0.4-0.1,0.5c-0.1,0.3-0.2,0.6-0.4,0.9c-0.6,0.8-1.5,1.3-2.4,1.3
	c-0.6,0-1.1-0.2-1.6-0.5l-1.4-1l-0.1,0l-13-8.7c-1.3-0.9-1.7-2.7-0.8-4c0.1-0.2,0.3-0.4,0.5-0.6c1-0.9,2.4-1,3.5-0.2l0.6,0.4
	l9.4,6.3l4.4,3c0,0,0,0,0,0l0.1,0.1C168.5,134.2,168.9,135,169,135.9"/>
<path class="st0" d="M174.2,114.5l-0.4,1c0,0-0.1,0-0.1,0.1c-0.2,0.1-0.4,0.1-0.6,0c-0.1,0-0.3-0.1-0.3-0.2l-1.6-1.9l-7-8.1
	c-0.1-0.1-0.2-0.3-0.2-0.5l-0.3-13.4l-6.9-4.2c-0.4-0.2-0.5-0.7-0.3-1.1c0.2-0.4,0.7-0.5,1.1-0.3l7.3,4.5c0.2,0.1,0.4,0.4,0.4,0.7
	l0.3,13.5l7.2,8.4l1.3,1.5c0,0,0.1,0.1,0.1,0.1C174.2,114.5,174.2,114.5,174.2,114.5"/>
<path class="st1" d="M174.5,116.6L174.5,116.6c0,0.7-0.3,1.3-0.7,1.8c-0.2,0.2-0.5,0.4-0.8,0.5c-0.3,0.1-0.6,0.2-1,0.2
	c-0.6,0-1.2-0.2-1.6-0.6c-0.5-0.4-0.9-1.1-0.9-1.9v0c0-1.4,1.1-2.5,2.5-2.5c0.4,0,0.7,0.1,1,0.2
	C173.8,114.7,174.5,115.6,174.5,116.6"/>
<path class="st0" d="M204.4,107.7c0.4,0,0.9-0.2,1.2-0.5l7-7.6c0.6-0.7,0.6-1.7-0.1-2.3c-0.7-0.6-1.7-0.6-2.3,0.1l-7,7.6
	c-0.6,0.7-0.6,1.7,0.1,2.3C203.6,107.5,204,107.7,204.4,107.7"/>
<path class="st0" d="M206,128.5h0.1c1.1-0.1,1.9-1,1.8-2l-1.5-20.5c-0.1-1-1-1.8-2.1-1.8c-1.1,0.1-1.9,1-1.8,2l1.5,20.5
	C204.2,127.7,205,128.5,206,128.5"/>
<path class="st0" d="M190.6,139c0.6,0,1.1-0.2,1.6-0.5l14.4-9.7c1.3-0.9,1.7-2.7,0.8-4c-0.9-1.3-2.7-1.7-4-0.8l-14.4,9.7
	c-1.3,0.9-1.7,2.7-0.8,4C188.7,138.5,189.6,139,190.6,139"/>
<path class="st0" d="M181.7,114.1c0-0.1,0.1-0.2,0.1-0.2l8.9-9.4l1-13.5c0-0.3,0.2-0.5,0.4-0.6l7.5-4.1c0.4-0.2,0.9-0.1,1.1,0.3
	c0.2,0.4,0.1,0.9-0.3,1.1l-7.1,3.9l-1,13.3c0,0.2-0.1,0.4-0.2,0.5L183,115c-0.1,0.1-0.2,0.2-0.4,0.2c-0.2,0.1-0.5,0-0.7-0.1
	L181.7,114.1z"/>
<path class="st0" d="M221.8,176.8c0.5,0,1-0.2,1.3-0.7c0.5-0.7,0.4-1.8-0.3-2.3l-6.2-4.7c-0.7-0.6-1.8-0.4-2.3,0.3
	c-0.6,0.7-0.4,1.8,0.3,2.3l6.2,4.7C221.1,176.7,221.4,176.8,221.8,176.8"/>
<path class="st0" d="M215.6,172.6c0.2,0,0.4,0,0.6-0.1c1.1-0.3,1.7-1.5,1.4-2.6l-8.2-27.2c-0.3-1.1-1.5-1.7-2.6-1.4
	c-1.1,0.3-1.7,1.5-1.4,2.6l8.2,27.2C213.9,172,214.7,172.6,215.6,172.6"/>
<path class="st0" d="M192.3,149c0.2,0,0.3,0,0.5,0l15-2.7c1.6-0.3,2.6-1.8,2.3-3.4c-0.3-1.6-1.8-2.6-3.4-2.3l-15,2.7
	c-1.6,0.3-2.6,1.8-2.3,3.4C189.7,148,191,149,192.3,149"/>
<path class="st1" d="M182.3,116.6c0,1.4,1.1,2.5,2.5,2.5c1.4,0,2.5-1.1,2.5-2.5v0c0-1.4-1.1-2.5-2.5-2.5
	C183.4,114.1,182.3,115.2,182.3,116.6L182.3,116.6z"/>
<path class="st0" d="M178.5,149.4c0,0.3-0.1,0.6-0.1,1v0c-0.1,0.5-0.2,1-0.4,1.6c-1.8,5.8-6.7,8.6-11,6.2l-10.2-5.6l-1.3-0.7
	l-0.3-0.2c0.1-0.4,0.3-0.8,0.4-1.3l0.4-1c0.1-0.2,0.2-0.5,0.3-0.8c0.8-2,1.6-4,2.5-5.8c1.3-2.7,2.7-5.1,4.2-7.2
	c0.4-0.6,0.8-1.1,1.2-1.7c0.3-0.4,0.7-0.9,1.1-1.3l2.2,1.2l1.4,0.7l4.5,2.5c2.6,1.4,4.4,4.4,5,7.8v0c0.1,0.3,0.1,0.6,0.1,1
	c0,0.3,0.1,0.5,0.1,0.8C178.6,147.6,178.6,148.5,178.5,149.4"/>
<path class="st0" d="M194.1,127.3c0,1.2-0.2,2.3-0.7,3.4c-0.6,1.6-1.7,3-3.1,3.9v0c-0.8,0.6-1.7,1-2.7,1.3c-0.8,0.3-1.7,0.4-2.5,0.4
	h-13.6c-0.9,0-1.8-0.1-2.6-0.4c-1-0.3-1.9-0.7-2.7-1.3c0,0,0,0,0,0c-1.4-1-2.5-2.3-3.1-3.9c-0.4-1-0.7-2.2-0.7-3.4
	c0-4.5,3.4-8.3,7.8-8.9c0.4-0.1,0.8-0.1,1.2-0.1h13.6c0.4,0,0.8,0,1.2,0.1C190.7,119,194.1,122.8,194.1,127.3"/>
<path class="st0" d="M184.2,116.6c0,0.6-0.1,1.2-0.3,1.7c-0.1,0.2-0.1,0.3-0.2,0.5c-0.3,0.7-0.7,1.3-1.2,1.8c-1,1-2.5,1.7-4,1.7
	h-0.3c-2.4,0-4.4-1.4-5.2-3.5c-0.1-0.2-0.1-0.3-0.2-0.5c-0.2-0.6-0.3-1.1-0.3-1.7c0-0.8,0.2-1.6,0.5-2.3c0.2-0.4,0.4-0.7,0.6-1.1
	c0.5-0.7,1.2-1.3,2-1.7c0.2-0.1,0.4-0.2,0.7-0.3c0.6-0.2,1.3-0.3,1.9-0.3h0.3c0.7,0,1.3,0.1,1.9,0.3c0.2,0.1,0.4,0.2,0.7,0.3
	c0.8,0.4,1.5,1,2,1.7c0.2,0.3,0.5,0.7,0.6,1.1C184,115,184.2,115.8,184.2,116.6"/>
<path class="st0" d="M180.9,110.1c0,0.4-0.2,0.9-0.4,1.2c-0.3,0.4-0.9,0.7-1.5,0.7h-1.3c-0.6,0-1.1-0.3-1.5-0.7
	c-0.3-0.3-0.4-0.7-0.4-1.2c0-1,0.8-1.9,1.9-1.9h1.3C180,108.2,180.9,109,180.9,110.1"/>
<path class="st0" d="M178.2,148.1c0.1,0.8,0.3,1.6,0.5,2.3c1.8,5.3,6.7,7.9,11,5.7l11.8-6c-0.2-0.7-0.5-1.4-0.8-2.1
	c-0.1-0.2-0.2-0.5-0.3-0.7c-2.2-5.4-4.9-10-8-13.5c-0.3-0.4-0.7-0.8-1.1-1.2l-8.1,4.1c-2.8,1.4-4.7,4.6-5.1,8.1
	C178.1,146,178.1,147,178.2,148.1"/>
<path class="st1" d="M178.4,180.5C178.4,180.5,178.4,180.5,178.4,180.5L178.4,180.5c-7.9,7.6-12.8,14.4-15.7,20.6
	c5.8,3.1,10.6,6.1,14.5,9c3.9-2.9,8.7-5.8,14.5-9c0.7-0.4,1.3-0.7,1.9-1.1C190.5,194.1,185.7,187.6,178.4,180.5"/>
<path class="st3" d="M178.3,180.5c10.1-9.8,15.1-20.4,17.5-29c-7.2-12.3-14.5-21.7-17.4-21.7c-2.9,0-10.2,9.6-17.5,22
	C163.4,160.3,168.3,170.8,178.3,180.5"/>
<path class="st4" d="M162.6,201.1c2.9-6.2,7.9-13,15.7-20.6l0,0c-10-9.7-15-20.2-17.4-28.7c-6,10.2-11.9,22.2-15.3,32.4
	C148.6,189.9,153.8,196.3,162.6,201.1"/>
<path class="st4" d="M178.3,180.5C178.4,180.5,178.4,180.5,178.3,180.5c7.4,7.2,12.2,13.7,15.2,19.6c9.3-5.6,14.1-13.1,16.6-19.2
	c-3.5-9.5-8.9-20.2-14.3-29.4C193.4,160.1,188.5,170.7,178.3,180.5"/>
<path class="st5" d="M177.1,210.1c-9.3,6.8-13.3,13.2-13.1,20.4c4.4,1.9,9.3,3,14.4,3c4.1,0,8-0.7,11.7-2
	C190.8,223.9,186.8,217.2,177.1,210.1"/>
<path class="st6" d="M177.1,210.1c-9.3,6.8-13.3,13.2-13.1,20.4c4.4,1.9,9.3,3,14.4,3c4.1,0,8-0.7,11.7-2
	C190.8,223.9,186.8,217.2,177.1,210.1"/>
<g>
	<g>
		<defs>
			<rect id="SVGID_1_" x="164.1" y="210.1" width="26.1" height="23.5"/>
		</defs>
		<clipPath id="SVGID_2_">
			<use xlink:href="#SVGID_1_"  style="overflow:visible;"/>
		</clipPath>
		<path class="st7" d="M177.1,210.1c-9.3,6.8-13.3,13.2-13.1,20.4c4.4,1.9,9.3,3,14.4,3c4.1,0,8-0.7,11.7-2
			C190.8,223.9,186.8,217.2,177.1,210.1"/>
	</g>
</g>
<path class="st8" d="M162.6,201.1c-8.9-4.8-14-11.2-17-17c-1.7,5.3-2.8,10.1-2.8,13.8c0,13.2,7.2,24.8,17.9,30.9
	C158.5,221.3,157.3,212.2,162.6,201.1"/>
<path class="st6" d="M193.5,200c-0.6,0.4-1.2,0.7-1.9,1.1c-5.8,3.1-10.6,6.1-14.5,9c9.7,7.2,13.6,13.8,13,21.5
	c2-0.7,3.9-1.6,5.7-2.6C198.3,221.2,199.5,211.7,193.5,200"/>
<path class="st8" d="M214.1,197.9c0-4.5-1.5-10.5-3.9-17.1c-2.5,6.1-7.3,13.6-16.6,19.2c5.9,11.7,4.7,21.1,2.3,29
	C206.7,222.9,214.1,211.3,214.1,197.9"/>
<path class="st6" d="M177.1,210.1c-3.9-2.9-8.7-5.8-14.5-9c-5.3,11.1-4.1,20.2-1.8,27.7c1.1,0.6,2.2,1.2,3.3,1.7
	C163.9,223.3,167.9,216.9,177.1,210.1"/>
<g>
	<g>
		<defs>
			<rect id="SVGID_3_" x="177.1" y="200" width="20.7" height="31.5"/>
		</defs>
		<clipPath id="SVGID_4_">
			<use xlink:href="#SVGID_3_"  style="overflow:visible;"/>
		</clipPath>
		<path class="st9" d="M193.5,200c-0.6,0.4-1.2,0.7-1.9,1.1c-5.8,3.1-10.6,6.1-14.5,9c9.7,7.2,13.6,13.8,13,21.5
			c2-0.7,3.9-1.6,5.7-2.6C198.3,221.2,199.5,211.7,193.5,200"/>
	</g>
</g>
<g>
	<g>
		<defs>
			<rect id="SVGID_5_" x="158.9" y="201.1" width="18.3" height="29.4"/>
		</defs>
		<clipPath id="SVGID_6_">
			<use xlink:href="#SVGID_5_"  style="overflow:visible;"/>
		</clipPath>
		<path class="st10" d="M177.1,210.1c-3.9-2.9-8.7-5.8-14.5-9c-5.3,11.1-4.1,20.2-1.8,27.7c1.1,0.6,2.2,1.2,3.3,1.7
			C163.9,223.3,167.9,216.9,177.1,210.1"/>
	</g>
</g>
<path class="st8" d="M223.8,209.4c-0.2-0.1-0.4-0.3-0.7-0.4c0.1,0.8,0.2,1.5,0.4,2.3c1,4.3,3.7,7.8,7.1,10c0.2-2.1,0.9-4.2,2.2-6.5
	C230.5,213.2,227.5,211.5,223.8,209.4"/>
<path class="st1" d="M263.3,173.4c0,0.7,0.6,1.2,1.2,1.2c0.7,0,1.2-0.6,1.2-1.2v0c0-0.7-0.6-1.2-1.2-1.2
	C263.9,172.2,263.3,172.7,263.3,173.4L263.3,173.4z"/>
<path class="st0" d="M264.8,171.4c0-0.2,0-0.4-0.1-0.6l0,0c-0.1-1-0.4-1.9-0.9-2.5c0-0.1-0.1-0.1-0.1-0.2c0.4-0.6,0.9-1.9,1.1-4.8
	l0,0c0-0.3,0-0.6,0-0.9l0-0.1c0-0.2,0-0.4,0-0.6c0-0.2,0-0.3,0-0.5v0c0-0.2,0-0.5,0-0.7l0,0c0-0.3,0-0.5,0-0.8l0,0
	c0-0.3,0-0.6,0.1-0.9l0,0c0.1-1.2,0.4-2.4,0.6-3.5l0-0.1c0.1-0.5,0.3-1,0.5-1.5l0,0c0.5-1.3,1-2.5,1.6-3.5c0.1-0.1,0.1-0.3,0.2-0.4
	c0,0,0.1-0.1,0-0.2c-0.1-0.1-0.2,0.1-0.2,0.1c-0.1,0.1-0.2,0.2-0.2,0.3c-0.5,0.7-1,1.6-1.4,2.5l0,0c-0.2,0.6-0.5,1.2-0.7,1.8l0,0
	c-0.2,0.7-0.4,1.4-0.6,2.2l0,0c-0.1,0.5-0.2,1.1-0.3,1.6l0,0c-0.1,0.5-0.1,1-0.2,1.5l0,0c0,0.3-0.1,0.6-0.1,0.8l0,0.1
	c0,0.1,0,0.2,0,0.4l0,0c0,0.2,0,0.5,0,0.7l0,0c0,0.2,0,0.4,0,0.7c0,0.1,0,0.2,0,0.4l0,0c0,0.4,0,0.8,0,1.1l0,0c0,0.3,0,0.6-0.1,0.9
	l0,0c0,0.3-0.1,0.5-0.1,0.8l0,0c-0.2,1.2-0.5,1.7-0.7,2c0,0-0.1,0.1-0.1,0.1c0,0,0,0,0,0c0,0,0,0,0,0c-0.5-0.3-1-0.4-1.4-0.4
	c0,0,0,0,0,0c-0.2,0-0.4,0-0.7,0.1c0,0-0.1,0-0.1,0c0,0-0.1,0-0.1,0c-0.4,0.1-0.7,0.3-0.8,0.3c-0.1-0.1-0.2-0.1-0.3-0.2
	c-0.1-0.1-0.3-0.2-0.5-0.2c-0.9-0.3-1.8,0-2.7,0.2c0,0,0.1,0,0.1,0c-0.3,0.1-0.6,0.1-0.8,0.2c-1.5,0.3-4.6,0.7-6.7,1.9
	c0,0,0.1-0.1,0.1-0.1c-0.9,0.5-1.7,1.1-2,2c0,0,0,0,0,0c0,0.1-0.1,0.2-0.1,0.3c0,0,0,0,0,0c0,0,0,0,0,0c0,0-0.1,0-0.2,0.1
	c0,0,0,0,0,0c0,0-0.1,0-0.1,0v0c-0.8,0.3-2,1-3.7,2c-0.1,0.1-0.2,0.1-0.3,0.2v0c0,0,0,0,0,0c-0.1,0-0.1,0.1-0.2,0.1
	c0,0-0.1,0.1-0.1,0.1c-0.1,0-0.1,0.1-0.1,0.1c0,0-0.1,0.1-0.1,0.1c0,0-0.1,0.1-0.1,0.1c0,0-0.1,0.1-0.1,0.1c0,0-0.1,0.1-0.1,0.1
	c0,0,0,0.1-0.1,0.1c0,0,0,0.1-0.1,0.1c0,0,0,0.1,0,0.1c0,0,0,0.1,0,0.1c0,0,0,0.1,0,0.1c0,0,0,0.1,0,0.1c0,0,0,0,0,0.1
	c-0.7,0.5-2,1.5-2.9,2.3v0c-0.1,0.1-0.1,0.1-0.2,0.2c0,0-0.1,0.1-0.1,0.1c-0.1,0.1-0.2,0.2-0.3,0.2c-0.1,0.1-0.1,0.1-0.2,0.2
	c0,0,0,0,0,0c0,0,0,0,0,0c0,0-0.1,0.1-0.1,0.2c0,0,0,0.1-0.1,0.1c0,0.1,0,0.1-0.1,0.2c0,0,0,0.1,0,0.1c-0.2,0.1-0.3,0.3-0.5,0.5v0
	c0,0,0,0,0,0c0,0-0.1,0.1-0.1,0.2c0,0,0,0,0,0.1c0,0.1-0.1,0.1-0.1,0.2c0,0,0,0-0.1,0.1c0,0-0.1,0.1-0.1,0.2c0,0,0,0-0.1,0.1
	c0,0-0.1,0.1-0.1,0.2c0,0,0,0.1,0,0.1c0,0-0.1,0.1-0.1,0.1c0,0,0,0.1,0,0.1c0,0,0,0,0,0c0,0.1-0.1,0.1-0.1,0.2c0,0,0,0,0,0
	c0,0,0,0,0,0c0,0,0,0.1,0,0.1c0,0,0,0,0,0v0c0,0-0.1,0.1-0.1,0.1c0,0,0,0,0,0c-0.1,0.1-0.2,0.1-0.2,0.2c0,0,0,0-0.1,0
	c-0.1,0.1-0.2,0.2-0.3,0.2c0,0,0,0,0,0.1c-0.1,0.1-0.2,0.2-0.3,0.3c0,0,0,0,0,0c-0.1,0.1-0.2,0.2-0.2,0.3c-0.1,0.1-0.2,0.3-0.2,0.5
	c-0.3,0.3-0.7,0.7-1.2,1.2c0,0,0,0,0,0c0,0,0,0,0,0c0,0.1-0.1,0.1-0.1,0.2c0,0.1-0.1,0.1-0.1,0.2c-0.1,0.1-0.1,0.1-0.1,0.2
	c0,0.1-0.1,0.1-0.1,0.2c0,0.1-0.1,0.1-0.1,0.2c0,0.1-0.1,0.1-0.1,0.2c0,0.1-0.1,0.1-0.1,0.2c0,0.1-0.1,0.1-0.1,0.2
	c0,0.1-0.1,0.1-0.1,0.2c0,0.1,0,0.1-0.1,0.2c0,0.1,0,0.2-0.1,0.2c0,0,0,0.1,0,0.1c0,0.1,0,0.1,0,0.2c0,0,0,0,0,0c0,0,0,0.1,0,0.1
	c0,0,0,0.1,0,0.1c0,0,0,0,0,0c0,0.1,0,0.2,0,0.3c0,0,0,0.1,0,0.1c-0.4,0.4-1,1.2-1.5,2v0c0,0,0,0,0,0c-0.1,0.2-0.2,0.3-0.3,0.5
	c0,0,0,0.1,0,0.1c-0.1,0.2-0.2,0.3-0.2,0.5c0,0.1-0.1,0.2-0.1,0.3c0,0,0,0,0,0c0,0,0,0,0,0c0,0,0,0.1,0,0.1c0,0,0,0.1,0,0.1
	c0,0,0,0.1,0,0.1c0,0,0,0.1,0,0.1c0,0,0,0.1,0,0.1c0,0,0,0.1,0,0.1c0,0,0,0.1,0,0.1c0,0,0,0.1,0,0.1v0c-0.3,0.3-0.8,0.8-1.3,1.5
	c0,0,0,0,0,0c0,0.1-0.1,0.1-0.1,0.2c0,0,0,0,0,0c0,0.1-0.1,0.1-0.1,0.2c0,0,0,0,0,0c0,0.1-0.1,0.1-0.1,0.2l0,0.1c0,0,0,0.1-0.1,0.1
	c0,0,0,0,0,0.1c0,0,0,0.1-0.1,0.1c0,0,0,0,0,0.1c0,0,0,0.1,0,0.1c0,0,0,0,0,0.1c0,0,0,0.1,0,0.1c0,0,0,0.1,0,0.1c0,0,0,0.1,0,0.1
	c0,0,0,0.1,0,0.1c0,0,0,0.1,0,0.1c0,0,0,0,0,0c0,0,0,0,0,0v0c0,0,0,0,0,0c-0.4,0.6-1,1.7-1.3,2.9v0c0,0,0,0,0,0c0,0,0,0.1,0,0.1
	c0,0.1,0,0.1,0,0.2c0,0,0,0.1,0,0.1c0,0.1,0,0.1,0,0.2c0,0,0,0.1,0,0.1c0,0.1,0,0.1,0,0.2c0,0,0,0.1,0,0.1c0,0.1,0,0.2,0,0.3
	c0,0,0,0,0,0c0,0.1,0,0.2,0,0.3c0,0,0,0.1,0,0.1c0,0.1,0,0.1,0,0.2l0,0.1c0,0,0,0.1,0,0.1v0c-0.2,0.4-0.4,0.9-0.6,1.4v0c0,0,0,0,0,0
	c-0.1,0.2-0.2,0.5-0.3,0.7c0,0,0,0,0,0.1c-0.1,0.3-0.2,0.5-0.2,0.8c0,0,0,0.1,0,0.1c0,0,0,0,0,0c0,0,0,0,0,0.1c0,0,0,0.1,0,0.1
	c0,0,0,0.1,0,0.1c0,0.1,0,0.1,0,0.2c0,0,0,0.1,0,0.1c0,0,0,0,0,0.1c-0.1,0.5-0.3,1.2-0.4,1.9c0,0,0,0,0,0c0,0,0,0,0,0
	c0,0.2,0,0.3-0.1,0.5c0,0,0,0,0,0.1c0,0.2,0,0.3,0,0.5c0,0,0,0,0,0c-0.1,0.5-0.3,1.7,0.5,2c0,0,0,0,0,0c0,0,0,0,0,0
	c0,0.1,0.1,0.1,0.1,0.2c0,0,0,0,0,0c0,0,0.1,0.1,0.1,0.1c0,0,0,0,0,0c0,0,0.1,0.1,0.1,0.1c0,0,0,0,0,0c0.2,0.2,0.6,0.4,1.1,0.3
	c0,0,0,0,0,0c0,0,0,0,0,0c0.1,0,0.1,0,0.2,0c0,0,0,0,0,0c0.1,0,0.1,0,0.2,0c0,0,0.1,0,0.1,0.1c0,0,0,0,0.1,0c0,0,0.1,0,0.1,0.1
	c0,0,0,0,0,0c0,0,0,0,0,0c0.4,0.1,0.8,0.1,1.5-0.1c0.2-0.1,0.3-0.2,0.4-0.2l0,0c0,0,0,0,0,0c0,0,0.1,0,0.1-0.1c0,0,0.1,0,0.1-0.1
	c0,0,0,0,0,0c0.4,0.2,1,0.1,1.6-0.4c0,0,0.1,0,0.1,0c0,0,0.1,0,0.1,0c0.1,0,0.1,0,0.2,0c0,0,0.1,0,0.1,0c0.1,0,0.1,0,0.2,0
	c0,0,0.1,0,0.1,0c0.1,0,0.2,0,0.3,0c0,0,0.1,0,0.1,0c0.1,0,0.2,0,0.2-0.1c0,0,0.1,0,0.1,0c0,0,0.1,0,0.1,0c0,0,0,0,0,0
	c0.9-0.3,1.7-0.7,2.2-1.3l0,0c0,0,0,0,0,0c0.1-0.1,0.1-0.1,0.2-0.2c0,0,0,0,0.1-0.1c0.1-0.1,0.1-0.2,0.1-0.3c0,0,0,0,0,0
	c0,0,0,0,0,0c0,0,0,0,0,0c0,0,0.1,0,0.1,0c0,0,0,0,0,0c0,0,0,0,0.1,0c0,0,0.1,0,0.1,0c0,0,0,0,0.1,0c0,0,0,0,0.1,0c0,0,0,0,0,0
	c0,0,0,0,0.1,0c0,0,0.1,0,0.1,0c0,0,0.1,0,0.1-0.1c0,0,0,0,0.1,0c0,0,0,0,0,0c0,0,0,0,0,0c0.1-0.1,0.2-0.1,0.3-0.2c0,0,0,0,0,0v0
	c0.7-0.4,1.3-0.9,1.6-1.5h0c0,0,0,0,0,0c0-0.1,0.1-0.1,0.1-0.2c0,0,0,0,0-0.1c0-0.1,0-0.1,0.1-0.2c0.1,0,0.1,0,0.2-0.1h0
	c0.1,0,0.2-0.1,0.3-0.1c0,0,0,0,0,0c0,0,0.1,0,0.1,0c0,0,0,0,0.1,0c0.1-0.1,0.2-0.1,0.4-0.2c0,0,0,0,0,0l0,0c0,0,0,0,0,0
	c0.1-0.1,0.2-0.1,0.4-0.2c0,0,0,0,0,0c0,0,0.1,0,0.1-0.1c0,0,0,0,0,0c0.1-0.1,0.2-0.1,0.3-0.2c0,0,0,0,0,0c0,0,0,0,0,0
	c0.1-0.1,0.2-0.1,0.2-0.2c0,0,0,0,0,0h0c0.4-0.4,0.8-0.9,1-1.4c0,0,0,0,0,0c0,0,0,0,0,0c0-0.1,0.1-0.2,0.1-0.3c0,0,0,0,0-0.1
	c0-0.1,0.1-0.2,0.1-0.3c0,0,0.1-0.1,0.1-0.1c0,0,0,0,0,0c0,0,0.1,0,0.1-0.1c0,0,0.1-0.1,0.1-0.1c0,0,0,0,0,0c0.1,0,0.1-0.1,0.2-0.1
	c0,0,0.1-0.1,0.1-0.1c0,0,0,0,0,0c0,0,0,0,0.1-0.1c0,0,0.1-0.1,0.1-0.1c0,0,0.1-0.1,0.1-0.1c0,0,0-0.1,0.1-0.1c0,0,0.1-0.1,0.1-0.1
	c0,0,0.1-0.1,0.1-0.1l0.2-0.3c0.2-0.3,0.3-0.6,0.4-0.9c0,0,0,0.1,0,0.1v0c0,0.1,0,0.2,0,0.2h0c0,0,0,0,0,0c0,0,0,0,0,0c0,0,0,0,0,0
	c0,0,0,0,0,0.1l1.9-2.1l1.4-0.6c0-0.1,0.1-0.2,0.1-0.3l0,0l0,0c0.7-2.1,1.4-5,1.6-6.3c0.4-0.4,0.8-0.8,1-1.2
	c-0.1,0.6-0.2,1.2,0.1,1.2c0,0.7,0.4,1.8,2.1,1.8h0c0.5,0,1.2-0.1,2-0.4c0,0,0.1,0,0.1,0l0,0c0.5-0.2,1-0.4,1.5-0.6l0,0
	c0.7-0.3,1.3-0.6,1.8-0.8l0,0c0.5-0.3,0.9-0.5,1.2-0.7c0,0.3,0.1,0.6,0.2,0.9l0,0c0,0.2,0.1,0.4,0.1,0.6l0,0
	c0.1,0.3,0.1,0.5,0.2,0.8l0,0c0.1,0.3,0.1,0.6,0.2,1c0,0.2,0.1,0.4,0.1,0.7l0,0c0.1,0.4,0.2,0.8,0.2,1.2l0,0
	c0.1,0.6,0.2,1.2,0.3,1.8l0,0.1c0.3,1.5,0.6,2.6,0.9,2.8c0.3,0.6,0.7,1.1,1.1,1.6l0,0l0,0c0.2,0.2,0.4,0.4,0.6,0.5l0,0
	c0.3,0.3,0.7,0.5,1.1,0.7l0,0c1,0.5,1.9,0.8,2.3,0.6c0.1,0,0.2-0.1,0.3-0.1c0,0,0.1,0,0.1,0c0,0,0.1,0,0.1,0c0,0,0.1,0,0.1-0.1
	c0-0.1,0-0.1-0.1-0.2l-0.1,0c-0.2-0.1-0.5-0.1-0.7-0.1c-0.4,0-0.7-0.1-1-0.2l0,0l0,0c-0.5-0.2-1-0.5-1.5-0.9l0,0
	c-0.3-0.3-0.6-0.6-0.8-0.8l0,0c-0.2-0.2-0.3-0.4-0.5-0.6c0,0-0.1-0.1-0.1-0.1c0-0.1-0.1-0.1-0.1-0.2c0,0,0-0.1-0.1-0.1
	c0,0-0.1-0.1-0.1-0.1c0,0,0,0,0,0c0,0,0,0,0,0c0,0,0,0,0-0.1c0,0,0,0,0-0.1c0,0,0,0,0-0.1c0,0,0,0,0,0c0,0,0,0,0-0.1
	c0,0,0-0.1,0-0.1c0,0,0,0,0-0.1c0,0,0,0,0,0c0,0,0,0,0,0c0,0,0,0,0,0c0,0,0-0.1,0-0.1c0,0,0-0.1,0-0.1c0,0,0,0,0-0.1v0
	c0,0,0-0.1,0-0.1c0-0.1,0-0.1,0-0.2c0,0,0-0.1,0-0.1c0,0,0-0.1,0-0.1c0,0,0,0,0,0c0-0.3-0.1-0.6-0.2-0.9c-0.2-0.7-0.3-1.4-0.5-2l0,0
	l0,0c-0.1-0.5-0.2-1-0.3-1.5l0,0l0,0c-0.1-0.3-0.1-0.7-0.2-1l0,0c0-0.2-0.1-0.5-0.1-0.7l0,0c-0.1-0.5-0.2-1-0.3-1.6l0-0.1
	c0-0.1,0-0.2,0-0.3c0-0.2-0.1-0.4-0.1-0.5l0,0c0,0,0,0,0,0c0,0,0,0,0,0c0,0,0-0.1,0-0.1c0-0.1,0-0.1-0.1-0.2c0,0,0-0.1,0-0.1
	c0-0.1,0-0.1-0.1-0.2c0,0,0-0.1,0-0.1c0,0,0,0,0,0c0,0,0,0,0,0c0,0,0,0,0-0.1c0,0,0,0,0,0c0,0,0,0,0,0c0,0,0,0,0-0.1
	c0,0,0-0.1-0.1-0.1c0,0,0,0,0,0c0,0,0-0.1-0.1-0.1c0,0,0,0,0,0c0,0,0,0,0,0c0,0,0,0,0,0c0,0,0,0-0.1-0.1c0,0,0,0,0,0c0,0,0,0-0.1,0
	c0,0,0,0,0,0c0,0,0,0-0.1,0c0,0,0,0,0,0c0,0,0,0,0,0c0,0,0-0.1,0-0.1c0,0,0-0.1,0-0.1c0,0,0,0,0-0.1v0c-0.2-0.5-0.5-0.7-0.9-0.7l0,0
	c-0.3,0-0.5,0.2-0.8,0.4c-0.1,0.1-0.3,0.3-0.6,0.4l0,0c-0.3,0.2-0.8,0.4-1.3,0.6l0,0c-0.3,0.1-0.6,0.3-0.9,0.4l-0.1,0
	c-0.2,0.1-0.3,0.1-0.5,0.2l0,0c-0.2,0.1-0.4,0.1-0.6,0.2l-0.1,0c-0.1,0-0.3,0.1-0.4,0.1l0,0c-0.1,0-0.2,0.1-0.3,0.1
	c-0.1,0-0.2,0-0.4,0.1l-0.1,0c-0.1,0-0.2,0-0.3,0c-0.1,0-0.2,0-0.2,0c0.2-0.4,0.4-0.9,0.5-1.3l0,0c0-0.2,0.1-0.4,0.1-0.5
	c0.5-0.5,1.1-1.1,1.6-1.7c0.1-0.1,0.2-0.3,0.4-0.4c0.5,0.7,2.1,1.2,3.8,1.1c1.8-0.1,3.5,0.5,4.7,1.2c0,0,0,0,0.1,0l0,0
	c0.7,0.4,1.1,0.5,1.5,0.4c0.4,0.4,1,1,1.6,1.6l0,0c0.5,0.5,1,1.1,1.3,1.6c0.4,0.7,1.2,1.4,1.7,1.6c0.6,0.5,1.5,0.7,2.5,0.7l0,0
	c0.6,0,0.9,0,1.4-0.2c0,0,0.1-0.2-0.2-0.3c0,0-1.7,0-2-0.1c-0.2,0-0.5-0.2-0.6-0.2c0,0,0,0,0,0c-0.1,0-0.3-0.1-0.4-0.1
	c0,0-0.1,0-0.1,0c-0.1,0-0.2-0.1-0.2-0.1l0,0c-0.2-0.5-0.6-1.1-1.2-2l0,0c-0.3-0.5-0.7-1.1-1.1-1.8l0,0c0,0,0,0,0,0
	c-0.1-0.3-0.3-0.5-0.4-0.7l0,0c-0.1-0.2-0.3-0.4-0.4-0.5l0,0c-0.1-0.1-0.2-0.2-0.3-0.3c0,0,0,0,0,0c0,0,0,0,0,0
	c-0.1-0.1-0.3-0.2-0.4-0.3c0,0,0,0,0,0c0,0-0.1-0.1-0.1-0.1c0,0,0,0,0,0c0,0-0.1,0-0.1-0.1c0-0.1-0.1-0.2-0.1-0.4l0,0
	c-0.1-0.2-0.4-0.4-0.7-0.5l0,0c-0.3-0.1-0.6-0.2-1-0.3l0,0c-0.1,0-0.3-0.1-0.5-0.1c-1.3-0.2-2.6-0.2-3.9-0.4l0,0
	c-0.3,0-0.5-0.1-0.8-0.2l-0.1,0c-0.1,0-0.2-0.1-0.4-0.1l0,0c-0.1,0-0.2-0.1-0.3-0.1c-0.1,0-0.2-0.1-0.2-0.1l0,0
	c-0.3-0.1-0.6-0.2-0.9-0.3l0,0c-0.3-0.1-0.6-0.1-0.8-0.1c0.2-0.3,0.4-0.6,0.5-0.8c0,0,0,0,0.1,0c0.1-0.1,0.2-0.1,0.3-0.2
	c0.3,0,0.7-0.1,1.2-0.2c1.4-0.7,2.2-1.1,2.5-1.4c0.4,0.2,0.9,0.5,1.5,0.8c1.4,0.7,2.9,1.7,3.2,1.6c0.1,0,0.1,0,0.1-0.1
	c1.2-0.2,2.1-1.1,2.4-1.7l0,0c0-0.1,0-0.2,0-0.2c-0.1,0-0.2,0-0.2,0.1c0,0,0,0,0,0c-0.5,0.9-1.7,1.3-2.1,1.4
	c-0.1-0.2-0.4-0.3-0.9-0.6c-1.2-0.6-2.2-1.2-3.4-1.8c-0.2-0.1-0.4-0.2-0.6-0.3c-0.2-0.5-0.6-0.4-0.9-0.2c0,0-0.1,0.1-0.2,0.2
	c0.5-0.7,0.8-1.4,1.2-2.3c0,0,0,0,0,0c0,0,0.1,0,0.1,0c0.1,0,0.1,0,0.2,0c0,0,0,0,0.1,0c0,0,0.1,0,0.1,0c0.5,1.4,2.2,1.3,2,1.2
	c-0.6-0.3-1-1-1.2-1.4c0,0,0.1,0,0.1-0.1c0,0,0.1,0,0.1,0c0.1,0,0.1-0.1,0.2-0.1c0,0,0.1,0,0.1-0.1c0.1,0,0.1-0.1,0.2-0.1
	c0,0,0.1,0,0.1-0.1c0,0,0,0,0,0c0.3,0.2,1,0.8,1.3,1.4c0.4,0.9,0.3-1.1-0.8-1.8c0,0,0,0,0,0c0.1-0.1,0.1-0.1,0.2-0.2c0,0,0,0,0,0
	c0-0.1,0.1-0.1,0.1-0.2c0,0,0,0,0,0c0.2-0.3,0.4-0.7,0.6-1.2c0.3-0.8,0.4-1.7,0.5-2.5L264.8,171.4z"/>
<path class="st4" d="M241.3,203.3c-1.6,1.9-3,3.7-4.2,5.2c1.9,2.4,3.4,4.4,4.5,6.3c2.3-2,5.1-4.1,8.7-6.8c2.2-1.6,3.8-3.5,4.9-5.6
	c-1.2-3.9-3.7-7-6.9-9l0,0c0,0-1.5-1.1-3.2-2.5C245.4,195.1,244.5,199.5,241.3,203.3"/>
<path class="st3" d="M232.8,203.5c1.6,1.9,3.1,3.6,4.3,5.1c1.2-1.6,2.6-3.3,4.2-5.2c3.1-3.8,4.1-8.2,3.9-12.4
	c-1.7-1.5-3.6-3.4-4.4-5.1c-0.8-1.6-1.1-3.4-1.3-4.9c-0.2-1.3-1.8-1.9-2.8-1c-2.1,1.9-5.3,5.1-8.1,9.4
	C228.2,194.1,229.1,199.2,232.8,203.5"/>
<path class="st4" d="M223.8,209.4c3.7,2,6.7,3.8,9.1,5.4c1-1.8,2.5-3.9,4.2-6.2c-1.3-1.5-2.7-3.2-4.3-5.1c-3.7-4.3-4.5-9.4-4.1-14.1
	c-0.4,0.6-0.8,1.3-1.2,1.9c-2.8,4.9-4.8,12.1-4.3,17.7C223.4,209.2,223.6,209.3,223.8,209.4"/>
<path class="st1" d="M232.9,214.8c2.1,1.4,3.7,2.6,5,4c1-1.3,2.3-2.5,3.8-3.9c-1.1-1.9-2.6-3.9-4.5-6.3
	C235.3,210.9,233.9,212.9,232.9,214.8"/>
<path class="st6" d="M235.4,223.4c1.8,0.5,3.8,0.7,5.7,0.5c-0.7-1.9-1.7-3.6-3.2-5.1C236.7,220.2,235.9,221.7,235.4,223.4"/>
<g>
	<g>
		<defs>
			<rect id="SVGID_7_" x="235.4" y="218.7" width="5.7" height="5.2"/>
		</defs>
		<clipPath id="SVGID_8_">
			<use xlink:href="#SVGID_7_"  style="overflow:visible;"/>
		</clipPath>
		<path class="st11" d="M235.4,223.4c1.8,0.5,3.8,0.7,5.7,0.5c-0.7-1.9-1.7-3.6-3.2-5.1C236.7,220.2,235.9,221.7,235.4,223.4"/>
	</g>
</g>
<path class="st8" d="M250.4,208.1c-3.6,2.6-6.5,4.8-8.7,6.8c1.7,2.9,2.5,5.5,2.4,8.4c8.5-2.4,13.6-11.1,11.5-19.7
	c-0.1-0.4-0.2-0.7-0.3-1C254.2,204.6,252.6,206.5,250.4,208.1"/>
<path class="st6" d="M241.7,214.8c-1.6,1.4-2.8,2.6-3.8,3.9c1.5,1.6,2.5,3.2,3.2,5.1c0.8-0.1,1.6-0.2,2.4-0.4
	c0.2-0.1,0.4-0.1,0.6-0.2C244.2,220.4,243.4,217.8,241.7,214.8"/>
<path class="st6" d="M237.9,218.7c-1.3-1.3-2.9-2.6-5-4c-1.3,2.3-2,4.4-2.2,6.5c1.4,0.9,3,1.6,4.7,2.1
	C235.9,221.7,236.7,220.2,237.9,218.7"/>
<g>
	<g>
		<defs>
			<rect id="SVGID_9_" x="237.9" y="214.8" width="6.2" height="9"/>
		</defs>
		<clipPath id="SVGID_10_">
			<use xlink:href="#SVGID_9_"  style="overflow:visible;"/>
		</clipPath>
		<path class="st12" d="M241.7,214.8c-1.6,1.4-2.8,2.6-3.8,3.9c1.5,1.6,2.5,3.2,3.2,5.1c0.8-0.1,1.6-0.2,2.4-0.4
			c0.2-0.1,0.4-0.1,0.6-0.2C244.2,220.4,243.4,217.8,241.7,214.8"/>
	</g>
</g>
<g>
	<g>
		<defs>
			<rect id="SVGID_11_" x="230.6" y="214.8" width="7.2" height="8.6"/>
		</defs>
		<clipPath id="SVGID_12_">
			<use xlink:href="#SVGID_11_"  style="overflow:visible;"/>
		</clipPath>
		<path class="st13" d="M237.9,218.7c-1.3-1.3-2.9-2.6-5-4c-1.3,2.3-2,4.4-2.2,6.5c1.4,0.9,3,1.6,4.7,2.1
			C235.9,221.7,236.7,220.2,237.9,218.7"/>
	</g>
</g>
<path class="st0" d="M273.8,157.1c0.1,0,0.1,0.1,0.1,0.1c0,0.1-0.1,0.2-0.1,0.3c-0.2,0.7-0.5,1.5-1,2.3l0,0
	c-0.3,0.5-0.5,0.9-0.9,1.4l0,0c-0.4,0.5-0.8,1.1-1.2,1.6l0,0c-0.3,0.4-0.6,0.7-1,1.1l0,0c-0.3,0.3-0.6,0.6-0.9,0.9l0,0
	c-0.2,0.2-0.4,0.3-0.5,0.5l0,0c-0.1,0.1-0.2,0.1-0.2,0.2l0,0c-0.2,0.1-0.3,0.3-0.5,0.4l0,0c-0.1,0.1-0.3,0.2-0.4,0.4
	c-0.1,0.1-0.2,0.1-0.2,0.2l0,0c-0.3,0.2-0.5,0.4-0.7,0.6l0,0c-0.2,0.2-0.4,0.3-0.6,0.5l0,0c-0.2,0.2-0.3,0.3-0.5,0.5l0,0
	c-0.7,0.7-0.9,1.2-1,1.4c0,0,0,0.1,0,0.1v0c0,0,0,0.1,0,0.1c0,0,0,0,0,0c0,0,0,0,0,0l-0.6-0.1c0-0.1,0.1-0.2,0.1-0.3
	c0.3-0.6,1-1.6,2.6-3l0,0c0.2-0.2,0.4-0.3,0.6-0.5l0,0c0.1-0.1,0.3-0.2,0.4-0.3c0.1-0.1,0.2-0.2,0.3-0.3l0,0
	c0.2-0.1,0.3-0.2,0.5-0.4l0,0c0.2-0.1,0.4-0.3,0.5-0.5l0,0c0.2-0.2,0.4-0.3,0.5-0.5l0,0c0.8-0.7,1.4-1.5,2-2.3l0-0.1
	c0.3-0.4,0.5-0.8,0.8-1.1l0,0c0.6-1,1.2-2,1.6-3c0.1-0.1,0.1-0.2,0.2-0.4C273.6,157.3,273.7,157.1,273.8,157.1"/>
<path class="st1" d="M96.7,166.2c0,0.7,0.6,1.2,1.2,1.2c0.7,0,1.2-0.6,1.2-1.2v0c0-0.7-0.6-1.2-1.2-1.2
	C97.3,164.9,96.7,165.5,96.7,166.2L96.7,166.2z"/>
<path class="st0" d="M124.7,191.1C124.7,191.1,124.7,191.1,124.7,191.1C124.7,191,124.7,191,124.7,191.1L124.7,191.1
	c0.2-0.2,0.1-0.5,0.1-0.7c-0.1-0.4-0.3-0.9-0.4-1.3c-0.1-0.4-0.4-0.9-0.5-1.3c-0.2-0.4-0.4-0.8-0.6-1.2c0-0.1-0.1-0.1-0.1-0.2
	c0.1-0.1,0.2-0.2,0.2-0.4c0.1-0.5-0.3-1.1-0.5-1.4c-0.6-1.1-1.3-2-2.2-2.9c-0.2-0.2-0.3-0.4-0.5-0.5v0c0,0,0,0,0,0
	c0,0-0.3-0.3-0.4-0.4c0,0,0,0,0,0c0,0-0.1-0.1-0.1-0.1c0-0.1,0-0.1,0.1-0.2l0-0.1c0-0.1,0-0.1,0.1-0.2c0-0.1,0-0.1,0-0.2l0,0
	c0-0.1,0-0.3,0-0.4l0-0.1c0-0.1-0.1-0.4-0.1-0.4c0,0,0-0.1,0-0.1l0-0.1c-0.2-0.5-2.2-2.9-2.3-3c-0.2-0.8-0.6-1.4-1.2-2
	c0,0-0.8-0.6-1.1-0.8l0,0c0,0,0,0,0,0c0,0,0-0.1,0-0.1c0.1-0.1,0-0.3,0-0.4c-0.1-0.3-0.4-0.6-0.5-0.8c-0.2-0.2-0.4-0.4-0.6-0.6
	c0.1,0.1,0,0-0.2-0.1c-0.2-0.2-0.5-0.3-0.7-0.5c0,0-0.1,0-0.1-0.1v0c0,0,0,0,0,0c0,0,0,0,0,0c0,0,0,0,0,0c0,0,0,0,0,0l0,0
	c0-0.2-0.1-0.5-0.3-0.7c-0.1-0.1-0.2-0.3-0.3-0.4c-0.2-0.2-0.3-0.3-0.5-0.5c-0.3-0.3-0.7-0.5-1.1-0.8c-0.2-0.1-0.4-0.2-0.6-0.3
	c0,0,0,0,0,0c0,0,0,0,0,0c0,0-0.1,0-0.1,0c0,0,0,0,0,0c0,0-0.1,0-0.1,0c0,0,0,0-0.1,0c0,0,0-0.1,0-0.1c0,0,0,0,0,0c0,0,0-0.1,0-0.1
	c0,0,0,0,0,0c0,0,0-0.1-0.1-0.1c0,0,0,0,0,0c0,0-0.1-0.1-0.1-0.1c0,0,0,0,0,0c0,0,0,0,0,0c-0.4-0.3-1-0.6-1.4-0.7
	c-0.3-0.1-0.6-0.1-1-0.1c0-0.1,0-0.1,0-0.2v0c0-0.2-0.1-0.4-0.2-0.5c-0.4-0.6-1.1-1-1.7-1.3c-0.3-0.2-0.6-0.3-0.9-0.3
	c-0.1,0-0.2,0-0.2,0c-0.6-0.4-1.2-0.8-1.9-0.9c-0.8-0.1-1.8-0.1-2.5,0.4c-0.5,0.1-0.9,0.5-1.3,0.7c-0.1,0.1-0.1,0.1-0.2,0.2
	c0,0,0,0-0.1,0v0c0,0,0,0,0,0h0c-0.1-0.1-0.2-0.1-0.3-0.2c-0.2-0.1-0.4-0.2-0.6-0.3c0,0,0,0,0,0c0,0,0,0,0,0c0,0,0,0,0,0v0
	c-0.2-0.1-0.4-0.2-0.7-0.2c0,0,0,0,0,0c0,0,0,0,0,0c0,0,0,0,0,0c-0.2,0-0.4-0.1-0.7-0.1c0,0,0,0,0,0c0,0,0,0-0.1,0c0,0,0,0,0,0
	c-0.2,0-0.3,0-0.5,0c0,0,0,0,0,0c-0.1,0.2,0.1,0.3,0.2,0.3c0.3,0.1,0.6,0.1,0.8,0.2c0.5,0.2,1.1,0.4,1.6,0.7v0
	c-0.2,0.2-0.3,0.4-0.3,0.6c0,0,0,0,0,0c0-0.2,0.2-0.4,0.3-0.6c0,0,0.1,0.1,0.1,0.1c-0.1,0.2-0.2,0.3-0.2,0.5c0,0,0.1,0,0.1,0
	c0-0.2,0.1-0.3,0.2-0.5c0,0,0.1,0,0.1,0.1c0,0.1-0.1,0.2-0.1,0.3c-0.1,0.2-0.2,0.4-0.2,0.6c-0.2,0-0.4,0-0.6,0.1c0,0,0,0,0,0
	c0,0,0,0,0,0v0c-0.2,0-0.4,0.1-0.6,0.2v0c0,0,0,0,0,0c-0.1,0-0.3,0.1-0.4,0.1c-0.2,0.1-0.4,0.2-0.6,0.3h0c0,0,0,0,0,0c0,0,0,0,0,0
	c0,0,0,0,0,0c-0.2,0.1-0.4,0.3-0.6,0.4c0,0,0,0,0,0c0,0,0,0,0,0c0,0,0,0,0,0c-0.2,0.1-0.3,0.3-0.5,0.5c0,0,0,0,0,0c0,0,0,0,0,0
	c0,0,0,0,0,0c-0.1,0.1-0.2,0.3-0.3,0.4c0,0,0,0,0,0c0,0.1,0.1,0.1,0.2,0.1l0,0l0,0c0,0,0.1,0,0.1,0c0,0,0,0,0,0c0,0,0.1,0,0.1-0.1
	c0.2-0.2,0.4-0.4,0.7-0.5c0.5-0.3,1-0.6,1.5-0.8c0.4-0.1,0.8-0.2,1.2-0.3c0,0.1,0,0.2,0,0.3c0,0,0.1,0,0.1,0c0-0.1,0-0.2,0.1-0.3
	c0,0,0.1,0,0.1,0c-0.1,0.2-0.1,0.4-0.1,0.6c0,0,0.1,0,0.1,0c0,0,0,0,0-0.1c0,0,0,0,0,0c0,0,0.1-0.1,0.1-0.1c0-0.1,0.1-0.2,0.1-0.3
	c0,0,0-0.1,0.1-0.1h0c0,0,0,0,0,0c-0.1,0.3-0.2,0.6-0.2,0.9c-0.2,0.1-0.4,0.3-0.6,0.4c-0.2,0.2-0.5,0.4-0.7,0.6c0,0,0,0,0,0
	c0,0,0,0,0,0c0,0,0,0.1-0.1,0.1c0,0,0,0,0,0c0,0.1,0,0.1-0.1,0.2c0,0,0,0.1,0,0.1c0,0,0,0-0.1,0.1c0,0,0,0,0,0c0,0,0,0-0.1,0.1
	c0,0,0,0-0.1,0.1c-0.3,0.3-0.7,0.6-1,1c-0.3,0.3-0.6,0.7-0.6,1.1c0,0.1,0.1,0.1,0.2,0.1c0.1,0,0.1-0.1,0.1-0.1c0,0,0,0,0,0
	c0,0,0,0,0,0c0,0,0.1-0.1,0.1-0.1c0-0.1,0.1-0.1,0.1-0.1c0.2-0.2,0.4-0.5,0.6-0.7c0.2-0.2,0.4-0.4,0.7-0.6c0.1-0.1,0.2-0.1,0.3-0.2
	c0.1,0,0.1,0.1,0.2,0.1c0,0,0.1,0,0.1,0c-0.2,0.2-0.3,0.3-0.5,0.5c-0.3,0.3-0.6,0.7-0.6,1.1c0,0.1,0.1,0.1,0.2,0.1
	c0.1,0,0.1-0.1,0.1-0.1c0,0,0,0,0,0c0,0,0,0,0,0c0,0,0.1-0.1,0.1-0.1c0,0,0.1-0.1,0.1-0.1c0.2-0.2,0.4-0.5,0.6-0.7
	c0.1-0.2,0.3-0.3,0.5-0.4c0,0.1,0,0.2,0,0.3c0,0,0,0,0,0c0,0.1-0.1,0.1-0.1,0.2c-0.1,0.3-0.3,0.6-0.5,0.8c-0.3,0.4-0.6,0.9-0.9,1.4
	c-0.3,0.5-0.6,1-1,1.4c-0.4,0.5-0.8,1-1.2,1.6c-0.2,0.2-0.3,0.4-0.5,0.6c0,0,0,0,0,0c0,0-0.1,0.1-0.1,0.1c0,0-0.1,0.1-0.1,0.1
	c-0.1,0.1-0.1,0.2-0.2,0.3c0,0.1,0,0.2,0,0.3c-0.2,0.2-0.3,0.4-0.4,0.6c0,0,0,0.1-0.1,0.1c0,0,0,0,0,0c-0.1,0.1-0.1,0.2-0.2,0.3
	c-0.3,0.3-0.5,0.8-0.7,1.1c-0.3,0.5-0.6,1-0.8,1.5c0,0.1-0.1,0.2-0.1,0.2v0c0,0,0,0,0,0c0,0,0,0-0.1,0l-0.5,0l-6.3,0.4l-0.7,0
	l-1.5,0.1c-0.3,0-0.6,0.3-0.6,0.5l-1.7,1.4c-0.1,0.1-0.2,0.2-0.2,0.3c0,0.2,0,0.4,0.1,0.5c0.2,0.2,0.5,0.3,0.8,0.1l1.7-1.4
	c0,0,0,0,0,0l8.8-0.6l0.5,0l0.2,0c0,0,0,0,0,0c0.2,0,0.4-0.1,0.6-0.2c0.1-0.1,0.2-0.2,0.2-0.3c0.6-0.1,1.1-1,1.3-1.5
	c0.3-0.5,0.4-1.1,0.5-1.7c0-0.3,0.1-0.6,0.2-0.8c0.1,0,0.2,0,0.2,0c0.1,0,0.3-0.2,0.4-0.3c0,0,0.1,0.1,0.1,0.1
	c0.2-0.2,0.3-0.4,0.5-0.6c0-0.1,0.1-0.1,0.1-0.2c0,0,0,0.1,0,0.1c0,0,0.1,0.1,0.1,0.1c0.2-0.2,0.4-0.4,0.6-0.7c0,0,0.1,0.1,0.1,0
	c0.3-0.2,0.6-0.5,0.8-0.8c0-0.1,0.1-0.1,0.1-0.2c0,0,0,0.1,0,0.1c0,0,0.1,0.1,0.1,0.1c0.2-0.2,0.3-0.4,0.5-0.6c0,0.1,0,0.1-0.1,0.2
	c0,0.1,0.1,0.1,0.2,0.1c0.4-0.4,0.5-0.8,0.6-1.3c0-0.2,0.1-0.4,0.1-0.6c0.3,0.3,0.6,0.6,1,0.9c0.3,0.3,0.7,0.6,1,0.8
	c0,0.1,0,0.1,0,0.2c-0.2,0-0.3,0.1-0.5,0.1c-0.4,0.1-0.7,0.2-1.1,0.4c-0.4,0.2-0.8,0.4-1.1,0.7c-0.7,0.6-1.3,1.3-1.9,2.1
	c-0.1,0.2-0.3,0.4-0.3,0.6c0,0,0,0,0,0c0,0.1,0,0.1,0,0.2c-0.1,0-0.1,0-0.2,0.1c0,0,0,0,0,0l0,0c-0.3,0.2-0.4,0.5-0.3,0.8
	c0,0.1-0.1,0.2-0.1,0.3c-0.2,0.3-0.3,0.7-0.4,1c-0.3,0.7-0.6,1.5-1,2.2c-0.2,0.4-0.4,0.8-0.7,1.2l-0.6,0.3l-5.8,2.5l-0.7,0.3
	l-1.4,0.6c-0.3,0.1-0.4,0.4-0.4,0.7l-1.1,1.9c-0.1,0.1-0.1,0.2-0.1,0.4c0,0.2,0.1,0.3,0.3,0.4c0.3,0.2,0.6,0.1,0.8-0.2l1.1-1.9
	c0,0,0,0,0,0l8.1-3.5l0.4-0.2c0,0,0,0,0,0c0.1,0,0.1-0.1,0.2-0.1l0,0c0.1,0,0.2-0.1,0.2-0.2c0.1-0.1,0.2-0.2,0.3-0.3
	c0.2-0.2,0.4-0.4,0.6-0.6c-0.1,0.4-0.2,0.7-0.3,1c-0.2,0.6-0.4,1.2-0.6,1.8c0,0,0,0,0,0c0,0.1,0,0.2-0.1,0.3c0,0.1,0,0.3,0,0.4
	l0,0.1c0,0,0,0-0.1,0l-0.8,0.4l-5.7,2.7l-0.7,0.3l-1.4,0.7c-0.3,0.1-0.4,0.4-0.4,0.7l-1.1,2c-0.1,0.1-0.1,0.2-0.1,0.4
	c0,0.2,0.1,0.3,0.3,0.4c0.3,0.2,0.6,0.1,0.8-0.2l1.1-2c0,0,0,0,0,0l8-3.7l0.6-0.3c0.1,0,0.2-0.1,0.2-0.2c0.2-0.1,0.3-0.2,0.4-0.4
	c0.1-0.1-0.1-0.3-0.1-0.5c0,0,0-0.1,0-0.1c0.3-0.2,0.5-0.5,0.7-0.8c0.5-0.6,0.7-1.2,1-1.9c0.1-0.3,0.1-0.7,0.1-1c0-0.3,0-0.6,0-1
	c0-0.7-0.2-1.3-0.2-2c0.1-0.1,0.2-0.3,0.3-0.4c0.2,0,0.5-0.1,0.7-0.2c0.4-0.2,0.8-0.3,1.2-0.6c0.2-0.2,0.5-0.2,0.8-0.4
	c0.2-0.1,0.5-0.2,0.7-0.4c0.4-0.2,0.8-0.5,1.1-0.9c0,0,0.1-0.1,0.1-0.1c0.1,0.4,0.3,0.7,0.4,1.1c-0.6,0.4-1.1,0.8-1.6,1.3
	c-0.3,0.3-0.6,0.7-0.8,1.1c0,0.1-0.1,0.1-0.1,0.2c0,0,0,0,0,0c0,0,0,0,0,0c0,0.1-0.1,0.1-0.1,0.2c0,0,0,0,0,0c0,0.1,0,0.1-0.1,0.2
	c0,0,0,0,0,0c0,0.1,0,0.1,0,0.2c0,0,0,0,0,0c0,0.1,0,0.1,0,0.2c0,0-0.1,0-0.1,0.1c0,0-0.1,0.1-0.1,0.1c0,0,0,0,0,0c0,0,0,0,0,0
	c0,0,0,0,0,0c-0.1,0.1-0.1,0.3-0.1,0.4c0,0.1,0,0.1,0.1,0.2c-0.1,0.2-0.2,0.4-0.2,0.6c-0.1,0.4-0.2,0.7-0.4,1.1
	c-0.3,0.7-0.5,1.4-0.8,2c-0.3,0.6-0.6,1.1-0.9,1.7c-0.1,0.1-0.3,0.4-0.3,0.6c0,0,0,0,0,0c0,0,0,0,0,0c-0.2,0-0.3,0-0.4,0.2l-0.7,0.6
	l-4.7,4.2l-0.6,0.5l-1.2,1c-0.2,0.2-0.3,0.5-0.2,0.8l-0.5,2.2c0,0,0,0,0,0l-0.5,2.1c-0.1,0.3,0.1,0.6,0.4,0.7c0.2,0,0.3,0,0.5-0.1
	c0.1-0.1,0.2-0.2,0.2-0.3l0.4-2c0,0,0,0,0-0.1l0.5-2.2c0,0,0,0,0,0l6.5-5.8c0,0-0.1,0.1-0.1,0.1l0.7,1.4c0,0,0,0,0,0l-0.6,0.7
	l-4.2,4.7l-0.5,0.6l-1,1.2c-0.2,0.2-0.2,0.6-0.1,0.8l-0.2,2.2c0,0.1,0,0.1,0,0.1l-0.2,2.1c0,0.3,0.2,0.6,0.5,0.6
	c0.2,0,0.3-0.1,0.4-0.2c0.1-0.1,0.1-0.2,0.1-0.3l0.2-2.1c0,0,0,0,0-0.1l0.2-2.2c0,0,0,0,0,0l5.9-6.6l0.4-0.5c0.2-0.3,0.2-0.6,0-0.9
	c0.3-0.1,0.6-0.4,0.8-0.7c0.4-0.6,0.7-1.3,0.9-2c0.1-0.3,0.1-0.7,0.2-1c0.1-0.4,0.1-0.7,0-1.1c0-0.4-0.1-0.8-0.2-1.2
	c0-0.2-0.1-0.4-0.1-0.6c0-0.1,0-0.2,0.1-0.3c0.1,0,0.1,0,0.2-0.1c0.3-0.2,0.4-0.3,0.4-0.5c0.2,0,0.4,0,0.6-0.1
	c1-0.1,1.9-0.7,2.6-1.3c0.2-0.2,0.5-0.5,0.7-0.8c-0.2,0.3-0.5,0.7-0.8,1c-0.3,0.4-0.9,0.9-0.5,1.4c0,0,0,0,0.1,0.1
	c-0.1,0,0,0.1,0,0.1c0,0,0,0,0,0l0,0c-0.1,0.2-0.3,0.4-0.4,0.5c-0.6,0.7-1.1,1.3-1.7,2c-0.3,0.4-1,1.1-0.7,1.7
	c0,0.1,0.1,0.1,0.2,0.2c0,0,0,0,0,0c-0.1,0.3-0.3,0.5-0.4,0.8c-0.2,0.4-0.4,0.7-0.5,1.1c-0.1,0.4-0.3,0.7-0.4,1.1
	c-0.1,0.2-0.5,1.1-0.2,1.2c0,0,0.1,0,0.1,0c0,0,0,0,0,0c0,0,0,0,0,0c-0.2,0.5-0.4,1-0.5,1.5c0,0.1,0,0.1-0.1,0.2
	c-0.1,0.6-0.3,1.2-0.3,1.8c0,0.2,0,0.5,0,0.7c0,0.2,0.1,0.3,0.1,0.5c0,0,0,0.1,0,0.1c0.1,0,0.2,0.1,0.2,0.1c0,0,0,0,0.1,0
	c0,0.2,0,0.4-0.1,0.6c0,0.2,2.7,7.6,2.7,7.8l13.8-6.8L124.7,191.1z"/>
<path class="st4" d="M115.1,204.6c1.3,2.1,2.5,4,3.5,5.7c-2.2,2.1-3.9,3.9-5.3,5.7c-2-2.2-4.6-4.7-7.9-7.8c-2-1.8-3.3-4-4.2-6.2
	c1.7-3.7,4.5-6.5,8-8.1l0,0c0,0,1.6-0.9,3.5-2.1C112.1,195.9,112.5,200.4,115.1,204.6"/>
<path class="st3" d="M123.6,205.7c-1.8,1.7-3.5,3.2-4.9,4.6c-1-1.7-2.2-3.6-3.5-5.7c-2.7-4.2-3-8.7-2.3-12.8c1.9-1.3,4-2.9,4.9-4.5
	c0.9-1.5,1.5-3.3,1.9-4.7c0.3-1.3,2-1.7,2.9-0.7c1.9,2.2,4.6,5.7,6.9,10.3C129.2,196.9,127.8,201.9,123.6,205.7"/>
<path class="st4" d="M131.8,212.7c-3.9,1.6-7.1,2.9-9.7,4.2c-0.8-2-2-4.1-3.5-6.6c1.4-1.4,3.1-2.9,4.9-4.6c4.2-3.8,5.6-8.8,5.8-13.5
	c0.3,0.7,0.6,1.4,0.9,2.1c2.2,5.2,3.4,12.6,2.2,18.1C132.3,212.5,132,212.6,131.8,212.7"/>
<path class="st1" d="M122.2,216.9c-2.2,1.1-4,2.2-5.4,3.3c-0.8-1.4-1.9-2.8-3.3-4.3c1.3-1.7,3.1-3.6,5.3-5.7
	C120.2,212.8,121.3,215,122.2,216.9"/>
<path class="st6" d="M118.7,225.2c-1.9,0.3-3.8,0.2-5.7-0.2c0.9-1.8,2.1-3.3,3.8-4.7C117.7,221.9,118.4,223.5,118.7,225.2"/>
<g>
	<g>
		<defs>
			<rect id="SVGID_13_" x="112.9" y="220.3" width="5.7" height="5.1"/>
		</defs>
		<clipPath id="SVGID_14_">
			<use xlink:href="#SVGID_13_"  style="overflow:visible;"/>
		</clipPath>
		<path class="st14" d="M118.7,225.2c-1.9,0.3-3.8,0.2-5.7-0.2c0.9-1.8,2.1-3.3,3.8-4.7C117.7,221.9,118.4,223.5,118.7,225.2"/>
	</g>
</g>
<path class="st8" d="M105.6,208.2c3.3,3,5.9,5.5,7.9,7.8c-2.1,2.7-3.2,5.2-3.4,8.1c-8.1-3.4-12.2-12.7-9.1-21c0.1-0.3,0.3-0.7,0.4-1
	C102.2,204.3,103.6,206.4,105.6,208.2"/>
<path class="st8" d="M131.8,212.7c0.2-0.1,0.5-0.2,0.7-0.3c-0.2,0.8-0.4,1.5-0.6,2.2c-1.5,4.1-4.6,7.3-8.3,9.1
	c0.1-2.2-0.4-4.3-1.4-6.8C124.7,215.6,127.9,214.3,131.8,212.7"/>
<path class="st6" d="M113.4,216c1.4,1.5,2.5,2.9,3.3,4.3c-1.7,1.4-2.9,2.9-3.8,4.7c-0.8-0.2-1.5-0.4-2.3-0.7
	c-0.2-0.1-0.4-0.2-0.6-0.2C110.3,221.1,111.3,218.7,113.4,216"/>
<path class="st6" d="M116.7,220.3c1.4-1.2,3.2-2.2,5.4-3.3c1,2.5,1.5,4.6,1.4,6.8c-1.5,0.8-3.2,1.3-4.9,1.5
	C118.4,223.5,117.7,221.9,116.7,220.3"/>
<g>
	<g>
		<defs>
			<rect id="SVGID_15_" x="110" y="216" width="6.7" height="9"/>
		</defs>
		<clipPath id="SVGID_16_">
			<use xlink:href="#SVGID_15_"  style="overflow:visible;"/>
		</clipPath>
		<path class="st15" d="M113.4,216c1.4,1.5,2.5,2.9,3.3,4.3c-1.7,1.4-2.9,2.9-3.8,4.7c-0.8-0.2-1.5-0.4-2.3-0.7
			c-0.2-0.1-0.4-0.2-0.6-0.2C110.3,221.1,111.3,218.7,113.4,216"/>
	</g>
</g>
<g>
	<g>
		<defs>
			<rect id="SVGID_17_" x="116.7" y="216.9" width="6.9" height="8.3"/>
		</defs>
		<clipPath id="SVGID_18_">
			<use xlink:href="#SVGID_17_"  style="overflow:visible;"/>
		</clipPath>
		<path class="st16" d="M116.7,220.3c1.4-1.2,3.2-2.2,5.4-3.3c1,2.5,1.5,4.6,1.4,6.8c-1.5,0.8-3.2,1.3-4.9,1.5
			C118.4,223.5,117.7,221.9,116.7,220.3"/>
	</g>
</g>
<polygon class="st1" points="294.9,215.4 308.8,234.8 313,229.3 324.2,237.9 311.4,219.1 307.3,223.9 "/>
<path class="st0" d="M176.8,0c0,0-0.1,0-0.1,0c0,0-0.1,0-0.1,0C79.2,0,0,85.8,0,191.3V303h176.7h176.7V191.3
	C353.3,85.8,274.1,0,176.8,0 M347.7,296.8h-171H5.7V191.3C5.7,89.2,82.3,6.1,176.5,6.1c0,0,0.1,0,0.1,0c0,0,0.1,0,0.1,0
	c94.2,0,170.9,83.1,170.9,185.2V296.8z"/>
<path class="st0" d="M53,268h1.5c1.2,0,1.9,0.5,2.3,0.9c0.5,0.6,0.8,1.3,0.8,2.2c0,0.9-0.2,1.6-0.8,2.2c-0.4,0.4-1.1,0.9-2.3,0.9
	h-1.3v3.1h-1.5V268H53z M56.3,271.1c0-0.4-0.1-0.9-0.4-1.3c-0.3-0.3-0.8-0.5-1.4-0.5h-1.3v3.5h1.3c0.6,0,1.1-0.2,1.4-0.5
	C56.2,272,56.3,271.4,56.3,271.1"/>
<path class="st0" d="M59.9,276.5c-0.4-0.3-0.6-0.6-0.8-1c-0.2-0.4-0.3-0.9-0.3-1.4V268h1.5v6.1c0,0.6,0.2,1,0.6,1.3
	c0.4,0.3,0.9,0.4,1.4,0.4c0.5,0,1.1-0.2,1.4-0.4c0.4-0.3,0.6-0.7,0.6-1.3V268h1.5v6.1c0,0.5-0.1,1-0.3,1.4c-0.2,0.4-0.5,0.7-0.8,1
	c-0.6,0.5-1.4,0.7-2.3,0.7C61.3,277.3,60.5,277,59.9,276.5"/>
<polygon class="st0" points="68.9,271.3 68.9,277.3 67.4,277.3 67.4,267.5 73.3,273.9 73.3,268 74.8,268 74.8,277.7 "/>
<path class="st0" d="M81.7,275.3h-3.3l-0.8,2H76l4-9.7l4,9.7h-1.6L81.7,275.3z M81.2,274l-1.1-2.8l-1.1,2.8H81.2z"/>
<rect x="85.4" y="268" class="st0" width="1.5" height="9.3"/>
<path class="st0" d="M93.6,275.4c-0.3,0.9-1.1,1.6-2.1,1.8c-0.2,0-0.4,0.1-0.6,0.1c-0.4,0-0.8-0.1-1.1-0.2c-0.6-0.2-1.1-0.6-1.5-1.2
	l1.2-0.9c0.3,0.3,0.6,0.6,0.9,0.7c0.3,0.1,0.6,0.1,0.9,0.1c0.5-0.1,0.9-0.4,1-0.8c0.1-0.4-0.2-0.8-0.4-1.1c-0.4-0.4-1.1-1.1-1.1-1.1
	l-1.1-1.1c-0.4-0.3-0.6-0.7-0.7-1.1c-0.1-0.4-0.1-0.8,0-1.2c0.1-0.4,0.3-0.8,0.7-1c0.3-0.3,0.7-0.5,1.1-0.5c0.5-0.1,0.9-0.1,1.4,0.1
	c0.5,0.2,0.9,0.5,1.3,0.9l-1.1,0.9c-0.5-0.6-1-0.6-1.2-0.5c-0.3,0.1-0.6,0.3-0.7,0.5c-0.1,0.2,0,0.5,0.3,0.8l1.6,1.5
	c0.2,0.2,0.5,0.5,0.7,0.7c0.4,0.4,0.7,0.8,0.8,1.2C93.7,274.5,93.8,275,93.6,275.4"/>
<polygon class="st0" points="96.6,271.8 100,271.8 100,273.1 96.6,273.1 96.6,276 100.7,276 100.7,277.3 96.6,277.3 95.1,277.3 
	95.1,268 96.6,268 100.7,268 100.7,269.3 96.6,269.3 "/>
<path class="st0" d="M107.1,273.9c-0.7,0-1.3-0.6-1.3-1.3c0-0.7,0.6-1.3,1.3-1.3c0.7,0,1.3,0.6,1.3,1.3
	C108.4,273.3,107.8,273.9,107.1,273.9"/>
<path class="st0" d="M118.8,275.3h-3.3l-0.8,2h-1.6l4-9.7l4,9.7h-1.6L118.8,275.3z M118.3,274l-1.1-2.8L116,274H118.3z"/>
<path class="st0" d="M128.7,276.5c-0.2,0.2-0.5,0.3-0.8,0.4c-0.6,0.2-1.2,0.4-1.8,0.4c-0.6,0-1.2-0.1-1.8-0.4
	c-0.6-0.2-1.1-0.6-1.5-1c-0.4-0.4-0.8-0.9-1-1.5c-0.2-0.6-0.4-1.2-0.4-1.8c0-0.6,0.1-1.2,0.4-1.8c0.2-0.6,0.6-1.1,1-1.5
	c0.4-0.4,0.9-0.8,1.5-1c0.6-0.3,1.2-0.4,1.8-0.4c0.6,0,1.2,0.1,1.8,0.4c0.1,0,0.1,0.1,0.2,0.1v1.7c-0.6-0.5-1.3-0.7-2-0.7
	c-0.9,0-1.7,0.3-2.3,0.9c-0.6,0.6-0.9,1.4-0.9,2.3c0,0.9,0.3,1.7,0.9,2.3c0.6,0.6,1.4,0.9,2.3,0.9c0.9,0,1.7-0.3,2.3-0.9
	c0.1-0.1,0.2-0.2,0.3-0.4V276.5z"/>
<path class="st0" d="M135.3,275.3h-3.3l-0.8,2h-1.6l4-9.7l4,9.7H136L135.3,275.3z M134.7,274l-1.1-2.8l-1.1,2.8H134.7z"/>
<path class="st0" d="M145.3,277.3h-1.6l-2.3-3.1h-1.1v3.1h-1.5V268h1.2h1.5c1.2,0,1.9,0.5,2.3,0.9c0.5,0.5,0.8,1.3,0.8,2.2
	c0,0.9-0.3,1.6-0.8,2.1c-0.2,0.3-0.6,0.5-1.1,0.7L145.3,277.3z M141.5,272.8c0.6,0,1.1-0.2,1.3-0.5c0.3-0.4,0.4-0.9,0.4-1.3
	c0-0.4-0.1-0.9-0.4-1.3c-0.3-0.3-0.7-0.5-1.3-0.5h-1.3v3.5H141.5z"/>
<rect x="146.4" y="268" class="st0" width="1.5" height="9.3"/>
<polygon class="st0" points="151.3,271.8 154.7,271.8 154.7,273.1 151.3,273.1 151.3,276 155.4,276 155.4,277.3 151.2,277.3 
	149.8,277.3 149.8,268 151.2,268 155.4,268 155.4,269.3 151.3,269.3 "/>
<polygon class="st0" points="158.5,271.3 158.5,277.3 157.1,277.3 157.1,267.5 162.9,273.9 162.9,268 164.4,268 164.4,277.7 "/>
<path class="st0" d="M171,273.9c-0.7,0-1.3-0.6-1.3-1.3c0-0.7,0.6-1.3,1.3-1.3c0.7,0,1.3,0.6,1.3,1.3
	C172.3,273.3,171.7,273.9,171,273.9"/>
<path class="st0" d="M178.9,268h1.5c1.2,0,1.9,0.5,2.3,0.9c0.5,0.6,0.8,1.3,0.8,2.2c0,0.9-0.2,1.6-0.8,2.2c-0.4,0.4-1.1,0.9-2.3,0.9
	h-1.3v3.1h-1.5V268H178.9z M182.2,271.1c0-0.4-0.1-0.9-0.4-1.3c-0.3-0.3-0.8-0.5-1.4-0.5h-1.3v3.5h1.3c0.6,0,1.1-0.2,1.4-0.5
	C182.1,272,182.2,271.4,182.2,271.1"/>
<path class="st0" d="M185.7,276.5c-0.4-0.3-0.6-0.6-0.8-1c-0.2-0.4-0.3-0.9-0.3-1.4V268h1.5v6.1c0,0.6,0.2,1,0.6,1.3
	c0.4,0.3,0.9,0.4,1.4,0.4c0.5,0,1.1-0.2,1.4-0.4c0.4-0.3,0.6-0.7,0.6-1.3V268h1.5v6.1c0,0.5-0.1,1-0.3,1.4c-0.2,0.4-0.5,0.7-0.8,1
	c-0.6,0.5-1.4,0.7-2.3,0.7C187.2,277.3,186.4,277,185.7,276.5"/>
<path class="st0" d="M200.2,276.5c-0.2,0.2-0.5,0.3-0.8,0.4c-0.6,0.2-1.2,0.4-1.8,0.4c-0.6,0-1.2-0.1-1.8-0.4
	c-0.6-0.2-1.1-0.6-1.5-1c-0.4-0.4-0.8-0.9-1-1.5c-0.2-0.6-0.4-1.2-0.4-1.8c0-0.6,0.1-1.2,0.4-1.8c0.2-0.6,0.6-1.1,1-1.5
	c0.4-0.4,0.9-0.8,1.5-1c0.6-0.3,1.2-0.4,1.8-0.4c0.6,0,1.2,0.1,1.8,0.4c0.1,0,0.1,0.1,0.2,0.1v1.7c-0.6-0.5-1.3-0.7-2-0.7
	c-0.9,0-1.7,0.3-2.3,0.9c-0.6,0.6-0.9,1.4-0.9,2.3c0,0.9,0.3,1.7,0.9,2.3c0.6,0.6,1.4,0.9,2.3,0.9c0.9,0,1.7-0.3,2.3-0.9
	c0.1-0.1,0.2-0.2,0.3-0.4V276.5z"/>
<polygon class="st0" points="203.3,271.8 206.7,271.8 206.7,273.1 203.3,273.1 203.3,276 207.4,276 207.4,277.3 203.3,277.3 
	201.8,277.3 201.8,268 203.3,268 207.4,268 207.4,269.3 203.3,269.3 "/>
<path class="st0" d="M213.8,273.9c-0.7,0-1.3-0.6-1.3-1.3c0-0.7,0.6-1.3,1.3-1.3c0.7,0,1.3,0.6,1.3,1.3
	C215.1,273.3,214.5,273.9,213.8,273.9"/>
<path class="st0" d="M227.3,276.5c-0.2,0.2-0.5,0.3-0.8,0.4c-0.6,0.2-1.2,0.4-1.8,0.4c-0.6,0-1.2-0.1-1.8-0.4
	c-0.6-0.2-1.1-0.6-1.5-1c-0.4-0.4-0.8-0.9-1-1.5c-0.2-0.6-0.4-1.2-0.4-1.8c0-0.6,0.1-1.2,0.4-1.8c0.2-0.6,0.6-1.1,1-1.5
	c0.4-0.4,0.9-0.8,1.5-1c0.6-0.3,1.2-0.4,1.8-0.4c0.6,0,1.2,0.1,1.8,0.4c0.1,0,0.1,0.1,0.2,0.1v1.7c-0.6-0.5-1.3-0.7-2-0.7
	c-0.9,0-1.7,0.3-2.3,0.9c-0.6,0.6-0.9,1.4-0.9,2.3c0,0.9,0.3,1.7,0.9,2.3c0.6,0.6,1.4,0.9,2.3,0.9c0.9,0,1.7-0.3,2.3-0.9
	c0.1-0.1,0.2-0.2,0.3-0.4V276.5z"/>
<path class="st0" d="M233.9,275.3h-3.3l-0.8,2h-1.6l4-9.7l4,9.7h-1.6L233.9,275.3z M233.3,274l-1.1-2.8l-1.1,2.8H233.3z"/>
<polygon class="st0" points="239,271.8 242.4,271.8 242.4,273.1 239,273.1 239,277.3 237.5,277.3 237.5,268 239,268 243.1,268 
	243.1,269.3 239,269.3 "/>
<path class="st0" d="M248.6,275.3h-3.3l-0.8,2h-1.6l4-9.7l4,9.7h-1.6L248.6,275.3z M248.1,274l-1.1-2.8l-1.1,2.8H248.1z"/>
<path class="st0" d="M258.6,277.3H257l-2.3-3.1h-1.1v3.1h-1.5V268h1.2h1.5c1.2,0,1.9,0.5,2.3,0.9c0.5,0.5,0.8,1.3,0.8,2.2
	c0,0.9-0.3,1.6-0.8,2.1c-0.2,0.3-0.6,0.5-1.1,0.7L258.6,277.3z M254.9,272.8c0.6,0,1.1-0.2,1.3-0.5c0.3-0.4,0.4-0.9,0.4-1.3
	c0-0.4-0.1-0.9-0.4-1.3c-0.3-0.3-0.7-0.5-1.3-0.5h-1.3v3.5H254.9z"/>
<path class="st0" d="M266.6,272.6c0,1.3-0.4,2.4-1.1,3.3c-0.4,0.4-0.9,0.8-1.5,1c-0.6,0.2-1.3,0.4-2,0.4h-1.7h-0.5V268h1.5h0.8
	c0.8,0,1.4,0.1,2,0.4c0.6,0.2,1.1,0.6,1.5,1C266.2,270.2,266.6,271.3,266.6,272.6 M265.2,272.6c0-1-0.3-1.7-0.8-2.3
	c-0.6-0.6-1.4-0.9-2.4-0.9h-0.8v6.4h0.8c1.1,0,1.9-0.3,2.4-0.9C264.9,274.4,265.2,273.6,265.2,272.6"/>
<path class="st0" d="M273.5,273.8c-0.8,0-1.4-0.6-1.4-1.4c0-0.8,0.6-1.4,1.4-1.4c0.8,0,1.4,0.6,1.4,1.4
	C275,273.2,274.3,273.8,273.5,273.8"/>
<path class="st0" d="M286.9,277.7h-1.6l-2.3-3.1h-1.1v3.1h-1.5v-9.3h1.2h1.5c1.2,0,1.9,0.5,2.3,0.9c0.5,0.5,0.8,1.3,0.8,2.2
	c0,0.9-0.3,1.6-0.8,2.1c-0.2,0.3-0.6,0.5-1.1,0.7L286.9,277.7z M283.2,273.2c0.6,0,1.1-0.2,1.3-0.5c0.4-0.4,0.4-0.9,0.4-1.3
	c0-0.4-0.1-0.9-0.4-1.3c-0.3-0.3-0.7-0.5-1.3-0.5h-1.3v3.5H283.2z"/>
<path class="st0" d="M293.3,275.7H290l-0.8,2h-1.6l4-9.7l4,9.7h-1.6L293.3,275.7z M292.8,274.4l-1.1-2.8l-1.1,2.8H292.8z"/>
<polygon class="st0" points="301.7,269.7 299.1,269.7 299.1,277.7 297.7,277.7 297.7,269.7 295.1,269.7 295.1,268.4 301.7,268.4 "/>
</svg>
