<?xml version="1.0" encoding="utf-8"?>
<!-- Generator: Adobe Illustrator 19.0.0, SVG Export Plug-In . SVG Version: 6.00 Build 0)  -->
<svg version="1.1" id="Calque_1" xmlns="http://www.w3.org/2000/svg" xmlns:xlink="http://www.w3.org/1999/xlink" x="0px" y="0px"
	 viewBox="0 0 384 292.2" style="enable-background:new 0 0 384 292.2;" xml:space="preserve">
<style type="text/css">
	.st0{fill:#1F1D50;}
	.st1{fill:#18264F;}
	.st2{fill:#1C2B4D;}
	.st3{fill:#8CCBBD;}
	.st4{fill:#F4F4F0;}
	.st5{fill:#BBDFDC;}
	.st6{fill:#275F93;}
	.st7{fill:#71AAC4;}
	.st8{clip-path:url(#SVGID_2_);fill:#0E7A73;}
	.st9{fill:#92CEC3;}
	.st10{clip-path:url(#SVGID_4_);fill:#67BFAC;}
	.st11{clip-path:url(#SVGID_6_);fill:#67BFAC;}
	.st12{clip-path:url(#SVGID_8_);fill:#0E7A73;}
	.st13{clip-path:url(#SVGID_10_);fill:#67BFAC;}
	.st14{clip-path:url(#SVGID_12_);fill:#67BFAC;}
	.st15{clip-path:url(#SVGID_14_);fill:#0E7A73;}
	.st16{clip-path:url(#SVGID_16_);fill:#67BFAC;}
	.st17{clip-path:url(#SVGID_18_);fill:#67BFAC;}
</style>
<path class="st0" d="M49.1,177c0.1,0,0.2-0.1,0.2-0.2c0,0,0,0,0,0c0,0,0,0,0,0c0,0,0,0,0.1-0.1L49.1,177C49.1,177,49.1,177,49.1,177
	"/>
<path class="st1" d="M120.8,170.3l-1.9,1.5l-10.2,7.8c-0.6,0.5-1.3,0.6-2,0.6c-1,0-1.9-0.4-2.6-1.3c-1.1-1.4-0.8-3.5,0.6-4.6
	l10.2-7.8l1.9-1.5c1.4-1.1,3.5-0.8,4.6,0.6C122.5,167.1,122.2,169.2,120.8,170.3"/>
<path class="st2" d="M138.9,115.2l-1.5,5.1l-10.8,35.7l-1.2,4.2l-2.7,8.7c-0.5,1.8-2.1,2.9-3.9,2.9h0c-0.4,0-0.8,0-1.2-0.2
	c-2.1-0.7-3.3-2.9-2.7-5c0,0,0,0,0-0.1l15.1-49.9l1.1-3.8c0.7-2.2,2.9-3.4,5.1-2.7C138.4,110.7,139.6,113,138.9,115.2"/>
<path class="st2" d="M170.5,119.6c0,0.3-0.1,0.6-0.1,0.9c-0.5,2.7-2.8,4.6-5.4,4.7h-0.2c-0.3,0-0.7,0-1-0.1l-2.6-0.5l-0.6-0.1
	l-23.1-4.2l-3.4-0.6c-1.8-0.3-3.3-1.5-4-3c-0.6-1.1-0.8-2.3-0.6-3.6c0.6-3.1,3.5-5.2,6.7-4.6l29.7,5.4c0.3,0.1,0.6,0.2,0.9,0.3
	c0.1,0.1,0.3,0.1,0.4,0.2C169.2,115.1,170.5,117.2,170.5,119.6"/>
<path class="st2" d="M146.3,42.6c-0.6,0.6-1.4,0.9-2.2,0.9c-0.9,0-1.7-0.4-2.4-1l-1.7-1.9l-12.2-13.1c-1.2-1.3-1.1-3.4,0.2-4.6
	c1.3-1.2,3.4-1.1,4.6,0.2l12.3,13.2l1.6,1.8C147.7,39.3,147.6,41.3,146.3,42.6"/>
<path class="st2" d="M147.6,40.7l-2.6,36.6l-0.3,3.9c-0.1,2-1.9,3.5-3.9,3.5h-0.3c-2.2-0.1-3.8-1.9-3.6-4l0.3-3.7l2.6-36.2l0-0.6
	c0.2-2.1,2-3.6,4.2-3.5c0.2,0,0.3,0,0.4,0.1C146.3,37.1,147.7,38.8,147.6,40.7"/>
<path class="st2" d="M176.8,99.3c0,0.2,0,0.5,0,0.8c0,0.4-0.1,0.7-0.2,1c-0.2,0.6-0.4,1.2-0.8,1.8c-1.1,1.6-2.9,2.5-4.7,2.5
	c-1.1,0-2.2-0.3-3.2-1l-2.8-1.9l-0.1-0.1l-25.6-17.1c-2.6-1.8-3.3-5.3-1.6-7.9c0.3-0.4,0.6-0.8,1-1.1c1.9-1.7,4.8-1.9,7-0.5l1.2,0.8
	l18.5,12.4l8.7,5.9c0,0,0,0,0,0l0.1,0.1C175.9,95.9,176.7,97.6,176.8,99.3"/>
<path class="st2" d="M187.1,57.1l-0.7,1.9c-0.1,0-0.2,0.1-0.2,0.1c-0.4,0.1-0.7,0.2-1.1,0c-0.3-0.1-0.5-0.2-0.7-0.5l-3.2-3.8
	l-13.7-16.1c-0.2-0.3-0.4-0.6-0.4-1l-0.6-26.4L152.7,3c-0.8-0.5-1-1.4-0.5-2.2c0.5-0.8,1.4-1,2.2-0.5l14.4,8.8
	c0.5,0.3,0.8,0.8,0.8,1.3l0.6,26.7l14.1,16.5l2.5,2.9c0.1,0.1,0.1,0.1,0.2,0.2C187,56.9,187.1,57,187.1,57.1"/>
<path class="st3" d="M187.6,61.1L187.6,61.1c0,1.4-0.6,2.7-1.5,3.5c-0.4,0.4-0.9,0.7-1.5,1c-0.6,0.3-1.2,0.4-1.9,0.4
	c-1.2,0-2.3-0.4-3.2-1.2c-1-0.9-1.7-2.2-1.7-3.7v-0.1c0-2.7,2.2-4.9,4.9-4.9c0.7,0,1.4,0.2,2,0.4C186.4,57.4,187.6,59.1,187.6,61.1"
	/>
<path class="st2" d="M246.8,43.5c0.9,0,1.7-0.4,2.4-1l13.9-15c1.2-1.3,1.1-3.4-0.2-4.6c-1.3-1.2-3.4-1.2-4.6,0.2l-13.9,15
	c-1.2,1.3-1.1,3.4,0.2,4.6C245.2,43.2,246,43.5,246.8,43.5"/>
<path class="st2" d="M250,84.6h0.3c2.1-0.2,3.8-1.9,3.6-4L251,40.2c-0.1-2.1-2-3.6-4.1-3.5c-2.1,0.1-3.7,1.9-3.6,4l2.9,40.5
	C246.3,83.1,248,84.6,250,84.6"/>
<path class="st2" d="M219.5,105.4c1.1,0,2.2-0.3,3.2-1l28.5-19.1c2.6-1.8,3.3-5.3,1.6-7.9c-1.8-2.6-5.3-3.3-7.9-1.6l-28.5,19.1
	c-2.6,1.8-3.3,5.3-1.6,7.9C215.8,104.5,217.6,105.4,219.5,105.4"/>
<path class="st2" d="M201.9,56.2c0.1-0.2,0.2-0.3,0.3-0.5l17.5-18.6l1.9-26.7c0-0.5,0.4-1,0.8-1.3L237.3,1c0.8-0.4,1.8-0.1,2.2,0.6
	c0.4,0.8,0.1,1.8-0.6,2.2l-14.1,7.7l-1.9,26.4c0,0.4-0.2,0.7-0.4,1l-17.9,19c-0.2,0.2-0.4,0.4-0.7,0.4c-0.4,0.1-0.9,0.1-1.3-0.2
	L201.9,56.2z"/>
<path class="st2" d="M281.1,180.2c1,0,2-0.5,2.6-1.3c1.1-1.4,0.8-3.5-0.6-4.6l-12.2-9.2c-1.4-1.1-3.5-0.8-4.6,0.6
	c-1.1,1.4-0.8,3.5,0.6,4.6l12.2,9.2C279.7,180,280.4,180.2,281.1,180.2"/>
<path class="st2" d="M268.9,171.7c0.4,0,0.8-0.1,1.2-0.2c2.2-0.6,3.4-2.9,2.7-5.1l-16.2-53.7c-0.7-2.2-2.9-3.4-5.1-2.7
	c-2.2,0.7-3.4,2.9-2.7,5.1l16.2,53.7C265.5,170.6,267.2,171.7,268.9,171.7"/>
<path class="st2" d="M223,125.1c0.3,0,0.7,0,1-0.1l29.7-5.4c3.1-0.6,5.2-3.5,4.6-6.6c-0.6-3.1-3.5-5.2-6.6-4.6l-29.7,5.4
	c-3.1,0.6-5.2,3.5-4.6,6.6C217.8,123.2,220.2,125.1,223,125.1"/>
<path class="st3" d="M203,61.1c0,2.7,2.2,4.9,4.9,4.9c2.7,0,4.9-2.2,4.9-4.9v-0.1c0-2.7-2.2-4.9-4.9-4.9
	C205.2,56.2,203,58.4,203,61.1L203,61.1z"/>
<path class="st2" d="M195.6,125.9c-0.1,0.6-0.2,1.3-0.3,1.9v0c-0.2,1.1-0.4,2-0.8,3.1c-3.5,11.4-13.2,16.9-21.7,12.2l-20.1-11.1
	l-2.7-1.5l-0.5-0.3c0.3-0.8,0.5-1.7,0.8-2.5l0.7-1.9c0.2-0.5,0.4-1,0.5-1.5c1.5-4,3.2-7.8,4.9-11.4c2.6-5.3,5.4-10,8.4-14.2
	c0.8-1.1,1.6-2.2,2.4-3.3c0.7-0.9,1.4-1.7,2.1-2.5l4.4,2.4l2.7,1.5l8.8,4.9c5.1,2.8,8.6,8.7,9.8,15.4v0c0.1,0.6,0.2,1.3,0.3,1.9
	c0.1,0.5,0.1,1,0.1,1.5C195.8,122.4,195.8,124.1,195.6,125.9"/>
<path class="st2" d="M226.5,82.3c0,2.3-0.5,4.6-1.3,6.6c-1.2,3.1-3.4,5.8-6.1,7.8v0c-1.6,1.1-3.4,2-5.3,2.6c-1.6,0.5-3.3,0.8-5,0.8
	h-26.9c-1.7,0-3.5-0.3-5.1-0.8c-1.9-0.6-3.7-1.4-5.3-2.6c0,0,0,0,0,0c-2.7-1.9-4.8-4.6-6.1-7.8c-0.8-2.1-1.3-4.3-1.3-6.6
	c0-9,6.7-16.4,15.4-17.5c0.8-0.1,1.5-0.2,2.3-0.2h26.9c0.8,0,1.5,0.1,2.3,0.2C219.7,65.9,226.5,73.3,226.5,82.3"/>
<path class="st2" d="M206.9,61.2c0,1.2-0.2,2.3-0.5,3.4c-0.1,0.3-0.2,0.6-0.4,1c-0.6,1.3-1.4,2.5-2.4,3.5c-2,2-4.9,3.3-8,3.3H195
	c-4.7,0-8.6-2.8-10.4-6.8c-0.1-0.3-0.3-0.6-0.4-1c-0.3-1.1-0.5-2.2-0.5-3.4c0-1.6,0.3-3.1,1-4.6c0.3-0.7,0.7-1.4,1.2-2.1
	c1-1.4,2.4-2.6,4-3.4c0.4-0.2,0.9-0.4,1.3-0.6c1.2-0.4,2.5-0.7,3.8-0.7h0.6c1.3,0,2.6,0.2,3.8,0.7c0.4,0.2,0.9,0.3,1.3,0.6
	c1.6,0.8,2.9,2,4,3.4c0.5,0.6,0.9,1.3,1.2,2.1C206.5,58,206.9,59.6,206.9,61.2"/>
<path class="st2" d="M200.3,48.3c0,0.9-0.3,1.7-0.8,2.3c-0.7,0.8-1.7,1.3-2.9,1.3h-2.5c-1.2,0-2.2-0.5-2.9-1.4
	c-0.5-0.6-0.8-1.4-0.8-2.3c0-2.1,1.7-3.7,3.7-3.7h2.5C198.6,44.5,200.3,46.2,200.3,48.3"/>
<path class="st2" d="M195,123.4c0.2,1.6,0.5,3.1,1,4.6c3.5,10.5,13.2,15.6,21.6,11.3l23.3-11.9c-0.5-1.4-1-2.7-1.6-4.1
	c-0.2-0.5-0.4-0.9-0.6-1.4c-4.4-10.7-9.7-19.7-15.7-26.6c-0.7-0.8-1.4-1.6-2.1-2.3l-15.9,8.1c-5.6,2.8-9.3,9-10.1,16
	C194.8,119.1,194.8,121.3,195,123.4"/>
<path class="st3" d="M195.3,187.3L195.3,187.3L195.3,187.3c-15.5,15-25.3,28.5-31.1,40.8c11.5,6.2,21,12,28.7,17.7
	c7.7-5.7,17.2-11.5,28.7-17.7c1.3-0.7,2.5-1.4,3.8-2.1C219.4,214.3,209.9,201.5,195.3,187.3"/>
<path class="st4" d="M195.3,187.3c20-19.4,29.8-40.3,34.6-57.2c-14.3-24.2-28.7-42.9-34.3-42.9c-5.7,0-20.2,19-34.6,43.4
	C165.7,147.5,175.5,168.1,195.3,187.3"/>
<path class="st5" d="M164.3,228.1c5.8-12.2,15.6-25.8,31.1-40.8l0,0c-19.8-19.2-29.6-39.9-34.4-56.7c-11.8,20.1-23.6,43.9-30.2,63.9
	C136.6,205.9,146.8,218.7,164.3,228.1"/>
<path class="st5" d="M195.3,187.3L195.3,187.3c14.6,14.2,24.1,27,30,38.6c18.4-11.1,27.9-25.9,32.8-37.9
	c-6.9-18.8-17.6-39.9-28.2-58C225.1,147,215.3,168,195.3,187.3"/>
<path class="st6" d="M192.9,245.8c-18.3,13.5-26.2,26-25.8,40.4c8.7,3.8,18.3,6,28.4,6c8.1,0,15.8-1.4,23-3.9
	C219.9,273.1,212.1,260,192.9,245.8"/>
<path class="st7" d="M192.9,245.8c-18.3,13.5-26.2,26-25.8,40.4c8.7,3.8,18.3,6,28.4,6c8.1,0,15.8-1.4,23-3.9
	C219.9,273.1,212.1,260,192.9,245.8"/>
<g>
	<g>
		<defs>
			<rect id="SVGID_1_" x="167.1" y="245.8" width="51.6" height="46.3"/>
		</defs>
		<clipPath id="SVGID_2_">
			<use xlink:href="#SVGID_1_"  style="overflow:visible;"/>
		</clipPath>
		<path class="st8" d="M192.9,245.8c-18.3,13.5-26.2,26-25.8,40.4c8.7,3.8,18.3,6,28.4,6c8.1,0,15.8-1.4,23-3.9
			C219.9,273.1,212.1,260,192.9,245.8"/>
	</g>
</g>
<path class="st9" d="M164.3,228.1c-17.5-9.4-27.6-22.2-33.6-33.6c-3.5,10.4-5.5,19.9-5.5,27.3c0,26.2,14.3,49,35.4,61.1
	C156.1,268,153.8,250.1,164.3,228.1"/>
<path class="st7" d="M225.3,226c-1.2,0.7-2.5,1.4-3.8,2.1c-11.5,6.2-21,12-28.7,17.7c19.2,14.2,27,27.3,25.7,42.5
	c4-1.4,7.8-3.1,11.4-5.1C234.7,267.7,237,249.1,225.3,226"/>
<path class="st9" d="M265.9,221.8c0-8.9-3-20.7-7.8-33.7c-4.9,12-14.4,26.8-32.8,37.9c11.7,23.1,9.4,41.8,4.6,57.2
	C251.4,271.1,265.9,248.2,265.9,221.8"/>
<path class="st7" d="M192.9,245.8c-7.7-5.7-17.2-11.5-28.7-17.7c-10.4,22-8.2,39.8-3.6,54.8c2.1,1.2,4.3,2.3,6.5,3.3
	C166.7,271.9,174.6,259.3,192.9,245.8"/>
<g>
	<g>
		<defs>
			<rect id="SVGID_3_" x="192.9" y="226" width="40.9" height="62.3"/>
		</defs>
		<clipPath id="SVGID_4_">
			<use xlink:href="#SVGID_3_"  style="overflow:visible;"/>
		</clipPath>
		<path class="st10" d="M225.3,226c-1.2,0.7-2.5,1.4-3.8,2.1c-11.5,6.2-21,12-28.7,17.7c19.2,14.2,27,27.3,25.7,42.5
			c4-1.4,7.8-3.1,11.4-5.1C234.7,267.7,237,249.1,225.3,226"/>
	</g>
</g>
<g>
	<g>
		<defs>
			<rect id="SVGID_5_" x="156.8" y="228.1" width="36.1" height="58.1"/>
		</defs>
		<clipPath id="SVGID_6_">
			<use xlink:href="#SVGID_5_"  style="overflow:visible;"/>
		</clipPath>
		<path class="st11" d="M192.9,245.8c-7.7-5.7-17.2-11.5-28.7-17.7c-10.4,22-8.2,39.8-3.6,54.8c2.1,1.2,4.3,2.3,6.5,3.3
			C166.7,271.9,174.6,259.3,192.9,245.8"/>
	</g>
</g>
<path class="st9" d="M285.1,244.5c-0.4-0.2-0.9-0.5-1.3-0.8c0.1,1.6,0.4,3,0.7,4.5c2,8.5,7.3,15.4,14.1,19.8
	c0.4-4.2,1.9-8.3,4.4-12.9C298.3,251.9,292.4,248.5,285.1,244.5"/>
<path class="st3" d="M363.2,173.4c0,1.3,1.1,2.4,2.4,2.4c1.3,0,2.4-1.1,2.4-2.4v0c0-1.3-1.1-2.4-2.4-2.4
	C364.3,171,363.2,172.1,363.2,173.4L363.2,173.4z"/>
<path class="st2" d="M366.1,169.3c0-0.4-0.1-0.8-0.1-1.2l0,0c-0.2-1.9-0.8-3.7-1.7-5c-0.1-0.1-0.2-0.2-0.3-0.3
	c0.8-1.2,1.8-3.7,2.1-9.4l0,0c0-0.6,0.1-1.2,0.1-1.8l0-0.1c0-0.4,0-0.8,0-1.2c0-0.3,0-0.6,0-1v0c0-0.5,0-0.9,0-1.4l0-0.1
	c0-0.5,0-1.1,0.1-1.6l0,0c0-0.6,0.1-1.1,0.1-1.7l0-0.1c0.3-2.4,0.7-4.7,1.3-6.8l0-0.1c0.3-1,0.6-2,0.9-3l0,0c0.9-2.6,2-4.9,3.1-7
	c0.1-0.3,0.3-0.5,0.4-0.8c0,0,0.2-0.3,0-0.5c-0.2-0.1-0.3,0.1-0.3,0.1c-0.2,0.2-0.3,0.4-0.5,0.6c-1,1.4-1.9,3.1-2.7,4.9l0,0
	c-0.5,1.1-0.9,2.3-1.3,3.5l0,0.1c-0.4,1.4-0.8,2.9-1.2,4.3l0,0.1c-0.2,1.1-0.4,2.1-0.6,3.2l0,0c-0.1,1-0.3,1.9-0.4,2.9l0,0.1
	c-0.1,0.5-0.1,1.1-0.1,1.6l0,0.1c0,0.2,0,0.5,0,0.7l0,0.1c0,0.5,0,1-0.1,1.4l0,0.1c0,0.4,0,0.9,0,1.3c0,0.2,0,0.5,0,0.7v0.1
	c0,0.8,0,1.5-0.1,2.2l0,0c0,0.6-0.1,1.2-0.1,1.7l0,0.1c-0.1,0.6-0.1,1.1-0.2,1.5l0,0.1c-0.4,2.4-0.9,3.4-1.3,3.9
	c-0.1,0.1-0.1,0.1-0.2,0.2c0,0,0,0,0,0c0,0,0,0-0.1,0.1c-0.9-0.7-1.9-0.9-2.9-0.9c0,0,0.1,0,0.1,0c-0.4,0-0.9,0.1-1.3,0.2
	c-0.1,0-0.1,0-0.2,0c-0.1,0-0.2,0.1-0.3,0.1c-0.7,0.2-1.3,0.5-1.6,0.7c-0.2-0.1-0.3-0.3-0.5-0.4c-0.3-0.2-0.6-0.3-0.9-0.4
	c-1.7-0.5-3.5,0-5.3,0.4c0.1,0,0.1,0,0.2,0c-0.6,0.1-1.1,0.3-1.7,0.4c-2.9,0.6-9.1,1.4-13.3,3.7c0.1-0.1,0.1-0.1,0.2-0.2
	c-1.9,1-3.3,2.3-3.9,3.9c0,0,0,0,0,0c-0.1,0.2-0.1,0.4-0.2,0.6c0,0,0,0,0,0.1c0,0,0,0,0,0c-0.1,0-0.2,0.1-0.3,0.1c0,0-0.1,0-0.1,0
	c-0.1,0-0.1,0.1-0.2,0.1v0c-1.5,0.7-4,1.9-7.3,4c-0.2,0.1-0.4,0.2-0.5,0.3v0c0,0,0,0,0,0c-0.1,0.1-0.2,0.2-0.4,0.3
	c-0.1,0.1-0.1,0.1-0.2,0.2c-0.1,0.1-0.2,0.2-0.3,0.3c-0.1,0.1-0.1,0.1-0.2,0.2c-0.1,0.1-0.2,0.2-0.2,0.3c0,0.1-0.1,0.1-0.1,0.2
	c-0.1,0.1-0.1,0.2-0.2,0.3c0,0.1-0.1,0.1-0.1,0.2c-0.1,0.1-0.1,0.2-0.1,0.3c0,0.1-0.1,0.1-0.1,0.2c0,0.1-0.1,0.2-0.1,0.3
	c0,0.1,0,0.1-0.1,0.2c0,0.1,0,0.2-0.1,0.3c0,0,0,0.1,0,0.1c-1.5,1.1-3.9,2.9-5.8,4.5v0c-0.1,0.1-0.2,0.2-0.3,0.3
	c-0.1,0.1-0.1,0.1-0.2,0.2c-0.2,0.2-0.4,0.3-0.5,0.5c-0.1,0.1-0.2,0.2-0.3,0.4c0,0,0,0,0,0c0,0,0,0,0,0c-0.1,0.1-0.1,0.2-0.2,0.3
	c0,0.1-0.1,0.1-0.1,0.2c0,0.1-0.1,0.2-0.1,0.3c0,0.1,0,0.1-0.1,0.2c-0.3,0.3-0.7,0.6-1,1v0c0,0,0,0,0,0c-0.1,0.1-0.2,0.2-0.3,0.3
	c0,0-0.1,0.1-0.1,0.1c-0.1,0.1-0.2,0.2-0.2,0.3c0,0-0.1,0.1-0.1,0.1c-0.1,0.1-0.1,0.2-0.2,0.3c0,0-0.1,0.1-0.1,0.1
	c-0.1,0.1-0.1,0.2-0.2,0.3c0,0.1-0.1,0.1-0.1,0.2c-0.1,0.1-0.1,0.2-0.1,0.3c0,0.1-0.1,0.1-0.1,0.2c0,0,0,0,0,0v0
	c-0.1,0.1-0.1,0.3-0.1,0.4c0,0,0,0,0,0c0,0,0,0.1,0,0.1c0,0.1,0,0.2-0.1,0.3c0,0,0,0.1,0,0.1c0,0,0,0,0,0c-0.1,0.1-0.1,0.1-0.2,0.2
	c0,0-0.1,0-0.1,0.1c-0.2,0.1-0.3,0.3-0.5,0.4c0,0-0.1,0.1-0.1,0.1c-0.2,0.1-0.3,0.3-0.5,0.5c0,0-0.1,0.1-0.1,0.1
	c-0.2,0.2-0.3,0.4-0.5,0.5c0,0,0,0.1-0.1,0.1c-0.2,0.2-0.3,0.4-0.5,0.6c-0.2,0.3-0.4,0.6-0.5,1c-0.5,0.5-1.4,1.4-2.3,2.4
	c0,0,0,0,0,0c0,0-0.1,0.1-0.1,0.1c-0.1,0.1-0.2,0.2-0.3,0.4c-0.1,0.1-0.2,0.2-0.2,0.3c-0.1,0.1-0.2,0.3-0.3,0.4
	c-0.1,0.1-0.2,0.2-0.2,0.3c-0.1,0.1-0.2,0.3-0.3,0.4c-0.1,0.1-0.1,0.2-0.2,0.3c-0.1,0.1-0.2,0.3-0.2,0.4c-0.1,0.1-0.1,0.2-0.2,0.3
	c-0.1,0.1-0.1,0.3-0.2,0.4c0,0.1-0.1,0.2-0.1,0.3c-0.1,0.2-0.1,0.3-0.1,0.4c0,0.1-0.1,0.2-0.1,0.3c0,0.1,0,0.2,0,0.3c0,0,0,0,0,0
	c0,0.1,0,0.2,0,0.3c0,0.1,0,0.1,0,0.2c0,0,0,0,0,0.1c0,0.2,0,0.4,0.1,0.6c0,0.1,0,0.1,0.1,0.2c-0.8,0.9-1.9,2.3-2.9,3.9v0
	c0,0,0,0,0,0c-0.2,0.3-0.4,0.6-0.5,0.9c0,0.1-0.1,0.1-0.1,0.2c-0.2,0.3-0.3,0.6-0.5,0.9c-0.1,0.2-0.1,0.4-0.2,0.6c0,0,0,0,0,0
	c0,0,0,0,0,0c0,0,0,0.1,0,0.1c0,0.1,0,0.1,0,0.2c0,0.1,0,0.1,0,0.2c0,0.1,0,0.1,0,0.2c0,0.1,0,0.1,0,0.2c0,0.1,0,0.2,0,0.2
	c0,0.1,0,0.1,0,0.2c0,0.1,0.1,0.2,0.1,0.3v0c-0.6,0.6-1.6,1.6-2.5,2.9c0,0,0,0,0,0c-0.1,0.1-0.1,0.2-0.2,0.3c0,0,0,0,0,0.1
	c-0.1,0.1-0.1,0.2-0.2,0.3c0,0,0,0.1,0,0.1c-0.1,0.1-0.1,0.2-0.2,0.3c0,0,0,0.1-0.1,0.1c0,0.1-0.1,0.2-0.1,0.3c0,0,0,0.1-0.1,0.1
	c0,0.1-0.1,0.2-0.1,0.3c0,0,0,0.1-0.1,0.1c0,0.1-0.1,0.2-0.1,0.3c0,0,0,0.1,0,0.1c0,0.1,0,0.2-0.1,0.3c0,0.1,0,0.1,0,0.2
	c0,0.1,0,0.2,0,0.2c0,0.1,0,0.1,0,0.2c0,0.1,0,0.1,0,0.2c0,0,0,0,0,0c0,0,0,0,0,0c0,0,0,0,0,0c0,0,0,0.1,0,0.1
	c-0.8,1.2-2.1,3.3-2.6,5.7c0,0,0,0,0,0c0,0,0,0,0,0c0,0.1,0,0.1,0,0.2c0,0.1-0.1,0.3-0.1,0.4c0,0.1,0,0.1,0,0.2c0,0.1,0,0.2,0,0.4
	c0,0.1,0,0.1,0,0.2c0,0.1,0,0.3,0,0.4c0,0.1,0,0.1,0,0.2c0,0.2,0,0.4,0,0.6c0,0,0,0,0,0.1c0,0.2,0,0.4,0,0.5c0,0.1,0,0.1,0,0.2
	c0,0.1,0,0.3,0.1,0.4c0,0,0,0.1,0,0.1c0,0.1-0.1,0.1-0.1,0.2c0,0,0,0,0,0c-0.4,0.8-0.8,1.7-1.2,2.8v0c0,0,0,0,0,0.1
	c-0.2,0.5-0.3,0.9-0.5,1.4c0,0,0,0.1,0,0.1c-0.2,0.5-0.3,1-0.4,1.5c0,0.1,0,0.1,0,0.2c0,0,0,0,0,0c0,0,0,0.1,0,0.1
	c0,0.1,0,0.2,0,0.3c0,0.1,0,0.1,0,0.2c0,0.1,0,0.2,0,0.3c0,0.1,0,0.1,0,0.2c0,0,0,0.1,0,0.1c-0.3,1-0.7,2.3-0.9,3.7c0,0,0,0,0,0
	c0,0,0,0.1,0,0.1c0,0.3-0.1,0.6-0.1,0.9c0,0,0,0.1,0,0.1c0,0.3,0,0.7,0,1v0c-0.2,0.9-0.5,3.3,1,3.9c0,0,0,0,0,0c0,0,0,0,0,0
	c0.1,0.1,0.1,0.3,0.3,0.4c0,0,0,0,0,0c0.1,0.1,0.1,0.1,0.2,0.2c0,0,0,0,0,0c0.1,0.1,0.1,0.1,0.2,0.2c0,0,0,0,0,0
	c0.5,0.4,1.2,0.7,2.2,0.6l0,0c0,0,0,0,0,0c0.1,0,0.3,0,0.4-0.1c0,0,0,0,0,0c0.1,0,0.2,0,0.3-0.1c0.1,0,0.1,0.1,0.2,0.1
	c0,0,0.1,0,0.1,0c0.1,0,0.2,0.1,0.2,0.1c0,0,0,0,0.1,0c0,0,0,0,0,0c0.7,0.2,1.7,0.3,2.9-0.3c0.3-0.2,0.6-0.3,0.9-0.5c0,0,0,0,0,0
	c0,0,0,0,0,0c0.1,0,0.1-0.1,0.2-0.1c0.1,0,0.1-0.1,0.2-0.1c0,0,0.1-0.1,0.1-0.1c0.8,0.4,1.9,0.2,3.2-0.9c0.1,0,0.2,0,0.3,0
	c0.1,0,0.1,0,0.2,0c0.1,0,0.3,0,0.4,0c0.1,0,0.1,0,0.2,0c0.1,0,0.3,0,0.4,0c0.1,0,0.1,0,0.2,0c0.2,0,0.4-0.1,0.6-0.1
	c0.1,0,0.1,0,0.2,0c0.2,0,0.3-0.1,0.5-0.1c0.1,0,0.2,0,0.3-0.1c0.1,0,0.1,0,0.2-0.1c0,0,0,0,0,0c1.7-0.5,3.4-1.4,4.4-2.5
	c0,0,0,0,0,0c0,0,0,0,0-0.1c0.1-0.1,0.2-0.2,0.3-0.4c0,0,0.1-0.1,0.1-0.1c0.1-0.2,0.2-0.3,0.3-0.5c0,0,0,0,0,0l0,0c0,0,0,0,0.1,0
	c0.1,0,0.2,0,0.3-0.1c0,0,0,0,0.1,0c0,0,0.1,0,0.1,0c0.1,0,0.1-0.1,0.2-0.1c0,0,0.1,0,0.1-0.1c0,0,0.1,0,0.1-0.1c0,0,0,0,0,0
	c0,0,0.1,0,0.1-0.1c0,0,0.1,0,0.2-0.1c0.1,0,0.2-0.1,0.3-0.1c0,0,0.1,0,0.1-0.1c0,0,0,0,0,0c0,0,0,0,0,0c0,0,0,0,0,0
	c0.2-0.1,0.4-0.2,0.6-0.3c0,0,0,0,0,0c1.3-0.8,2.6-1.9,3.3-2.9c0,0,0,0,0,0c0,0,0,0,0,0c0.1-0.1,0.1-0.2,0.2-0.3c0,0,0-0.1,0-0.1
	c0.1-0.1,0.1-0.3,0.1-0.4c0.1,0,0.3-0.1,0.4-0.1c0,0,0,0,0,0c0.2-0.1,0.3-0.1,0.5-0.2c0,0,0,0,0,0c0,0,0.1,0,0.2-0.1
	c0,0,0.1,0,0.1-0.1c0.2-0.1,0.5-0.2,0.7-0.4c0,0,0,0,0,0c0,0,0,0,0,0c0,0,0,0,0,0c0.2-0.1,0.5-0.3,0.7-0.4c0,0,0.1,0,0.1-0.1
	c0.1,0,0.1-0.1,0.2-0.1c0,0,0,0,0,0c0.2-0.1,0.3-0.2,0.5-0.4c0,0,0,0,0,0l0,0c0.2-0.1,0.3-0.3,0.5-0.4c0,0,0,0,0,0c0,0,0,0,0,0
	c0.9-0.8,1.6-1.7,2.1-2.8c0,0,0,0,0,0c0,0,0,0,0,0c0.1-0.2,0.1-0.4,0.2-0.5c0,0,0-0.1,0-0.1c0.1-0.2,0.1-0.5,0.1-0.7
	c0.1-0.1,0.2-0.1,0.3-0.2c0,0,0,0,0,0c0.1,0,0.1-0.1,0.2-0.1c0.1-0.1,0.2-0.1,0.2-0.2c0,0,0.1,0,0.1-0.1c0.1-0.1,0.2-0.2,0.3-0.3
	c0.1-0.1,0.2-0.1,0.2-0.2c0,0,0.1-0.1,0.1-0.1c0,0,0.1-0.1,0.1-0.1c0.1-0.1,0.1-0.1,0.2-0.2c0.1-0.1,0.1-0.1,0.2-0.2
	c0-0.1,0.1-0.1,0.1-0.2c0.1-0.1,0.1-0.2,0.2-0.2c0.1-0.1,0.1-0.1,0.2-0.2l0.3-0.5c0.3-0.6,0.6-1.2,0.8-1.9c0,0.1,0,0.2,0,0.2
	c0,0,0,0,0,0c0,0.2,0,0.3,0,0.4c0,0,0,0,0,0c0,0,0,0,0,0c0,0,0,0.1,0,0.1c0,0,0,0,0,0c0,0,0,0.1,0,0.1l3.7-4.1l2.7-1.1
	c0.1-0.2,0.1-0.4,0.2-0.6l0,0l0,0c1.5-4.1,2.7-10,3.2-12.4c0.9-0.9,1.6-1.7,2-2.3c-0.3,1.1-0.5,2.4,0.2,2.3c0.1,1.4,0.8,3.6,4.1,3.6
	l0,0c1.1,0,2.4-0.2,4-0.7c0.1,0,0.1-0.1,0.2-0.1l0,0c1.1-0.5,2.1-0.9,3-1.3l0,0c1.4-0.6,2.5-1.1,3.5-1.6l0,0c1-0.5,1.8-1,2.4-1.4
	c0.1,0.5,0.2,1.1,0.3,1.8l0,0.1c0.1,0.4,0.2,0.8,0.3,1.2l0,0c0.1,0.5,0.2,1,0.4,1.6l0,0.1c0.1,0.6,0.3,1.3,0.4,1.9
	c0.1,0.4,0.2,0.9,0.3,1.3l0,0.1c0.2,0.8,0.3,1.6,0.5,2.4l0,0c0.2,1.2,0.5,2.4,0.7,3.5l0,0.2c0.6,3,1.1,5.2,1.8,5.6
	c0.5,1.2,1.3,2.3,2.2,3.2l0,0.1l0-0.1c0.4,0.4,0.8,0.7,1.2,1.1l0.1,0.1c0.7,0.6,1.4,1,2.1,1.4l0.1,0.1c1.9,1,3.7,1.5,4.6,1.2
	c0.2-0.1,0.4-0.1,0.6-0.1c0.1,0,0.1,0,0.2,0c0.1,0,0.3,0,0.3,0c0,0,0.3-0.1,0.3-0.2c0-0.1,0-0.3-0.2-0.3l-0.2,0
	c-0.4-0.1-0.9-0.2-1.5-0.2c-0.7,0-1.4-0.2-2-0.4l0,0l0,0c-1.1-0.4-2.1-1.1-2.9-1.8l0,0c-0.6-0.5-1.2-1.1-1.6-1.6l0,0
	c-0.4-0.4-0.7-0.8-1-1.2c-0.1-0.1-0.1-0.2-0.2-0.2c-0.1-0.1-0.2-0.2-0.2-0.3c0-0.1-0.1-0.1-0.1-0.2c-0.1-0.1-0.1-0.2-0.2-0.2
	c0,0,0-0.1-0.1-0.1c0,0,0,0,0-0.1c0,0,0-0.1,0.1-0.1c0,0,0-0.1,0-0.1c0,0,0-0.1,0-0.1c0,0,0,0,0,0c0,0,0-0.1,0-0.1
	c0-0.1,0-0.1,0-0.2c0,0,0-0.1,0-0.1c0,0,0,0,0,0c0,0,0,0,0,0c0,0,0,0,0,0c0-0.1,0-0.1,0-0.2c0-0.1,0-0.1,0-0.2c0,0,0-0.1,0-0.1v0
	c0-0.1,0-0.2,0-0.2c0-0.1,0-0.2,0-0.3c0-0.1,0-0.2,0-0.3c0-0.1,0-0.2,0-0.3c0,0,0,0,0,0c-0.1-0.5-0.2-1.1-0.4-1.8
	c-0.4-1.4-0.7-2.7-1-4l0.1,0l-0.1-0.1c-0.2-1-0.4-2-0.6-3l0.1,0l-0.1,0c-0.1-0.6-0.2-1.3-0.3-1.9l0,0c-0.1-0.5-0.2-0.9-0.2-1.4l0,0
	c-0.2-1-0.4-2-0.5-3.1l0-0.1c0-0.2-0.1-0.3-0.1-0.5c-0.1-0.4-0.1-0.7-0.2-1l0-0.1c0,0,0,0,0-0.1l0,0c0-0.1,0-0.1-0.1-0.2
	c0-0.1-0.1-0.3-0.1-0.4c0-0.1-0.1-0.2-0.1-0.3c0-0.1-0.1-0.2-0.1-0.3c0-0.1-0.1-0.1-0.1-0.2c0,0,0-0.1,0-0.1c0,0,0-0.1,0-0.1
	c0,0,0-0.1-0.1-0.1c0,0,0,0,0-0.1c0,0,0-0.1,0-0.1c0,0,0-0.1,0-0.1c0-0.1-0.1-0.2-0.1-0.2c0,0,0-0.1,0-0.1c0-0.1-0.1-0.1-0.1-0.2
	c0,0,0,0,0,0c0,0,0-0.1-0.1-0.1c0,0,0,0-0.1-0.1c0,0-0.1-0.1-0.1-0.1c0,0,0,0-0.1-0.1c0,0-0.1-0.1-0.1-0.1c0,0,0,0-0.1,0
	c0,0-0.1,0-0.1-0.1c0,0,0,0,0,0c0,0,0,0,0,0c0-0.1,0-0.2,0-0.2c0-0.1,0-0.2-0.1-0.3c0,0,0-0.1,0-0.1v0c-0.4-1-1.1-1.4-1.8-1.3l0,0
	c-0.5,0.1-1.1,0.4-1.5,0.8c-0.2,0.2-0.7,0.5-1.2,0.8l-0.1,0c-0.7,0.4-1.5,0.8-2.5,1.3l-0.1,0c-0.6,0.3-1.2,0.5-1.8,0.7l-0.1,0
	c-0.3,0.1-0.6,0.2-0.9,0.3l-0.1,0c-0.4,0.1-0.8,0.3-1.1,0.4l-0.1,0c-0.3,0.1-0.6,0.2-0.8,0.2l0,0c-0.2,0.1-0.4,0.1-0.6,0.2
	c-0.2,0.1-0.5,0.1-0.7,0.1l-0.1,0c-0.2,0-0.4,0.1-0.6,0.1c-0.2,0-0.3,0-0.5,0c0.4-0.9,0.7-1.8,0.9-2.6l0,0c0.1-0.4,0.2-0.7,0.2-1
	c1-1,2.1-2.1,3.2-3.3c0.2-0.3,0.5-0.6,0.7-0.8c1,1.3,4.1,2.4,7.5,2.1c3.5-0.3,6.9,0.9,9.4,2.5c0,0,0.1,0,0.1,0.1l0,0
	c1.3,0.8,2.3,1,3,0.7c0.8,0.8,2,2,3.1,3.2l0,0c1,1,2,2.1,2.5,3.1c0.9,1.5,2.4,2.8,3.3,3.2c1.2,1.1,3,1.5,4.9,1.5l0.1,0
	c1.1,0,1.8-0.1,2.8-0.3c0,0,0.2-0.4-0.4-0.5c0,0-3.3-0.1-3.9-0.2c-0.3-0.1-1-0.3-1.3-0.4c0,0-0.1,0-0.1,0c-0.3-0.1-0.6-0.2-0.8-0.3
	c-0.1,0-0.1-0.1-0.2-0.1c-0.2-0.1-0.3-0.1-0.5-0.2c0,0,0,0,0,0c-0.4-1-1.2-2.2-2.3-3.9l0,0c-0.6-1-1.4-2.1-2.2-3.5l0-0.1
	c0,0,0,0,0-0.1c-0.3-0.5-0.6-1-0.8-1.3l0,0c-0.3-0.4-0.5-0.7-0.8-1l0,0c-0.2-0.2-0.4-0.4-0.5-0.6c0,0,0,0,0,0c0,0,0,0,0,0
	c-0.3-0.3-0.5-0.5-0.8-0.6c0,0,0,0-0.1,0c-0.1-0.1-0.2-0.1-0.3-0.2c0,0,0,0-0.1,0c-0.1,0-0.1-0.1-0.2-0.1c0-0.3-0.1-0.5-0.3-0.7
	l0-0.1c-0.3-0.4-0.8-0.7-1.4-1l-0.1,0c-0.6-0.2-1.2-0.4-2-0.6l-0.1,0c-0.3-0.1-0.6-0.1-0.9-0.2c-2.6-0.4-5.2-0.4-7.7-0.8l-0.1,0
	c-0.5-0.1-1-0.2-1.5-0.4l-0.1,0c-0.2-0.1-0.5-0.2-0.7-0.3l0,0c-0.2-0.1-0.3-0.1-0.5-0.2c-0.2-0.1-0.3-0.1-0.5-0.2l-0.1,0
	c-0.6-0.2-1.2-0.4-1.7-0.6l0,0c-0.6-0.2-1.2-0.2-1.6-0.3c0.4-0.6,0.7-1.1,0.9-1.7c0,0,0.1,0,0.1,0c0.2-0.1,0.4-0.2,0.6-0.3
	c0.6,0,1.3-0.1,2.3-0.5c2.8-1.4,4.4-2.1,5-2.9c0.8,0.4,1.8,0.9,3,1.6c2.8,1.5,5.7,3.3,6.4,3.1c0.1,0,0.2-0.1,0.3-0.2
	c2.3-0.3,4.2-2.2,4.8-3.4l0,0c0.1-0.2,0-0.3-0.1-0.4c-0.1-0.1-0.3,0-0.4,0.2c0,0,0,0,0,0c-0.9,1.8-3.3,2.6-4.2,2.9
	c-0.2-0.3-0.7-0.7-1.7-1.1c-2.4-1.1-4.3-2.3-6.6-3.6c-0.4-0.3-0.8-0.4-1.1-0.5c-0.4-1-1.2-0.9-1.8-0.3c-0.1,0.1-0.2,0.2-0.4,0.3
	c0.9-1.3,1.7-2.8,2.3-4.6c0,0,0,0,0,0c0.1,0,0.2,0,0.3,0c0.1,0,0.2,0,0.3,0c0,0,0.1,0,0.1,0c0.1,0,0.1,0,0.2,0
	c1,2.9,4.4,2.7,3.9,2.4c-1.2-0.5-2-2-2.4-2.7c0.1,0,0.2-0.1,0.3-0.1c0.1,0,0.1-0.1,0.2-0.1c0.1-0.1,0.2-0.1,0.4-0.2
	c0.1,0,0.1-0.1,0.2-0.1c0.1-0.1,0.2-0.1,0.3-0.2c0.1,0,0.1-0.1,0.2-0.1c0,0,0,0,0,0c0.6,0.5,1.9,1.5,2.5,2.8
	c0.8,1.7,0.5-2.1-1.5-3.5c0,0-0.1,0-0.1-0.1c0.1-0.1,0.2-0.3,0.3-0.4c0,0,0-0.1,0.1-0.1c0.1-0.1,0.2-0.2,0.2-0.3c0,0,0,0,0,0
	c0.5-0.6,0.9-1.4,1.2-2.4c0.6-1.5,0.9-3.3,0.9-5L366.1,169.3z"/>
<path class="st5" d="M319.7,232.5c-3.1,3.8-5.9,7.2-8.3,10.3c3.8,4.7,6.8,8.7,9,12.4c4.5-3.9,10.1-8.1,17.3-13.3
	c4.3-3.2,7.5-7,9.7-11.1c-2.4-7.6-7.3-13.8-13.7-17.8l0,0c0,0-3-2.1-6.4-5C327.7,216.2,325.9,224.9,319.7,232.5"/>
<path class="st4" d="M302.9,232.8c3.2,3.7,6.1,7,8.6,10.1c2.4-3.1,5.2-6.5,8.3-10.3c6.2-7.6,8-16.3,7.6-24.5
	c-3.4-2.9-7.1-6.7-8.6-10c-1.5-3.3-2.2-6.8-2.6-9.6c-0.3-2.6-3.5-3.7-5.4-2c-4.2,3.8-10.5,10.2-15.9,18.5
	C293.9,214.2,295.5,224.3,302.9,232.8"/>
<path class="st5" d="M285.1,244.5c7.3,4,13.2,7.4,17.9,10.6c2.1-3.6,4.8-7.6,8.4-12.2c-2.5-3-5.3-6.4-8.6-10.1
	c-7.4-8.5-9-18.6-8.1-27.9c-0.8,1.2-1.6,2.5-2.3,3.8c-5.6,9.8-9.6,23.9-8.5,35C284.3,244,284.7,244.2,285.1,244.5"/>
<path class="st3" d="M303.1,255.1c4.1,2.7,7.3,5.2,9.8,7.9c2-2.5,4.5-5,7.5-7.7c-2.2-3.7-5.2-7.7-9-12.4
	C307.9,247.5,305.1,251.4,303.1,255.1"/>
<path class="st7" d="M307.9,272.1c3.6,1,7.4,1.3,11.3,0.9c-1.3-3.8-3.4-7-6.3-10.1C310.6,265.9,309,268.8,307.9,272.1"/>
<g>
	<g>
		<defs>
			<rect id="SVGID_7_" x="307.9" y="262.9" width="11.3" height="10.2"/>
		</defs>
		<clipPath id="SVGID_8_">
			<use xlink:href="#SVGID_7_"  style="overflow:visible;"/>
		</clipPath>
		<path class="st12" d="M307.9,272.1c3.6,1,7.4,1.3,11.3,0.9c-1.3-3.8-3.4-7-6.3-10.1C310.6,265.9,309,268.8,307.9,272.1"/>
	</g>
</g>
<path class="st9" d="M337.7,241.9c-7.1,5.2-12.8,9.5-17.3,13.3c3.4,5.8,5,10.9,4.8,16.7c16.8-4.8,26.9-21.9,22.8-39
	c-0.2-0.7-0.4-1.4-0.6-2.1C345.2,234.9,342,238.7,337.7,241.9"/>
<path class="st7" d="M320.4,255.2c-3.1,2.7-5.6,5.2-7.5,7.7c3,3.1,5,6.3,6.3,10.1c1.6-0.1,3.1-0.4,4.7-0.8c0.4-0.1,0.9-0.2,1.3-0.3
	C325.4,266.2,323.9,261.1,320.4,255.2"/>
<path class="st7" d="M312.9,262.9c-2.5-2.6-5.8-5.2-9.8-7.8c-2.6,4.6-4,8.7-4.4,12.9c2.9,1.8,6,3.2,9.3,4.1
	C309,268.8,310.6,265.9,312.9,262.9"/>
<g>
	<g>
		<defs>
			<rect id="SVGID_9_" x="312.9" y="255.2" width="12.3" height="17.8"/>
		</defs>
		<clipPath id="SVGID_10_">
			<use xlink:href="#SVGID_9_"  style="overflow:visible;"/>
		</clipPath>
		<path class="st13" d="M320.4,255.2c-3.1,2.7-5.6,5.2-7.5,7.7c3,3.1,5,6.3,6.3,10.1c1.6-0.1,3.1-0.4,4.7-0.8
			c0.4-0.1,0.9-0.2,1.3-0.3C325.4,266.2,323.9,261.1,320.4,255.2"/>
	</g>
</g>
<g>
	<g>
		<defs>
			<rect id="SVGID_11_" x="298.6" y="255.1" width="14.3" height="17"/>
		</defs>
		<clipPath id="SVGID_12_">
			<use xlink:href="#SVGID_11_"  style="overflow:visible;"/>
		</clipPath>
		<path class="st14" d="M312.9,262.9c-2.5-2.6-5.8-5.2-9.8-7.8c-2.6,4.6-4,8.7-4.4,12.9c2.9,1.8,6,3.2,9.3,4.1
			C309,268.8,310.6,265.9,312.9,262.9"/>
	</g>
</g>
<path class="st2" d="M383.9,141.2c0.2,0.1,0.1,0.3,0.1,0.3c-0.1,0.2-0.1,0.4-0.2,0.6c-0.4,1.5-1.1,3-1.9,4.5l0,0
	c-0.5,0.9-1.1,1.9-1.7,2.8l0,0c-0.7,1.1-1.5,2.1-2.3,3.1l0,0c-0.6,0.7-1.2,1.4-1.9,2.1l0,0c-0.6,0.6-1.2,1.2-1.8,1.8l-0.1,0
	c-0.3,0.3-0.7,0.6-1,1l-0.1,0.1c-0.1,0.1-0.3,0.3-0.5,0.4l0,0c-0.3,0.3-0.6,0.5-1,0.8l0,0c-0.3,0.2-0.6,0.5-0.9,0.7
	c-0.2,0.1-0.3,0.3-0.5,0.4l-0.1,0c-0.5,0.4-1,0.8-1.5,1.2l0,0c-0.4,0.3-0.8,0.7-1.1,1l0,0c-0.4,0.3-0.7,0.7-0.9,0.9l0,0
	c-1.3,1.4-1.8,2.3-1.9,2.8c0,0.1,0,0.1,0,0.2h0c0,0.1,0,0.1,0,0.2c0,0,0,0,0,0c0,0,0,0.1,0,0.1l-1.1-0.2c0.1-0.2,0.1-0.4,0.2-0.6
	c0.6-1.2,1.9-3.1,5.1-5.9l0,0c0.4-0.3,0.8-0.7,1.2-1l0.1-0.1c0.3-0.2,0.5-0.4,0.8-0.6c0.2-0.2,0.4-0.3,0.7-0.5l0,0
	c0.3-0.2,0.6-0.5,0.9-0.7l0.1,0c0.4-0.3,0.7-0.6,1.1-0.9l0,0c0.4-0.3,0.7-0.7,1.1-1l0.1-0.1c1.5-1.5,2.8-3,4-4.5l0.1-0.1
	c0.6-0.7,1.1-1.5,1.6-2.2l0,0c1.3-2,2.3-4,3.1-5.9c0.1-0.2,0.2-0.5,0.3-0.7C383.6,141.5,383.6,141.2,383.9,141.2"/>
<path class="st3" d="M34,159.1c0,1.3,1.1,2.4,2.4,2.4c1.3,0,2.4-1.1,2.4-2.4v0c0-1.3-1.1-2.4-2.4-2.4C35.1,156.7,34,157.7,34,159.1
	L34,159.1z"/>
<path class="st2" d="M89.2,208.3C89.2,208.3,89.3,208.3,89.2,208.3C89.3,208.2,89.3,208.2,89.2,208.3L89.2,208.3
	c0.4-0.4,0.2-0.9,0.1-1.4c-0.2-0.9-0.5-1.8-0.8-2.6c-0.2-0.9-0.7-1.7-1.1-2.5c-0.4-0.8-0.8-1.6-1.2-2.4c-0.1-0.1-0.1-0.2-0.2-0.4
	c0.2-0.2,0.3-0.4,0.4-0.7c0.2-0.9-0.6-2.1-1.1-2.9c-1.2-2.1-2.7-4-4.3-5.8c-0.3-0.4-0.7-0.7-1-1.1v0c0,0-0.1-0.1-0.1-0.1
	c0,0-0.6-0.6-0.7-0.7c0,0,0,0,0,0c-0.1-0.1-0.2-0.2-0.2-0.2c0-0.1,0.1-0.2,0.1-0.3l0-0.1c0-0.1,0.1-0.2,0.1-0.3c0-0.1,0-0.2,0.1-0.3
	l0-0.1c0-0.3,0.1-0.5,0-0.8l0-0.2c0-0.2-0.1-0.7-0.1-0.7c0-0.1,0-0.2-0.1-0.2l0-0.1c-0.3-1.1-4.4-5.7-4.6-5.9
	c-0.5-1.5-1.3-2.8-2.4-3.9c0,0-1.5-1.2-2.1-1.5v0c0,0,0,0-0.1,0c0-0.1,0-0.2,0.1-0.2c0.1-0.3,0-0.5-0.1-0.8
	c-0.1-0.6-0.7-1.2-1.1-1.7c-0.4-0.5-0.8-0.9-1.2-1.3c0.3,0.1,0-0.1-0.4-0.3c-0.5-0.4-0.9-0.7-1.4-1c-0.1-0.1-0.2-0.1-0.3-0.1l0,0
	c0,0,0,0,0,0c0,0,0,0,0,0c0,0,0,0,0,0c0,0,0,0,0-0.1l0,0c-0.1-0.5-0.2-0.9-0.5-1.4c-0.2-0.3-0.4-0.5-0.6-0.7c-0.3-0.3-0.6-0.7-1-1
	c-0.7-0.6-1.4-1.1-2.1-1.5c-0.4-0.2-0.7-0.4-1.1-0.6c0,0,0,0,0,0c0,0,0,0,0,0c-0.1,0-0.1-0.1-0.2-0.1c0,0,0,0,0,0
	c-0.1,0-0.1,0-0.2-0.1c0,0-0.1,0-0.1,0c0-0.1,0-0.1,0-0.2c0,0,0-0.1,0-0.1c0-0.1,0-0.1-0.1-0.2c0,0,0-0.1,0-0.1
	c0-0.1-0.1-0.1-0.1-0.2c0,0,0,0-0.1-0.1c0-0.1-0.1-0.1-0.2-0.2c0,0,0,0,0,0c0,0,0,0,0,0c-0.8-0.7-2.1-1.1-2.8-1.4
	c-0.6-0.2-1.3-0.3-1.9-0.3c0-0.1,0-0.2,0-0.3v0l0,0c-0.1-0.3-0.2-0.7-0.5-1c-0.8-1.1-2.3-1.9-3.4-2.6c-0.6-0.3-1.2-0.5-1.8-0.6
	c-0.2,0-0.3,0-0.5,0c-1.1-0.8-2.3-1.6-3.7-1.8c-1.7-0.3-3.6-0.1-5,0.8c-0.9,0.2-1.8,0.9-2.5,1.5c-0.1,0.1-0.3,0.2-0.4,0.4
	c0,0-0.1-0.1-0.1-0.1l0,0l0,0c0,0,0,0,0,0h0c-0.2-0.1-0.4-0.3-0.7-0.4c-0.4-0.2-0.8-0.4-1.2-0.6v0c0,0,0,0,0,0c0,0,0,0-0.1,0
	c0,0,0,0,0,0v0c-0.4-0.2-0.9-0.3-1.3-0.4c0,0,0,0,0,0c0,0-0.1,0-0.1,0c0,0,0,0,0,0c-0.4-0.1-0.9-0.2-1.3-0.2c0,0,0,0,0,0
	c0,0-0.1,0-0.1,0c0,0,0,0,0,0c-0.3,0-0.7,0-1,0.1c0,0,0,0,0,0c-0.3,0.3,0.1,0.6,0.4,0.7c0.5,0.2,1.1,0.2,1.6,0.4
	c1.1,0.3,2.1,0.8,3.1,1.4h0c-0.3,0.4-0.5,0.8-0.6,1.3c0,0,0.1,0.1,0.1,0c0.1-0.4,0.3-0.8,0.6-1.2c0.1,0.1,0.2,0.1,0.2,0.2
	c-0.2,0.3-0.4,0.7-0.4,1c0,0.1,0.2,0.1,0.2,0c0.1-0.3,0.3-0.6,0.5-0.9c0.1,0,0.1,0.1,0.2,0.1c-0.1,0.2-0.1,0.3-0.1,0.5
	c-0.2,0.4-0.3,0.8-0.5,1.2c-0.4,0-0.8,0.1-1.2,0.2c0,0,0,0,0,0c0,0-0.1,0-0.1,0c0,0,0,0,0,0c-0.4,0.1-0.8,0.2-1.2,0.3c0,0,0,0,0,0v0
	c0,0,0,0,0,0c-0.3,0.1-0.5,0.2-0.7,0.3c-0.4,0.2-0.8,0.4-1.2,0.6l0,0c0,0,0,0,0,0c0,0,0,0,0,0c0,0,0,0,0,0l0,0
	c-0.4,0.2-0.8,0.5-1.1,0.8c0,0,0,0,0,0c0,0,0,0-0.1,0.1c0,0,0,0,0,0c-0.3,0.3-0.7,0.6-0.9,1c0,0,0,0,0,0c0,0,0,0.1-0.1,0.1
	c0,0,0,0,0,0c-0.2,0.3-0.4,0.5-0.6,0.8c0,0,0,0,0,0.1c0.1,0.2,0.2,0.3,0.3,0.3l0,0l0,0c0.1,0,0.1,0,0.2-0.1c0,0,0,0,0,0
	c0.1,0,0.1-0.1,0.2-0.1c0.5-0.3,0.9-0.7,1.3-1.1c0.9-0.6,1.9-1.2,3-1.6c0.8-0.3,1.6-0.5,2.4-0.6c0,0.2-0.1,0.4-0.1,0.6
	c0,0,0.1,0.1,0.1,0c0-0.2,0.1-0.4,0.2-0.6c0.1,0,0.1,0,0.2,0c-0.1,0.4-0.2,0.9-0.1,1.3c0,0,0.1,0.1,0.1,0c0,0,0-0.1,0-0.1
	c0,0,0,0-0.1,0c0.1,0,0.1-0.1,0.1-0.2c0.1-0.2,0.1-0.4,0.2-0.6c0-0.1,0.1-0.2,0.1-0.3l0,0c0,0,0,0,0,0c-0.2,0.5-0.4,1.2-0.4,1.7
	c-0.4,0.2-0.8,0.5-1.2,0.8c-0.4,0.3-0.9,0.7-1.3,1.2c0,0,0,0,0,0c0,0,0,0,0,0c-0.1,0.1-0.1,0.1-0.1,0.2c0,0,0,0.1,0,0.1
	c0,0.1-0.1,0.2-0.1,0.3c0,0.1,0,0.1,0,0.2c0,0-0.1,0.1-0.1,0.1l-0.1,0.1c0,0-0.1,0.1-0.1,0.1c0,0-0.1,0.1-0.1,0.1
	c-0.7,0.6-1.4,1.3-2,2c-0.5,0.6-1.1,1.3-1.2,2.2c0,0.1,0.2,0.2,0.3,0.1c0.1,0,0.2-0.1,0.3-0.2c0,0,0,0,0,0c0,0,0,0,0,0
	c0.1-0.1,0.1-0.1,0.2-0.2c0.1-0.1,0.2-0.2,0.2-0.3c0.4-0.5,0.8-0.9,1.2-1.4c0.4-0.4,0.9-0.8,1.4-1.2c0.2-0.1,0.4-0.3,0.6-0.4
	c0.1,0.1,0.2,0.2,0.3,0.2c0.1,0,0.1,0,0.2,0.1c-0.3,0.3-0.7,0.7-1,1c-0.5,0.6-1.1,1.3-1.2,2.2c0,0.1,0.2,0.2,0.3,0.1
	c0.1,0,0.2-0.1,0.3-0.2c0,0,0,0,0,0c0,0,0,0,0,0c0.1-0.1,0.1-0.1,0.2-0.2c0.1-0.1,0.2-0.2,0.2-0.3c0.4-0.5,0.8-0.9,1.2-1.4
	c0.3-0.3,0.6-0.6,0.9-0.8c0,0.2,0,0.3,0.1,0.5c0,0,0,0,0,0c-0.1,0.1-0.1,0.2-0.2,0.3c-0.3,0.6-0.6,1.1-1,1.6
	c-0.7,0.9-1.2,1.8-1.8,2.7c-0.7,0.9-1.2,1.9-1.9,2.8c-0.8,1-1.5,2.1-2.3,3.1c-0.3,0.4-0.7,0.8-1,1.2c0,0,0,0,0,0
	c-0.1,0.1-0.1,0.1-0.2,0.2c-0.1,0.1-0.1,0.2-0.2,0.3c-0.1,0.2-0.2,0.4-0.3,0.6c-0.1,0.2,0,0.4,0.1,0.5c-0.3,0.3-0.6,0.9-0.9,1.2
	c0,0.1-0.1,0.1-0.1,0.2c0,0,0,0,0,0c-0.1,0.2-0.2,0.3-0.3,0.5c-0.5,0.7-0.9,1.5-1.3,2.2c-0.6,1-1.2,2-1.6,3
	c-0.1,0.2-0.1,0.3-0.2,0.5v0c0,0,0,0,0,0c0,0-0.1,0.1-0.1,0.1l-1,0.1l-12.4,0.8l-1.5,0.1L5,188.7c-0.6,0-1.1,0.5-1.3,1.1l-3.4,2.8
	c-0.2,0.2-0.3,0.4-0.4,0.6c-0.1,0.3,0,0.7,0.2,1c0.4,0.5,1.1,0.5,1.5,0.1l3.3-2.8c0,0,0,0,0,0l17.4-1.2l1-0.1l0.3,0c0,0,0,0,0,0
	c0.4,0,0.9-0.1,1.1-0.4c0.1-0.1,0.3-0.4,0.5-0.6c1.2-0.3,2.1-2,2.6-3.1c0.5-1,0.9-2.2,1-3.3c0.1-0.6,0.2-1.1,0.3-1.7
	c0.2,0,0.3,0,0.5-0.1c0.3-0.1,0.5-0.3,0.7-0.6c0,0.1,0.2,0.2,0.3,0.1c0.4-0.4,0.6-0.8,0.9-1.2c0.1-0.1,0.1-0.2,0.2-0.3
	c0,0.1,0,0.1,0,0.2c0,0.1,0.2,0.2,0.3,0.1c0.5-0.3,0.9-0.8,1.2-1.4c0,0.1,0.2,0.1,0.3,0.1c0.6-0.4,1.1-1.1,1.5-1.7
	c0.1-0.1,0.2-0.2,0.3-0.4c0,0.1,0,0.1,0,0.2c0,0.1,0.2,0.2,0.3,0.1c0.3-0.3,0.7-0.7,0.9-1.2c0,0.1-0.1,0.3-0.1,0.4
	c0,0.1,0.3,0.3,0.3,0.2c0.7-0.7,1-1.6,1.2-2.6c0.1-0.4,0.1-0.8,0.3-1.3c0.6,0.6,1.2,1.2,1.9,1.8c0.7,0.5,1.3,1.1,2,1.6
	c0,0.1,0,0.2,0,0.4c-0.3,0.1-0.6,0.1-0.9,0.2c-0.8,0.2-1.5,0.4-2.2,0.7c-0.8,0.4-1.5,0.9-2.2,1.5c-1.4,1.2-2.6,2.7-3.8,4.1
	c-0.3,0.3-0.5,0.7-0.6,1.1c0,0,0,0,0,0c0,0.1-0.1,0.2-0.1,0.3c-0.1,0-0.2,0.1-0.3,0.1c0,0,0,0,0,0l0,0c-0.5,0.3-0.9,0.9-0.7,1.5
	c-0.1,0.2-0.2,0.4-0.2,0.6c-0.3,0.7-0.6,1.3-0.8,2c-0.5,1.5-1.3,2.9-1.9,4.3c-0.4,0.8-0.9,1.6-1.3,2.5l-1.2,0.5l-11.4,5l-1.3,0.6
	l-2.8,1.2c-0.6,0.3-0.9,0.8-0.8,1.4l-2.2,3.8c-0.1,0.2-0.2,0.5-0.1,0.7c0,0.3,0.2,0.7,0.5,0.9c0.5,0.3,1.2,0.2,1.5-0.4l2.2-3.8
	c0,0,0,0,0,0l16-7l0.7-0.3c0.1,0,0.1,0,0.1,0c0.1-0.1,0.2-0.1,0.4-0.2l0.1,0c0.2-0.1,0.3-0.2,0.5-0.4c0.2-0.2,0.5-0.4,0.7-0.6
	c0.5-0.4,0.8-0.8,1.2-1.2c-0.2,0.7-0.4,1.4-0.6,2.1c-0.3,1.2-0.8,2.4-1.2,3.6c0,0,0,0,0,0c0,0.2-0.1,0.3-0.1,0.5
	c-0.1,0.3-0.1,0.5-0.1,0.8l0.1,0.2c0,0-0.1,0-0.1,0l-1.6,0.7L16.1,208l-1.3,0.6l-2.8,1.3c-0.6,0.3-0.9,0.9-0.8,1.5l-2.1,3.9
	C9,215.4,9,215.7,9,215.9c0,0.3,0.2,0.7,0.5,0.8c0.5,0.3,1.2,0.1,1.5-0.4l2.1-3.9c0,0,0,0,0,0l15.8-7.4l1.2-0.6
	c0.2-0.1,0.3-0.2,0.4-0.3c0.3-0.1,0.6-0.3,0.8-0.7c0.1-0.3-0.1-0.7-0.2-1c0-0.1,0-0.1,0-0.2c0.6-0.4,1-1.1,1.4-1.5
	c1-1.1,1.4-2.4,1.9-3.8c0.2-0.6,0.2-1.3,0.3-1.9c0-0.6,0.1-1.3,0-1.9c0-1.3-0.3-2.6-0.4-3.9c0.2-0.2,0.5-0.5,0.6-0.9
	c0.5-0.1,1-0.3,1.3-0.5c0.8-0.4,1.6-0.7,2.3-1.2c0.5-0.3,1.1-0.5,1.6-0.7c0.5-0.2,0.9-0.5,1.3-0.7c0.8-0.5,1.6-1,2.2-1.7
	c0.1-0.1,0.1-0.1,0.2-0.2c0.2,0.7,0.5,1.4,0.8,2.2c-1.1,0.7-2.2,1.6-3.1,2.6c-0.6,0.7-1.1,1.4-1.7,2.1c-0.1,0.1-0.2,0.3-0.3,0.4
	c0,0,0,0,0,0c0,0,0,0,0,0c-0.1,0.1-0.1,0.2-0.2,0.4c0,0,0,0.1,0,0.1c0,0.1-0.1,0.3-0.1,0.4c0,0,0,0,0,0c0,0.1-0.1,0.3-0.1,0.4
	c0,0,0,0.1,0,0.1c0,0.1,0,0.3,0,0.4c-0.1,0-0.2,0.1-0.2,0.2c-0.1,0-0.2,0.1-0.2,0.2c0,0,0,0-0.1,0.1c0,0,0,0,0,0c0,0,0,0,0,0
	c-0.2,0.2-0.2,0.5-0.2,0.9c0,0.2,0.1,0.3,0.1,0.4c-0.1,0.4-0.3,0.8-0.4,1.1c-0.2,0.7-0.4,1.4-0.7,2.1c-0.5,1.4-1,2.7-1.6,4
	c-0.5,1.1-1.1,2.2-1.8,3.3c-0.1,0.2-0.6,0.8-0.5,1.1c0,0,0,0,0,0c0,0,0,0,0,0c-0.3,0-0.6,0.1-0.9,0.3l-1.3,1.2l-9.3,8.3l-1.1,1
	l-2.3,2c-0.5,0.4-0.6,1.1-0.3,1.6l-0.9,4.3c0,0,0,0,0,0.1l-0.9,4.1c-0.1,0.6,0.3,1.2,0.8,1.3c0.3,0.1,0.7,0,0.9-0.3
	c0.2-0.2,0.3-0.4,0.4-0.6l0.9-3.9c0,0,0-0.1,0-0.1l0.9-4.3c0,0,0,0,0,0l12.8-11.4c-0.1,0.1-0.1,0.2-0.2,0.2l1.4,2.8c0,0,0,0,0,0
	l-1.2,1.3l-8.3,9.3l-1,1.1l-2,2.3c-0.4,0.5-0.4,1.1-0.1,1.7l-0.4,4.4c0,0.1,0,0.2,0,0.3l-0.4,4.1c-0.1,0.6,0.4,1.1,1,1.2
	c0.3,0,0.7-0.1,0.9-0.3c0.2-0.2,0.3-0.4,0.3-0.6l0.4-4.2c0,0,0-0.1,0-0.1l0.4-4.4c0,0,0,0,0,0l11.6-13.1l0.9-1
	c0.4-0.5,0.4-1.2,0-1.8c0.6-0.2,1.2-0.8,1.6-1.3c0.8-1.2,1.4-2.6,1.9-3.9c0.2-0.6,0.3-1.4,0.4-2.1c0.1-0.7,0.1-1.4,0.1-2.1
	c0-0.8-0.2-1.5-0.3-2.3c-0.1-0.4-0.1-0.7-0.2-1.1c0-0.2,0.1-0.3,0.1-0.5c0.1,0,0.3-0.1,0.4-0.2c0.6-0.3,0.8-0.7,0.8-0.9
	c0.4,0,0.8-0.1,1.1-0.1c1.9-0.3,3.8-1.3,5.2-2.6c0.5-0.5,0.9-1,1.4-1.5c-0.5,0.7-1,1.4-1.5,2c-0.6,0.7-1.7,1.8-1,2.8
	c0,0,0.1,0.1,0.1,0.1c-0.2,0,0,0.1,0.1,0.1c0,0,0,0,0,0c0,0,0,0,0,0c-0.3,0.3-0.5,0.7-0.8,1c-1.1,1.3-2.2,2.6-3.3,4
	c-0.6,0.7-1.9,2.3-1.4,3.3c0.1,0.1,0.2,0.2,0.4,0.3c0,0,0,0,0,0c-0.3,0.5-0.5,1.1-0.8,1.6c-0.3,0.7-0.7,1.4-1,2.1
	c-0.3,0.7-0.6,1.5-0.9,2.2c-0.2,0.4-1.1,2.1-0.4,2.4c0.1,0,0.1,0,0.2,0.1c0,0,0,0,0,0.1c0,0,0,0,0,0c-0.4,1-0.7,1.9-1,2.9
	c0,0.1-0.1,0.3-0.1,0.4c-0.3,1.2-0.6,2.3-0.6,3.5c0,0.5-0.1,0.9-0.1,1.4c0,0.4,0.2,0.7,0.2,1c0,0.1,0,0.1,0.1,0.1
	c0.2,0.1,0.3,0.1,0.5,0.1c0,0,0.1,0,0.1,0.1c0,0.4-0.1,0.8-0.1,1.2c0,0.5,5.3,15.1,5.3,15.5l27.3-13.4L89.2,208.3z"/>
<path class="st5" d="M70.4,235c2.6,4.2,5,7.9,7,11.3c-4.3,4.2-7.8,7.8-10.4,11.2c-4-4.4-9.1-9.3-15.5-15.3
	c-3.9-3.6-6.6-7.8-8.3-12.2c3.3-7.3,8.9-12.8,15.7-16.1l0,0c0,0,3.2-1.7,6.9-4.2C64.4,217.8,65.2,226.7,70.4,235"/>
<path class="st4" d="M87.1,237.2c-3.7,3.3-6.9,6.3-9.7,9c-2-3.4-4.3-7.1-7-11.3c-5.3-8.3-6-17.1-4.6-25.3c3.7-2.5,7.8-5.8,9.8-8.9
	c1.9-3.1,3-6.4,3.8-9.3c0.7-2.5,3.9-3.3,5.6-1.3c3.8,4.3,9.2,11.4,13.6,20.3C98.3,219.9,95.5,229.7,87.1,237.2"/>
<path class="st5" d="M103.4,251c-7.7,3.1-14,5.8-19.1,8.4c-1.6-3.9-3.9-8.1-6.9-13.1c2.8-2.7,6.1-5.7,9.7-9
	c8.3-7.5,11.1-17.4,11.4-26.7c0.6,1.3,1.3,2.7,1.9,4.1c4.4,10.4,6.6,24.9,4.3,35.8C104.3,250.6,103.8,250.8,103.4,251"/>
<path class="st3" d="M84.3,259.4c-4.4,2.2-7.9,4.3-10.7,6.6c-1.7-2.7-3.8-5.5-6.6-8.5c2.6-3.4,6.1-7,10.4-11.2
	C80.4,251.2,82.7,255.5,84.3,259.4"/>
<path class="st7" d="M77.4,275.7c-3.7,0.5-7.5,0.4-11.3-0.4c1.8-3.6,4.2-6.6,7.5-9.3C75.6,269.2,76.8,272.3,77.4,275.7"/>
<g>
	<g>
		<defs>
			<rect id="SVGID_13_" x="66.1" y="266" width="11.3" height="10"/>
		</defs>
		<clipPath id="SVGID_14_">
			<use xlink:href="#SVGID_13_"  style="overflow:visible;"/>
		</clipPath>
		<path class="st15" d="M77.4,275.7c-3.7,0.5-7.5,0.4-11.3-0.4c1.8-3.6,4.2-6.6,7.5-9.3C75.6,269.2,76.8,272.3,77.4,275.7"/>
	</g>
</g>
<path class="st9" d="M51.5,242.1c6.5,6,11.6,10.9,15.5,15.3c-4.1,5.4-6.2,10.2-6.7,16c-16.1-6.7-24.1-25-17.9-41.5
	c0.3-0.7,0.5-1.3,0.8-2C44.9,234.3,47.6,238.5,51.5,242.1"/>
<path class="st9" d="M103.4,251c0.5-0.2,0.9-0.4,1.4-0.6c-0.3,1.5-0.7,3-1.2,4.3c-3.1,8.2-9,14.4-16.3,17.9
	c0.1-4.3-0.8-8.5-2.9-13.3C89.4,256.8,95.6,254.1,103.4,251"/>
<path class="st7" d="M67,257.4c2.7,3,4.9,5.8,6.6,8.5c-3.3,2.7-5.7,5.7-7.5,9.3c-1.5-0.3-3.1-0.8-4.6-1.3c-0.4-0.2-0.8-0.3-1.2-0.5
	C60.8,267.7,62.9,262.8,67,257.4"/>
<path class="st7" d="M73.6,266c2.8-2.3,6.3-4.4,10.7-6.6c2,4.8,3,9.1,2.9,13.3c-3.1,1.5-6.3,2.5-9.7,3
	C76.8,272.3,75.6,269.2,73.6,266"/>
<g>
	<g>
		<defs>
			<rect id="SVGID_15_" x="60.3" y="257.4" width="13.3" height="17.8"/>
		</defs>
		<clipPath id="SVGID_16_">
			<use xlink:href="#SVGID_15_"  style="overflow:visible;"/>
		</clipPath>
		<path class="st16" d="M67,257.4c2.7,3,4.9,5.8,6.6,8.5c-3.3,2.7-5.7,5.7-7.5,9.3c-1.5-0.3-3.1-0.8-4.6-1.3
			c-0.4-0.2-0.8-0.3-1.2-0.5C60.8,267.7,62.9,262.8,67,257.4"/>
	</g>
</g>
<g>
	<g>
		<defs>
			<rect id="SVGID_17_" x="73.6" y="259.4" width="13.6" height="16.3"/>
		</defs>
		<clipPath id="SVGID_18_">
			<use xlink:href="#SVGID_17_"  style="overflow:visible;"/>
		</clipPath>
		<path class="st17" d="M73.6,266c2.8-2.3,6.3-4.4,10.7-6.6c2,4.8,3,9.1,2.9,13.3c-3.1,1.5-6.3,2.5-9.7,3
			C76.8,272.3,75.6,269.2,73.6,266"/>
	</g>
</g>
</svg>
