<?xml version="1.0" encoding="utf-8"?>
<!-- Generator: Adobe Illustrator 19.0.0, SVG Export Plug-In . SVG Version: 6.00 Build 0)  -->
<svg version="1.1" id="Calque_1" xmlns="http://www.w3.org/2000/svg" xmlns:xlink="http://www.w3.org/1999/xlink" x="0px" y="0px"
	 viewBox="0 0 237.7 197" style="enable-background:new 0 0 237.7 197;" xml:space="preserve">
<style type="text/css">
	.st0{fill:#8CCBBD;}
	.st1{fill:#F4F4F0;}
</style>
<path class="st0" d="M114.8,0C65.6,0,23.6,33.7,7.3,80.8l0,0l0,0C3,93,0.5,106.2,0.1,119.8C0,121.3,0,122.9,0,124.4V197h237.7v-63.8
	C237.7,59.8,182.6,0,114.8,0"/>
<path class="st1" d="M159.1,120.1l-4.6-3.5c0,0,0,0,0,0l-6.8-22.5c0.3-0.5,0.4-1.1,0.3-1.6c-0.3-1.4-1.6-2.3-3-2.1l-7.9,1.4
	c-0.9-1.7-1.9-3.3-2.9-4.7l10.6-7.1c0.3-0.2,0.6-0.5,0.8-0.9c0.3-0.3,0.5-0.8,0.4-1.2l-1.3-18.1l5.4-5.9c0.5-0.6,0.5-1.5-0.1-2.1
	c-0.6-0.6-1.5-0.5-2.1,0.1l-6,6.5c-0.5,0.3-0.8,0.9-0.8,1.5l1.1,15.6c-0.1,0.1-0.3,0.1-0.4,0.2l-8.9,5.9c0,0,0,0,0,0
	c0.4-0.9,0.6-1.9,0.6-3c0-4-3-7.4-7-7.9c0.5-0.4,0.8-1,0.8-1.7v0c0-1.2-1-2.2-2.2-2.2c-0.3,0-0.6,0.1-0.9,0.2c0,0,0,0,0-0.1l7.5-7.9
	c0.1-0.1,0.2-0.3,0.2-0.4l0.9-11.9l6.3-3.5c0.3-0.2,0.5-0.6,0.3-1c-0.2-0.3-0.6-0.5-1-0.3l-6.7,3.7c-0.2,0.1-0.4,0.3-0.4,0.6
	l-0.9,12l-7.1,7.5c-0.4-0.5-0.9-0.9-1.5-1.2c-0.2-0.1-0.4-0.2-0.6-0.3c0.2-0.3,0.4-0.7,0.4-1.1c0-0.9-0.8-1.7-1.7-1.7H119
	c-0.9,0-1.7,0.8-1.7,1.7c0,0.4,0.1,0.8,0.4,1c-0.2,0.1-0.4,0.2-0.6,0.3c-0.7,0.4-1.3,0.9-1.8,1.5c-0.1,0.1-0.1,0.2-0.2,0.3l-0.6-0.6
	l-6.4-7.4l-0.3-12.1c0-0.2-0.1-0.5-0.4-0.6l-6.5-4c-0.3-0.2-0.8-0.1-1,0.2c-0.2,0.3-0.1,0.8,0.2,1l6.2,3.8l0.3,11.9
	c0,0.2,0.1,0.3,0.2,0.5l6.2,7.2l0.5,0.6c-1.1,0.1-2,1-2,2.2v0c0,0.7,0.3,1.3,0.8,1.7c-3.9,0.5-6.9,3.8-6.9,7.9c0,1.1,0.2,2.1,0.6,3
	L97.7,76l-0.5-0.4c-0.1-0.1-0.2-0.1-0.3-0.2L98,59.8c0-0.6-0.2-1.1-0.7-1.5l-0.5-0.6l-5.5-5.9c-0.6-0.6-1.5-0.6-2.1-0.1
	c-0.6,0.6-0.6,1.5-0.1,2.1l5.4,5.8l0,0.2l-1.2,16.3l-0.1,1.2c0,0.2,0,0.3,0,0.5c0,0.3,0,0.5,0.1,0.7c0.2,0.5,0.5,1,1,1.4l10.8,7.2
	c-1,1.5-1.9,3.1-2.8,4.9l-9.5-1.7c-1.4-0.3-2.7,0.7-3,2.1c-0.1,0.6,0,1.2,0.3,1.6l-6.8,22.5c0,0,0,0,0,0l-4.6,3.5
	c-0.6,0.5-0.8,1.4-0.3,2.1c0.3,0.4,0.7,0.6,1.2,0.6c0.3,0,0.6-0.1,0.9-0.3l4.6-3.5c0.8,0,1.5-0.5,1.7-1.3l1.2-3.9l0.6-1.9l4.9-16.1
	l6.7,1.2c-0.1,0.2-0.2,0.4-0.3,0.6c-0.1,0.2-0.2,0.5-0.2,0.7l-0.3,0.9c-0.1,0.4-0.3,0.7-0.4,1.1l0.2,0.1l1.2,0.7l2.5,1.4
	c-4.9,8.6-9.7,18.4-12.4,26.8c-1.6,4.7-2.5,9-2.5,12.3c0,11.8,6.4,22.1,16,27.5c1,0.5,1.9,1,2.9,1.5c3.9,1.7,8.2,2.7,12.8,2.7
	c3.6,0,7.1-0.6,10.4-1.7c1.8-0.6,3.5-1.4,5.1-2.3c9.7-5.4,16.2-15.8,16.2-27.7c0-4-1.4-9.3-3.5-15.2c-3-8.1-7.5-17.2-12.1-25.1
	l4.4-2.2c-0.2-0.6-0.5-1.2-0.7-1.8c-0.1-0.2-0.1-0.3-0.2-0.5l5.1-0.9l6.6,21.9c0.2,0.8,1,1.3,1.7,1.3l4.6,3.5
	c0.3,0.2,0.6,0.3,0.9,0.3c0.4,0,0.9-0.2,1.2-0.6C159.8,121.5,159.7,120.6,159.1,120.1"/>
<path class="st1" d="M213.8,131.7c-0.1-0.2-0.3-0.5-0.5-0.8c-0.4-0.6-1-1.4-1.7-2.3l0,0c-0.6-0.7-1.2-1.5-1.9-2.2l0,0
	c-0.1-0.1-0.3-0.3-0.4-0.4c-0.2-0.3-0.5-0.5-0.7-0.8l0,0c-0.2-0.2-0.4-0.4-0.6-0.6l0,0c-0.2-0.1-0.3-0.3-0.5-0.4l0,0
	c-0.4-0.4-0.8-0.7-1.2-1l0,0c-0.3-0.2-0.5-0.4-0.8-0.6c-0.2-0.2-0.5-0.4-0.7-0.6l0,0c-0.6-0.5-1.3-0.9-2-1.3l0,0
	c-0.4-0.2-0.8-0.5-1.2-0.7l0,0c-0.4-0.2-0.7-0.4-1.1-0.6l0,0c-0.3-0.1-0.5-0.2-0.8-0.4l0,0c-0.2-0.1-0.4-0.2-0.6-0.2l0,0
	c-0.1,0-0.2-0.1-0.3-0.1l0,0c-0.1-0.1-0.3-0.1-0.5-0.2l0,0c-0.1,0-0.2-0.1-0.3-0.1l0,0c-0.2-0.1-0.4-0.1-0.5-0.2l-0.1,0
	c-0.1,0-0.2-0.1-0.3-0.1c0,0,0,0,0,0l0,0c0-0.2,0-0.4,0-0.5l0,0c-0.1-0.9-0.3-1.7-0.8-2.3c0-0.1-0.1-0.1-0.1-0.2
	c0.4-0.5,0.8-1.7,1-4.2l0,0c0-0.3,0-0.5,0-0.8l0-0.1c0-0.2,0-0.3,0-0.5c0-0.1,0-0.3,0-0.4v0c0-0.2,0-0.4,0-0.6l0,0
	c0-0.2,0-0.5,0-0.7l0,0c0-0.3,0-0.5,0.1-0.8l0,0c0.1-1.1,0.3-2.1,0.6-3.1l0-0.1c0.1-0.5,0.3-0.9,0.4-1.4l0,0
	c0.4-1.2,0.9-2.2,1.4-3.2c0.1-0.1,0.1-0.2,0.2-0.3c0,0,0.1-0.1,0-0.2c-0.1-0.1-0.2,0-0.2,0c-0.1,0.1-0.1,0.2-0.2,0.3
	c-0.5,0.7-0.9,1.4-1.2,2.2l0,0c-0.2,0.5-0.4,1-0.6,1.6l0,0c-0.2,0.6-0.4,1.3-0.5,2l0,0c-0.1,0.5-0.2,1-0.3,1.5l0,0
	c-0.1,0.4-0.1,0.9-0.2,1.3l0,0c0,0.2,0,0.5-0.1,0.7l0,0c0,0.1,0,0.2,0,0.3l0,0c0,0.2,0,0.4,0,0.6l0,0c0,0.2,0,0.4,0,0.6
	c0,0.1,0,0.2,0,0.3v0c0,0.4,0,0.7,0,1l0,0c0,0.3,0,0.5-0.1,0.8l0,0c0,0.3-0.1,0.5-0.1,0.7l0,0c-0.2,1.1-0.4,1.6-0.6,1.8
	c0,0,0,0.1-0.1,0.1c0,0,0,0,0,0c0,0,0,0,0,0c-0.4-0.3-0.9-0.4-1.3-0.4c0,0,0,0,0,0c-0.2,0-0.4,0-0.6,0.1c0,0-0.1,0-0.1,0
	c0,0-0.1,0-0.1,0c-0.3,0.1-0.6,0.2-0.7,0.3c-0.1-0.1-0.2-0.1-0.2-0.2c-0.1-0.1-0.3-0.1-0.4-0.2c-0.8-0.2-1.6,0-2.4,0.2
	c0,0,0.1,0,0.1,0c-0.3,0.1-0.5,0.1-0.8,0.2c-1.3,0.3-4.1,0.6-6,1.7c0,0,0,0,0.1-0.1c-0.8,0.4-1.5,1-1.8,1.8c0,0,0,0,0,0
	c0,0.1-0.1,0.2-0.1,0.2c0,0,0,0,0,0c0,0,0,0,0,0c0,0-0.1,0-0.1,0.1c0,0,0,0,0,0c0,0-0.1,0-0.1,0v0c-0.7,0.3-1.8,0.9-3.3,1.8
	c-0.1,0.1-0.2,0.1-0.2,0.2c0,0,0,0,0,0c0,0,0,0,0,0c-0.1,0-0.1,0.1-0.2,0.1c0,0-0.1,0-0.1,0.1c0,0-0.1,0.1-0.1,0.1
	c0,0-0.1,0.1-0.1,0.1c0,0-0.1,0.1-0.1,0.1c0,0,0,0.1-0.1,0.1c0,0-0.1,0.1-0.1,0.1c0,0,0,0.1-0.1,0.1c0,0,0,0.1-0.1,0.1
	c0,0,0,0.1,0,0.1c0,0,0,0.1,0,0.1c0,0,0,0.1,0,0.1c0,0,0,0.1,0,0.1c0,0,0,0,0,0.1c-0.7,0.5-1.8,1.3-2.6,2c-0.1,0-0.1,0.1-0.2,0.1
	c0,0-0.1,0-0.1,0.1c-0.1,0.1-0.2,0.1-0.2,0.2c-0.1,0.1-0.1,0.1-0.1,0.2c0,0,0,0,0,0c0,0,0,0,0,0c0,0-0.1,0.1-0.1,0.1
	c0,0,0,0.1,0,0.1c0,0,0,0.1-0.1,0.1c0,0,0,0.1,0,0.1c-0.1,0.1-0.2,0.2-0.4,0.3c-0.3,0-0.6,0.1-0.8,0.4c-1.9,1.7-4.7,4.6-7.2,8.4
	c-0.4,0.6-0.7,1.1-1.1,1.7c-2.5,4.4-4.3,10.8-3.9,15.8c0.1,0.7,0.2,1.4,0.3,2c0.9,3.8,3.3,6.9,6.3,8.9c1.3,0.8,2.7,1.5,4.2,1.9
	c1.6,0.4,3.3,0.6,5.1,0.4c0.7-0.1,1.4-0.2,2.1-0.3c0.2,0,0.4-0.1,0.6-0.2c7.5-2.1,12.1-9.9,10.3-17.6c-0.1-0.3-0.2-0.6-0.3-0.9
	c-1.1-3.4-3.2-6.1-6-7.9c0.4-1.5,0.7-3,0.9-3.8c0.4-0.4,0.7-0.8,0.9-1c-0.1,0.5-0.2,1.1,0.1,1c0,0.6,0.4,1.6,1.8,1.6h0
	c0.5,0,1.1-0.1,1.8-0.3c0,0,0.1,0,0.1,0l0,0c0.5-0.2,0.9-0.4,1.3-0.6l0,0c0.6-0.3,1.1-0.5,1.6-0.7l0,0c0.5-0.2,0.8-0.4,1.1-0.6
	c0,0.2,0.1,0.5,0.2,0.8l0,0c0,0.2,0.1,0.4,0.1,0.5l0,0c0.1,0.2,0.1,0.5,0.2,0.7l0,0c0.1,0.3,0.1,0.6,0.2,0.9c0,0.2,0.1,0.4,0.1,0.6
	l0,0c0.1,0.4,0.1,0.7,0.2,1.1l0,0c0.1,0.6,0.2,1.1,0.3,1.6l0,0.1c0.3,1.3,0.5,2.4,0.8,2.5c0.2,0.5,0.6,1,1,1.4l0,0l0,0
	c0.2,0.2,0.3,0.3,0.5,0.5l0,0c0.3,0.3,0.6,0.5,1,0.6l0,0c0.9,0.5,1.7,0.7,2.1,0.5c0.1,0,0.2,0,0.3-0.1c0,0,0.1,0,0.1,0
	c0,0,0.1,0,0.1,0c0,0,0.1,0,0.1-0.1c0-0.1,0-0.1-0.1-0.1l-0.1,0c-0.2-0.1-0.4-0.1-0.7-0.1c-0.3,0-0.6-0.1-0.9-0.2l0,0l0,0
	c-0.5-0.2-0.9-0.5-1.3-0.8l0,0c-0.3-0.2-0.5-0.5-0.7-0.7l0,0c-0.2-0.2-0.3-0.4-0.4-0.5c0,0,0-0.1-0.1-0.1c0-0.1-0.1-0.1-0.1-0.2
	c0,0,0,0,0-0.1c0,0,0-0.1-0.1-0.1c0,0,0,0,0,0c0,0,0,0,0,0c0,0,0,0,0-0.1c0,0,0,0,0,0c0,0,0,0,0-0.1c0,0,0,0,0,0c0,0,0,0,0-0.1
	c0,0,0-0.1,0-0.1c0,0,0,0,0-0.1c0,0,0,0,0,0c0,0,0,0,0,0v0c0,0,0-0.1,0-0.1c0,0,0-0.1,0-0.1c0,0,0,0,0-0.1v0c0,0,0-0.1,0-0.1
	c0,0,0-0.1,0-0.1c0,0,0-0.1,0-0.1c0,0,0-0.1,0-0.1c0,0,0,0,0,0c0-0.2-0.1-0.5-0.2-0.8c-0.2-0.6-0.3-1.2-0.4-1.8l0,0l0,0
	c-0.1-0.4-0.2-0.9-0.3-1.3l0,0l0,0c-0.1-0.3-0.1-0.6-0.2-0.9l0,0c0-0.2-0.1-0.4-0.1-0.6l0,0c-0.1-0.5-0.2-0.9-0.2-1.4l0,0
	c0-0.1,0-0.2,0-0.2c0-0.2-0.1-0.3-0.1-0.5l0,0c0,0,0,0,0,0c0,0,0,0,0,0c0,0,0-0.1,0-0.1c0-0.1,0-0.1,0-0.2c0,0,0-0.1,0-0.1
	c0-0.1,0-0.1,0-0.1c0,0,0-0.1,0-0.1c0,0,0,0,0,0c0,0,0,0,0,0c0,0,0,0,0-0.1c0,0,0,0,0,0c0,0,0,0,0,0c0,0,0,0,0,0c0,0,0-0.1-0.1-0.1
	c0,0,0,0,0,0c0,0,0-0.1-0.1-0.1c0,0,0,0,0,0c0,0,0,0,0,0c0,0,0,0,0,0c0,0,0,0-0.1-0.1c0,0,0,0,0,0c0,0,0,0,0,0c0,0,0,0,0,0
	c0,0,0,0,0,0c0,0,0,0,0,0c0,0,0,0,0,0c0,0,0-0.1,0-0.1c0,0,0-0.1,0-0.1c0,0,0,0,0-0.1v0c-0.2-0.5-0.5-0.6-0.8-0.6l0,0
	c-0.2,0-0.5,0.2-0.7,0.3c-0.1,0.1-0.3,0.2-0.5,0.4l0,0c-0.3,0.2-0.7,0.4-1.1,0.6l0,0c-0.3,0.1-0.5,0.2-0.8,0.3l-0.1,0
	c-0.1,0.1-0.3,0.1-0.4,0.2l0,0c-0.2,0.1-0.3,0.1-0.5,0.2l0,0c-0.1,0-0.3,0.1-0.4,0.1l0,0c-0.1,0-0.2,0-0.3,0.1c-0.1,0-0.2,0-0.3,0.1
	l0,0c-0.1,0-0.2,0-0.3,0c-0.1,0-0.1,0-0.2,0c0.2-0.4,0.3-0.8,0.4-1.2l0,0c0-0.2,0.1-0.3,0.1-0.4c0.5-0.4,1-1,1.4-1.5
	c0.1-0.1,0.2-0.3,0.3-0.4c0.4,0.6,1.9,1.1,3.4,0.9c1.6-0.1,3.1,0.4,4.2,1.1c0,0,0,0,0,0l0,0c0.6,0.4,1,0.5,1.3,0.3
	c0.4,0.4,0.9,0.9,1.4,1.4l0,0c0.5,0.5,0.9,1,1.1,1.4c0.4,0.7,1.1,1.3,1.5,1.4c0.5,0.5,1.4,0.7,2.2,0.7h0c0.5,0,1-0.1,1.4-0.2l0,0
	c0.3-0.1,0.5-0.1,0.8-0.2l0,0c0.1-0.1,0.3-0.1,0.4-0.2c0.4-0.2,0.7-0.3,1-0.3c0,0,0,0,0,0c0,0,0,0,0,0c0,0,0,0,0,0
	c0.1,0,0.1-0.1,0.1-0.1c0-0.1-0.1-0.1-0.1-0.1c-0.3-0.1-0.6-0.1-1.1,0.1l0,0c-0.1,0-0.1,0.1-0.2,0.1c-0.4,0.1-0.8,0.2-1.2,0.3l0,0
	c-0.4,0.1-0.7,0.1-1,0.1l0,0c-0.3,0-0.6,0-0.8,0c-0.1,0-0.3,0-0.4-0.1c0,0,0,0,0,0c-0.1,0-0.3-0.1-0.4-0.1c0,0-0.1,0-0.1,0
	c-0.1,0-0.2-0.1-0.2-0.1c0,0,0,0,0,0c-0.2-0.4-0.5-1-1-1.7l0,0c-0.3-0.4-0.6-1-1-1.6l0,0c0,0,0,0,0,0c-0.1-0.2-0.3-0.4-0.4-0.6l0,0
	c-0.1-0.2-0.2-0.3-0.4-0.5l0,0c-0.1-0.1-0.2-0.2-0.2-0.3c0,0,0,0,0,0c0,0,0,0,0,0c-0.1-0.1-0.2-0.2-0.3-0.3c0,0,0,0,0,0
	c0,0-0.1-0.1-0.1-0.1c0,0,0,0,0,0c0,0-0.1,0-0.1-0.1c0-0.1-0.1-0.2-0.1-0.3l0,0c-0.1-0.2-0.3-0.3-0.6-0.5l0,0
	c-0.3-0.1-0.6-0.2-0.9-0.3l0,0c-0.1,0-0.3,0-0.4-0.1c-1.2-0.2-2.3-0.2-3.5-0.4l0,0c-0.2,0-0.5-0.1-0.7-0.2l0,0
	c-0.1,0-0.2-0.1-0.3-0.1l0,0c-0.1,0-0.2-0.1-0.2-0.1c-0.1,0-0.1-0.1-0.2-0.1l0,0c-0.3-0.1-0.6-0.2-0.8-0.3l0,0
	c-0.3-0.1-0.5-0.1-0.7-0.1c0.2-0.3,0.3-0.5,0.4-0.7c0,0,0,0,0.1,0c0.1,0,0.2-0.1,0.3-0.1c0.3,0,0.6-0.1,1-0.2c1.3-0.6,2-0.9,2.3-1.3
	c0.3,0.2,0.8,0.4,1.3,0.7c1.3,0.7,2.6,1.5,2.9,1.4c0,0,0.1,0,0.1-0.1c1-0.2,1.9-1,2.2-1.5l0,0c0-0.1,0-0.2,0-0.2
	c-0.1,0-0.1,0-0.2,0.1c0,0,0,0,0,0c-0.4,0.8-1.5,1.2-1.9,1.3c-0.1-0.1-0.3-0.3-0.8-0.5c-1.1-0.5-1.9-1-3-1.6
	c-0.2-0.1-0.4-0.2-0.5-0.2c-0.2-0.5-0.6-0.4-0.8-0.1c0,0-0.1,0.1-0.2,0.1c0.4-0.6,0.7-1.3,1.1-2.1h0c0,0,0.1,0,0.1,0
	c0,0,0.1,0,0.1,0c0,0,0,0,0.1,0c0,0,0,0,0.1,0c0.4,1.3,2,1.2,1.8,1.1c-0.5-0.2-0.9-0.9-1.1-1.2c0,0,0.1,0,0.1,0c0,0,0,0,0.1,0
	c0.1,0,0.1-0.1,0.2-0.1c0,0,0.1,0,0.1-0.1c0,0,0.1-0.1,0.1-0.1c0,0,0.1,0,0.1-0.1c0,0,0,0,0,0c0.3,0.2,0.9,0.7,1.1,1.3
	c0.3,0.8,0.2-1-0.7-1.6c0,0,0,0,0,0c0.1-0.1,0.1-0.1,0.2-0.2c0,0,0,0,0,0c0,0,0.1-0.1,0.1-0.1c0,0,0,0,0,0c0.2-0.3,0.4-0.6,0.5-1.1
	c0-0.1,0-0.1,0.1-0.2c0.1,0,0.1,0,0.2,0c0.6,0,1.1-0.5,1.1-1.1v0c0-0.4-0.2-0.8-0.6-1l0,0c0,0,0.1,0,0.1,0c0,0,0.1,0,0.1,0
	c0,0,0.1,0,0.1,0c0,0,0.1,0,0.1,0c0.1,0,0.1,0,0.2,0c0,0,0,0,0.1,0l0,0c0,0,0,0,0.1,0c0.1,0,0.1,0,0.2,0c0.1,0,0.1,0,0.2,0
	c0.1,0,0.1,0,0.2,0.1c0,0,0,0,0.1,0l0,0c0,0,0.1,0,0.1,0c0.1,0,0.1,0,0.2,0.1c0.1,0,0.1,0,0.2,0.1l0,0c0.1,0,0.2,0.1,0.2,0.1
	c0.1,0,0.1,0,0.2,0.1c0.1,0,0.2,0.1,0.2,0.1l0,0c0.1,0,0.1,0.1,0.2,0.1c0.1,0,0.2,0.1,0.3,0.1c0.1,0,0.2,0.1,0.2,0.1
	c0.1,0,0.2,0.1,0.3,0.1c0.1,0,0.2,0.1,0.3,0.1c0.1,0,0.2,0.1,0.3,0.1c0.1,0,0.2,0.1,0.3,0.1c0.1,0.1,0.2,0.1,0.3,0.2c0,0,0,0,0,0
	l0,0c0.1,0,0.1,0.1,0.2,0.1c0.1,0.1,0.2,0.1,0.3,0.2c0.1,0.1,0.2,0.1,0.3,0.2c0.1,0.1,0.2,0.1,0.3,0.2c0.1,0.1,0.2,0.1,0.3,0.2
	c0.1,0.1,0.2,0.2,0.4,0.2c0,0,0.1,0.1,0.1,0.1l0,0c0.1,0,0.1,0.1,0.2,0.1c0.1,0.1,0.2,0.2,0.4,0.3c0.1,0.1,0.2,0.2,0.3,0.2
	c0.1,0.1,0.3,0.2,0.4,0.3c0.1,0.1,0.2,0.2,0.3,0.3c0,0,0.1,0.1,0.1,0.1l0,0c0.1,0.1,0.2,0.1,0.2,0.2c0.1,0.1,0.2,0.2,0.4,0.3
	c0.1,0.1,0.3,0.2,0.4,0.3c0.1,0.1,0.2,0.2,0.4,0.3c0.1,0.1,0.3,0.2,0.4,0.4c0.1,0.1,0.3,0.2,0.4,0.4c0.1,0.1,0.2,0.2,0.3,0.3l0,0
	c0,0,0,0,0.1,0.1c0.1,0.1,0.3,0.3,0.4,0.4c0.1,0.1,0.3,0.3,0.4,0.4c0.2,0.2,0.4,0.4,0.6,0.6c0.2,0.2,0.4,0.4,0.5,0.6l0.1,0.1
	c0.2,0.2,0.3,0.3,0.5,0.5c0.1,0.1,0.3,0.3,0.4,0.4c0.2,0.2,0.3,0.4,0.5,0.6c0.1,0.2,0.3,0.3,0.4,0.5c0.1,0.2,0.3,0.3,0.4,0.5
	l0.1,0.1c0,0,0,0,0,0.1c0.1,0.2,0.3,0.3,0.4,0.5c0.1,0.2,0.3,0.4,0.5,0.6C213.4,131.3,213.6,131.5,213.8,131.7
	C213.8,131.8,213.8,131.8,213.8,131.7C213.8,131.8,213.8,131.7,213.8,131.7"/>
<path class="st1" d="M76.8,138.2c-0.3-0.6-0.6-1.2-0.8-1.8c-2-4-4.4-7.2-6.1-9.2c-0.5-0.6-1.3-0.6-1.8-0.3c-0.1-0.1-0.3-0.3-0.4-0.4
	v0c0,0,0,0,0,0c0,0-0.3-0.3-0.3-0.3c0,0,0,0,0,0l-0.1-0.1c0,0,0-0.1,0.1-0.1l0-0.1c0-0.1,0-0.1,0.1-0.2c0-0.1,0-0.1,0-0.1l0,0
	c0-0.1,0-0.2,0-0.4l0-0.1c0-0.1-0.1-0.3-0.1-0.3c0,0,0-0.1,0-0.1l0,0c-0.1-0.5-2-2.6-2.1-2.6c-0.2-0.7-0.6-1.3-1.1-1.8
	c0,0-0.7-0.6-1-0.7v0c0,0,0,0,0,0c0,0,0-0.1,0-0.1c0.1-0.1,0-0.2,0-0.4c-0.1-0.2-0.3-0.6-0.5-0.8c-0.2-0.2-0.4-0.4-0.6-0.6
	c0.1,0.1,0,0-0.2-0.1c-0.2-0.2-0.4-0.3-0.6-0.4c0,0-0.1,0-0.1-0.1c0,0,0,0,0,0c0,0,0,0,0,0c0,0,0,0,0,0c0,0,0,0,0,0v0
	c0-0.2-0.1-0.4-0.2-0.6c-0.1-0.1-0.2-0.2-0.3-0.3c-0.2-0.1-0.3-0.3-0.4-0.4c-0.3-0.3-0.6-0.5-1-0.7c-0.2-0.1-0.3-0.2-0.5-0.3
	c0,0,0,0,0,0c0,0,0,0,0,0c0,0-0.1,0-0.1,0c0,0,0,0,0,0c0,0-0.1,0-0.1,0c0,0,0,0-0.1,0c0,0,0-0.1,0-0.1c0,0,0,0,0,0c0,0,0,0,0-0.1
	c0,0,0,0,0,0c0,0,0,0-0.1-0.1c0,0,0,0,0,0c0,0,0-0.1-0.1-0.1c0,0,0,0,0,0v0c-0.3-0.3-0.9-0.5-1.3-0.6c-0.3-0.1-0.6-0.1-0.9-0.1
	c0-0.1,0-0.1,0-0.2v0c0-0.2-0.1-0.3-0.2-0.5c-0.4-0.5-1-0.9-1.6-1.2c-0.3-0.1-0.5-0.2-0.8-0.3c-0.1,0-0.1,0-0.2,0
	c-0.5-0.4-1-0.7-1.7-0.8c-0.7-0.1-1.6-0.1-2.2,0.4c-0.4,0.1-0.8,0.4-1.1,0.7c-0.1,0.1-0.1,0.1-0.2,0.2c0,0,0,0-0.1,0v0c0,0,0,0,0,0
	h0c-0.1-0.1-0.2-0.1-0.3-0.2c-0.2-0.1-0.3-0.2-0.5-0.3v0l0,0c0,0,0,0,0,0c0,0,0,0,0,0v0c-0.2-0.1-0.4-0.1-0.6-0.2v0c0,0,0,0,0,0
	c0,0,0,0,0,0c-0.2,0-0.4-0.1-0.6-0.1c0,0,0,0,0,0c0,0,0,0-0.1,0c0,0,0,0,0,0c-0.1,0-0.3,0-0.4,0c0,0,0,0,0,0c-0.1,0.2,0,0.2,0.2,0.3
	c0.2,0.1,0.5,0.1,0.7,0.2c0.5,0.2,1,0.4,1.4,0.6c0,0.1-0.1,0.1-0.1,0.2c-0.4,0.1-0.8,0.5-0.8,1c0,0-0.1,0-0.1,0v0c0,0,0,0,0,0
	c-0.1,0-0.2,0.1-0.3,0.1c-0.2,0.1-0.4,0.2-0.5,0.3c0,0,0,0,0,0c0,0,0,0,0,0c0,0,0,0,0,0h0c-0.2,0.1-0.3,0.2-0.5,0.4c0,0,0,0,0,0
	c0,0,0,0,0,0c0,0,0,0,0,0c-0.2,0.1-0.3,0.3-0.4,0.4l0,0c0,0,0,0,0,0c0,0,0,0,0,0c-0.1,0.1-0.2,0.2-0.3,0.4c0,0,0,0,0,0
	c0,0.1,0.1,0.1,0.2,0.1v0l0,0c0,0,0.1,0,0.1,0c0,0,0,0,0,0c0,0,0.1,0,0.1,0c0.2-0.1,0.4-0.3,0.6-0.5c0.4-0.3,0.9-0.5,1.4-0.7
	c0,0,0.1,0,0.1,0c0.2,0.3,0.5,0.6,1,0.6c0.1,0,0.1,0,0.2,0c-0.2,0.1-0.4,0.2-0.5,0.3c-0.2,0.1-0.4,0.3-0.6,0.5c0,0,0,0,0,0
	c0,0,0,0,0,0c0,0,0,0.1-0.1,0.1c0,0,0,0,0,0c0,0,0,0.1,0,0.1c0,0,0,0.1,0,0.1c0,0,0,0,0,0c0,0,0,0,0,0c0,0,0,0-0.1,0.1
	c0,0,0,0-0.1,0.1c-0.3,0.3-0.6,0.6-0.9,0.9c-0.2,0.3-0.5,0.6-0.5,1c0,0.1,0.1,0.1,0.1,0.1c0,0,0.1-0.1,0.1-0.1l0,0c0,0,0,0,0,0
	c0,0,0.1-0.1,0.1-0.1c0,0,0.1-0.1,0.1-0.1c0.2-0.2,0.4-0.4,0.6-0.6c0.2-0.2,0.4-0.4,0.6-0.5c0.1-0.1,0.2-0.1,0.3-0.2
	c0,0,0.1,0.1,0.1,0.1c0,0,0.1,0,0.1,0c-0.2,0.2-0.3,0.3-0.4,0.5c-0.2,0.3-0.5,0.6-0.5,1c0,0.1,0.1,0.1,0.1,0.1c0,0,0.1-0.1,0.1-0.1
	c0,0,0,0,0,0c0,0,0,0,0,0c0,0,0.1-0.1,0.1-0.1c0,0,0.1-0.1,0.1-0.1c0.2-0.2,0.4-0.4,0.6-0.6c0.1-0.1,0.3-0.3,0.4-0.4
	c0,0.1,0,0.2,0,0.2c0,0,0,0,0,0c0,0.1-0.1,0.1-0.1,0.2c-0.1,0.3-0.3,0.5-0.5,0.7c-0.3,0.4-0.5,0.8-0.8,1.2c-0.3,0.4-0.5,0.8-0.9,1.3
	c-0.3,0.5-0.7,0.9-1,1.4c-0.1,0.2-0.3,0.4-0.4,0.6c0,0,0,0,0,0c0,0,0,0.1-0.1,0.1c0,0-0.1,0.1-0.1,0.1c-0.1,0.1-0.1,0.2-0.2,0.3
	c0,0.1,0,0.2,0,0.2c-0.2,0.2-0.3,0.4-0.4,0.6c0,0,0,0.1-0.1,0.1c0,0,0,0,0,0c-0.1,0.1-0.1,0.1-0.1,0.2c-0.2,0.3-0.4,0.7-0.6,1
	c-0.3,0.4-0.5,0.9-0.7,1.4c0,0.1-0.1,0.1-0.1,0.2c0,0,0,0,0,0c0,0,0,0-0.1,0l-0.5,0l-5.6,0.4l-0.7,0l-1.4,0.1
	c-0.3,0-0.5,0.2-0.6,0.5l-1.5,1.3c-0.1,0.1-0.1,0.2-0.2,0.3c0,0.2,0,0.3,0.1,0.4c0.2,0.2,0.5,0.2,0.7,0.1l1.5-1.3c0,0,0,0,0,0
	l7.8-0.5l0.4,0l0.1,0c0,0,0,0,0,0c0.2,0,0.4-0.1,0.5-0.2c0.1-0.1,0.1-0.2,0.2-0.3c0.6-0.1,1-0.9,1.2-1.4c0.2-0.5,0.4-1,0.5-1.5
	c0-0.3,0.1-0.5,0.1-0.7c0.1,0,0.1,0,0.2,0c0.1,0,0.2-0.2,0.3-0.3c0,0,0.1,0.1,0.1,0.1c0.2-0.2,0.3-0.4,0.4-0.5c0,0,0.1-0.1,0.1-0.1
	c0,0,0,0.1,0,0.1c0,0,0.1,0.1,0.1,0.1c0.2-0.1,0.4-0.4,0.5-0.6c0,0,0.1,0.1,0.1,0c0.3-0.2,0.5-0.5,0.7-0.7c0-0.1,0.1-0.1,0.1-0.2
	c0,0,0,0.1,0,0.1c0,0,0.1,0.1,0.1,0.1c0.1-0.1,0.3-0.3,0.4-0.5c0,0.1,0,0.1-0.1,0.2c0,0.1,0.1,0.1,0.2,0.1c0.3-0.3,0.4-0.7,0.5-1.2
	c0-0.2,0.1-0.4,0.1-0.6c0.3,0.3,0.6,0.5,0.9,0.8c0.3,0.2,0.6,0.5,0.9,0.7c0,0.1,0,0.1,0,0.2c-0.1,0-0.3,0.1-0.4,0.1
	c-0.3,0.1-0.7,0.2-1,0.3c-0.4,0.2-0.7,0.4-1,0.7c-0.6,0.5-1.2,1.2-1.7,1.8c-0.1,0.1-0.2,0.3-0.3,0.5c0,0,0,0,0,0c0,0,0,0.1,0,0.1
	c0,0-0.1,0-0.1,0.1c0,0,0,0,0,0l0,0c-0.2,0.1-0.4,0.4-0.3,0.7c0,0.1-0.1,0.2-0.1,0.3c-0.1,0.3-0.3,0.6-0.4,0.9
	c-0.2,0.7-0.6,1.3-0.9,1.9c-0.2,0.4-0.4,0.7-0.6,1.1l-0.6,0.2l-5.2,2.2l-0.6,0.3l-1.3,0.6c-0.3,0.1-0.4,0.4-0.4,0.7l-1,1.7
	c-0.1,0.1-0.1,0.2-0.1,0.3c0,0.2,0.1,0.3,0.2,0.4c0.2,0.1,0.5,0.1,0.7-0.2l1-1.7c0,0,0,0,0,0l7.2-3.1l0.3-0.1c0,0,0,0,0,0
	c0.1,0,0.1-0.1,0.2-0.1l0,0c0.1,0,0.2-0.1,0.2-0.2c0.1-0.1,0.2-0.2,0.3-0.3c0.2-0.2,0.4-0.4,0.5-0.6c-0.1,0.3-0.2,0.6-0.3,0.9
	c-0.2,0.6-0.4,1.1-0.5,1.6c0,0,0,0,0,0c0,0.1,0,0.1-0.1,0.2c0,0.1,0,0.2,0,0.4l0,0.1c0,0,0,0-0.1,0l-0.7,0.3l-5.1,2.4l-0.6,0.3
	l-1.2,0.6c-0.3,0.1-0.4,0.4-0.4,0.7l-1,1.7c-0.1,0.1-0.1,0.2-0.1,0.3c0,0.2,0.1,0.3,0.2,0.4c0.2,0.1,0.5,0.1,0.7-0.2l0.9-1.7
	c0,0,0,0,0,0l7.1-3.3l0.5-0.3c0.1,0,0.1-0.1,0.2-0.1c0.2-0.1,0.3-0.1,0.4-0.3c0-0.1-0.1-0.3-0.1-0.4c0,0,0-0.1,0-0.1
	c0.3-0.2,0.5-0.5,0.6-0.7c0.4-0.5,0.6-1.1,0.9-1.7c0.1-0.3,0.1-0.6,0.1-0.9c0-0.3,0-0.6,0-0.8c0-0.6-0.1-1.2-0.2-1.8
	c0.1-0.1,0.2-0.2,0.3-0.4c0.2,0,0.4-0.1,0.6-0.2c0.3-0.2,0.7-0.3,1-0.5c0.2-0.1,0.5-0.2,0.7-0.3c0.2-0.1,0.4-0.2,0.6-0.3
	c0.4-0.2,0.7-0.5,1-0.8c0,0,0.1-0.1,0.1-0.1c0.1,0.3,0.2,0.7,0.3,1c-0.5,0.3-1,0.7-1.4,1.2c-0.3,0.3-0.5,0.6-0.7,0.9
	c0,0.1-0.1,0.1-0.1,0.2c0,0,0,0,0,0l0,0c0,0.1-0.1,0.1-0.1,0.2c0,0,0,0,0,0c0,0.1,0,0.1-0.1,0.2c0,0,0,0,0,0c0,0.1,0,0.1,0,0.2
	c0,0,0,0,0,0c0,0.1,0,0.1,0,0.2c0,0-0.1,0-0.1,0.1c0,0-0.1,0-0.1,0.1c0,0,0,0,0,0c0,0,0,0,0,0c0,0,0,0,0,0c-0.1,0.1-0.1,0.2-0.1,0.4
	c0,0.1,0,0.1,0.1,0.2c-0.1,0.2-0.1,0.3-0.2,0.5c-0.1,0.3-0.2,0.6-0.3,1c-0.2,0.6-0.5,1.2-0.7,1.8c-0.2,0.5-0.5,1-0.8,1.5
	c-0.1,0.1-0.3,0.4-0.2,0.5h0c0,0,0,0,0,0c-0.1,0-0.3,0-0.4,0.1l-0.6,0.5l-4.2,3.7l-0.5,0.4l-1,0.9c-0.2,0.2-0.3,0.5-0.1,0.7
	l-0.4,1.9c0,0,0,0,0,0l-0.4,1.9c-0.1,0.3,0.1,0.5,0.4,0.6c0.2,0,0.3,0,0.4-0.1c0.1-0.1,0.1-0.2,0.2-0.3l0.4-1.8c0,0,0,0,0-0.1
	l0.4-1.9c0,0,0,0,0,0l5.8-5.1c0,0,0,0.1-0.1,0.1l0.6,1.3c0,0,0,0,0,0l-0.5,0.6l-3.7,4.2l-0.4,0.5l-0.9,1c-0.2,0.2-0.2,0.5-0.1,0.7
	l-0.2,2c0,0,0,0.1,0,0.1l-0.2,1.8c0,0.3,0.2,0.5,0.4,0.5c0.2,0,0.3,0,0.4-0.2c0.1-0.1,0.1-0.2,0.1-0.3l0.2-1.9c0,0,0,0,0,0l0.2-2
	c0,0,0,0,0,0l5.2-5.9l0.4-0.4c0.2-0.2,0.2-0.6,0-0.8c0.3-0.1,0.5-0.4,0.7-0.6c0.4-0.5,0.6-1.2,0.8-1.8c0.1-0.3,0.1-0.6,0.2-0.9
	c0.1-0.3,0.1-0.6,0-0.9c0-0.3-0.1-0.7-0.2-1c0-0.2-0.1-0.3-0.1-0.5c0-0.1,0-0.2,0.1-0.2c0.1,0,0.1,0,0.2-0.1
	c0.3-0.1,0.4-0.3,0.4-0.4c0.2,0,0.3,0,0.5-0.1c0.9-0.1,1.7-0.6,2.3-1.2c0.2-0.2,0.4-0.4,0.6-0.7c-0.2,0.3-0.4,0.6-0.7,0.9
	c-0.3,0.3-0.8,0.8-0.5,1.2c0,0,0,0,0.1,0.1c-0.1,0,0,0.1,0,0.1c0,0,0,0,0,0l0,0c-0.1,0.2-0.2,0.3-0.4,0.5c-0.5,0.6-1,1.2-1.5,1.8
	c-0.3,0.3-0.9,1-0.7,1.5c0,0.1,0.1,0.1,0.2,0.1c0,0,0,0,0,0c-0.1,0.2-0.2,0.5-0.3,0.7c-0.1,0.3-0.3,0.6-0.4,0.9
	c-0.1,0.3-0.3,0.7-0.4,1c-0.1,0.2-0.5,1-0.2,1.1c0,0,0.1,0,0.1,0c0,0,0,0,0,0c0,0,0,0,0,0c-0.2,0.4-0.3,0.9-0.4,1.3
	c0,0.1,0,0.1,0,0.2c-0.1,0.5-0.3,1-0.3,1.6c0,0.2,0,0.4,0,0.6c0,0.2,0.1,0.3,0.1,0.5c0,0,0,0,0,0.1c0.1,0,0.1,0.1,0.2,0c0,0,0,0,0,0
	c0,0.2,0,0.4,0,0.5c0,0.1,0.8,2.4,1.5,4.3c-1.4,6.8,2.1,13.8,8.7,16.6c0.2,0.1,0.4,0.2,0.6,0.2c0.7,0.3,1.4,0.5,2.1,0.6
	c1.7,0.4,3.4,0.4,5.1,0.2c1.5-0.2,3-0.7,4.4-1.3c3.3-1.6,6-4.4,7.4-8.1c0.2-0.6,0.4-1.3,0.6-2C79.7,149.4,78.8,142.9,76.8,138.2
	 M47.8,112.1C47.8,112.1,47.8,112.1,47.8,112.1c0,0.1,0,0.1-0.1,0.1C47.7,112.1,47.7,112.1,47.8,112.1"/>
</svg>
