<?xml version="1.0" encoding="utf-8"?>
<!-- Generator: Adobe Illustrator 19.0.0, SVG Export Plug-In . SVG Version: 6.00 Build 0)  -->
<svg version="1.1" id="Calque_1" xmlns="http://www.w3.org/2000/svg" xmlns:xlink="http://www.w3.org/1999/xlink" x="0px" y="0px"
	 viewBox="0 0 96.2 96.2" style="enable-background:new 0 0 96.2 96.2;" xml:space="preserve">
<style type="text/css">
	.st0{clip-path:url(#XMLID_84_);fill:#71AAC4;}
	.st1{fill:#1F1D50;}
</style>
<g id="XMLID_80_">
	<g id="XMLID_81_">
		<defs>
			<rect id="XMLID_82_" x="1" y="1.2" width="93.9" height="93.9"/>
		</defs>
		<clipPath id="XMLID_84_">
			<use xlink:href="#XMLID_82_"  style="overflow:visible;"/>
		</clipPath>
		<path id="XMLID_83_" class="st0" d="M94.9,48.1c0,25.9-21,47-47,47c-25.9,0-47-21-47-47c0-25.9,21-47,47-47
			C73.9,1.2,94.9,22.2,94.9,48.1"/>
	</g>
</g>
<path id="XMLID_70_" class="st1" d="M69.8,55.5c-2.5-3.6-5.8-6.4-9.2-9.1c-0.8-0.6-1.6-1.3-2.7-2.2c1.7-0.3,3.2-0.5,4.5-0.8
	c1-0.2,2.2-0.3,2.9-0.9c2.2-2.1,3.4-4.8,3.9-7.8c0.1-0.7-0.1-1.3-0.8-1.3c-0.4,0-0.8,0.5-1.2,0.9c-0.1,0.1,0,0.4-0.1,0.5
	c-0.8,1.8-1.6,3.7-2.5,5.5c-0.2,0.4-0.7,0.8-1.2,0.9c-1.6,0.4-3.2,0.6-4.8,0.8c-0.2,0-0.7-0.2-0.8-0.4c-0.4-1-0.8-2-1.1-2.8
	c1.6-1.8,3.2-3.5,4.8-5.2c0.3-0.4,0.6-1.1,0.5-1.5c-0.7-2.8-1.6-5.6-2.4-8.4c-0.1-0.3-0.8-0.7-1.1-0.6c-0.3,0.1-0.6,0.6-0.7,1
	c-0.1,0.3,0.1,0.7,0.2,1.1c0.6,2.1,1.2,4.1,1.8,6.2c0.1,0.3,0.2,0.8,0.1,1c-0.9,1.2-1.8,2.3-2.9,3.6c0-1.5,0.1-2.7,0-3.9
	c-0.4-3-1.7-4.4-4.7-5.1c-0.2-0.1-0.4-0.2-0.6-0.4c-2-2.1-5.3-2.1-7.3,0c-0.2,0.2-0.5,0.4-0.8,0.4c-1.6,0-2.6,1-3.4,2.2
	c-1.3,2-1.3,4.3-0.9,6.6c-0.8-0.7-1.6-1.5-2.3-2.3c-0.8-0.8-0.8-1.6-0.5-2.6c0.7-2,1.2-4.1,1.8-6.2c0.2-0.7,0.4-1.4-0.5-1.7
	c-0.9-0.3-1.3,0.4-1.5,1.2c-0.4,1.5-0.8,3-1.3,4.5c-1.4,4.3-1.3,4.6,1.9,7.7c0.2,0.2,0.4,0.4,0.7,0.6c0.6,0.5,1.5,0.9,1.7,1.5
	c0.2,0.6-0.4,1.4-0.7,2.1c0,0.1-0.1,0.3-0.1,0.4c-0.1,0.8-0.5,1.2-1.3,0.9c-0.7-0.2-1.5-0.3-2.2-0.3c-2.4,0-3.9-1.3-4.8-3.4
	c-0.1-0.2-0.2-0.4-0.3-0.6c-0.3-1.1-0.6-2.3-1.1-3.4c-0.2-0.4-0.8-0.6-1.2-0.9c-0.2,0.4-0.5,0.8-0.7,1.2c-0.1,0.2,0,0.4,0.1,0.7
	c0.6,2.7,1.7,5.1,3.6,7.1c0.4,0.4,1.1,0.7,1.7,0.9c1.8,0.4,3.7,0.7,5.8,1c-0.7,0.6-1.2,1-1.7,1.4c-3.7,2.8-7.3,5.7-10,9.6
	c-1.6,2.3-2.8,4.9-3.5,7.6c-0.1,0.4,0.1,1,0.4,1.4c0.1,0.2,0.8,0.2,1,0c0.3-0.3,0.5-0.7,0.6-1.1c0.9-3.7,2.8-6.7,5.3-9.5
	c1-1.1,2.1-2,3.2-3.1c-1.2,2.9-2.7,5.5-3.9,8.3c-1.3,2.9-2.3,6-2.1,9.3c0.2,3.3,2.1,5.1,5.3,5c3.2-0.1,6.1-1.1,8.5-3.2
	c0.3-0.2,0.6-0.4,0.9-0.7c1.6,1.9,3.2,3.5,5.8,3.5c2.6,0,4.2-1.8,5.8-3.5c2.9,2.8,6.3,4,10.2,3.9c1.5,0,2.7-0.6,3.5-2
	c1.1-1.9,1.2-3.9,0.9-5.9c-0.6-3.9-2.3-7.4-4.1-10.8c-0.6-1.2-1.3-2.4-1.9-3.6c0.1,0,0.1-0.1,0.2-0.1c0.2,0.1,0.4,0.2,0.5,0.3
	c3.8,3.4,6.8,7.2,8.1,12.2c0.2,0.7,0.5,1.2,1.3,1c0.8-0.2,0.8-0.8,0.6-1.5C72.5,60.2,71.4,57.8,69.8,55.5 M51.4,29.7
	c0.8-0.8,2-0.8,2.6,0.2c0.6,1,0.9,2.2,1.4,3.4c-0.4,1.1-0.7,2.1-1.2,2.9c-0.8,1.3-2.2,1.2-3.1,0.1C49.7,34.5,49.9,31.2,51.4,29.7
	 M50.1,27.8c-0.7,1.3-1.4,2.6-2,3.8c-0.6-1.2-1.2-2.4-1.9-3.8C47.5,26.7,48.8,26.7,50.1,27.8 M49.6,37.9h-3.1c0.5-1.1,1-2.2,1.5-3.2
	C48.5,35.7,49.1,36.8,49.6,37.9 M42.4,29.6c0.8-0.8,1.9-0.8,2.5,0.3c0.6,1,0.9,2.2,1.4,3.3c-0.4,1.1-0.6,2-1.1,2.8
	c-0.9,1.4-2.4,1.4-3.4,0.1C40.6,34.4,40.9,31.1,42.4,29.6 M43.2,39.3c3.3,1.2,6.6,1.1,9.9,0c1.4-0.5,1.6-0.4,2.1,1.1
	c-0.5-0.1-1-0.3-1.4-0.1c-0.4,0.2-0.7,0.7-1,1.2c-1.2,2.4-1.6,5-2,7.7c-0.1,0.9-0.3,1.8-0.3,2.6c0,1-0.5,1.3-1.3,1.3
	c-0.4,0-0.7,0.1-1.1,0.1c-2-0.1-2.1-0.3-2.4-2.3c-0.4-3.3-0.7-6.6-2.3-9.6c-0.7-1.3-1-1.4-2.4-0.7C41.6,38.8,41.7,38.7,43.2,39.3
	 M42.4,65.9c-2.4,3.9-6.1,5.3-10.5,5.3c-1.3,0-1.7-1-2-2c-0.6-2-0.2-4.1,0.4-6c2-6.3,5.4-11.9,9.2-17.2c0.6-0.8,1.3-1.6,1.9-2.4
	c0.1-0.1,0.2-0.1,0.6-0.4c0.5,2.1,1.1,4.1,1.4,6.1c0.4,3.3,0.6,6.7,0.7,10.1C44.1,61.6,43.6,63.9,42.4,65.9 M52.2,68
	c-0.8,0.8-1.6,1.7-2.5,2.3c-1.6,1-3.3,0.5-4.9-1.2c-1.2-1.3-1.1-1.3-0.4-2.8c1.1-2.2,1.6-4.6,1.6-7.1c0-1.4,0-2.7,0-4.1h4
	c0,1.1,0,2,0,3c-0.1,3.2,0.5,6.3,2.1,9C52.4,67.4,52.4,67.9,52.2,68 M65.7,62.6c0.5,1.6,0.7,3.4,0.8,5.1c0.1,2.6-1.3,3.8-3.9,3.5
	c-6.1-0.7-10-4.5-10.4-10.6c-0.4-5.2,0-10.4,1.4-15.5c0.1-0.5,0.3-1,0.5-1.5c0-0.1,0.1-0.2,0.3-0.4c0.9,1.2,1.8,2.3,2.6,3.4
	C60.6,51.6,63.8,56.8,65.7,62.6"/>
<path id="XMLID_67_" class="st1" d="M48.1,0C21.6,0,0,21.6,0,48.1c0,26.5,21.6,48.1,48.1,48.1s48.1-21.6,48.1-48.1
	C96.2,21.6,74.7,0,48.1,0 M93.7,48.1c0,25.1-20.4,45.6-45.6,45.6S2.6,73.2,2.6,48.1S23,2.6,48.1,2.6S93.7,23,93.7,48.1"/>
</svg>
