<?xml version="1.0" encoding="utf-8"?>
<!-- Generator: Adobe Illustrator 19.0.0, SVG Export Plug-In . SVG Version: 6.00 Build 0)  -->
<svg version="1.1" id="Calque_1" xmlns="http://www.w3.org/2000/svg" xmlns:xlink="http://www.w3.org/1999/xlink" x="0px" y="0px"
	 viewBox="0 0 96.2 96.2" style="enable-background:new 0 0 96.2 96.2;" xml:space="preserve">
<style type="text/css">
	.st0{clip-path:url(#XMLID_28_);fill:#71AAC4;}
	.st1{fill:#1F1D50;}
</style>
<g id="XMLID_457_">
	<g id="XMLID_458_">
		<defs>
			<rect id="XMLID_459_" x="1.4" y="1.2" width="93.9" height="93.9"/>
		</defs>
		<clipPath id="XMLID_28_">
			<use xlink:href="#XMLID_459_"  style="overflow:visible;"/>
		</clipPath>
		<path id="XMLID_460_" class="st0" d="M95.3,48.1c0,25.9-21,47-47,47c-25.9,0-47-21-47-47c0-25.9,21-47,47-47
			C74.3,1.2,95.3,22.2,95.3,48.1"/>
	</g>
</g>
<path id="XMLID_467_" class="st1" d="M74.9,56.9c-1.4,0.6-2.8,1.1-4.6,1.8c0.8-3.5,0.7-6.5-0.3-9.5c-1-3-3-5.4-5.3-7.6
	c5.4-2.8,7.2-7.4,6.5-13c-0.5-4.2-2.4-7.6-6.7-9.1c-3.5-1.3-5.4-0.2-6.5,3.4c-0.5,1.5-1.2,2.9-2,4.2c-0.3,0.4-1.2,0.8-1.8,0.7
	c-2.2-0.5-4.2-0.2-6,1.2c-1.9-1.5-4.1-1.9-6.4-1.1c-1.1,0.4-1.9,0.1-2.3-0.8c-0.8-1.6-1.6-3.3-2.2-5.1c-0.9-2.4-2.3-3.3-4.8-3
	c-1.9,0.3-3.5,1.1-4.9,2.5c-3.1,3.2-3.9,7.1-3.2,11.3c0.5,3.4,2.2,6.2,5.2,7.9c0.5,0.3,1.1,0.6,1.7,0.9c-2.4,2.2-4.2,4.6-5.2,7.5
	c-1,2.9-1.1,6-0.3,9.5c-1.9-0.8-3.4-1.3-4.8-2c-0.7-0.3-1.5-0.6-1.8,0.3c-0.1,0.4,0.4,1.3,0.8,1.5c1.6,0.8,3.3,1.6,5,1.9
	c1.7,0.3,2.2,1.3,2.8,2.9c-2.2,0.1-4.2,0.2-6.3,0.2c-0.8,0-1.6,0-1.5,1.1c0,1.1,0.9,1,1.6,1c2.3-0.1,4.6-0.3,6.9-0.3
	c0.6,0,1.2,0.3,1.7,0.6c2.4,1.6,4.8,3.2,7.2,4.9c0.5,0.3,1,0.7,1.3,1.1c4.9,6.9,13.7,6.9,18.6,0c0.3-0.4,0.7-0.9,1.1-1.1
	c2.8-1.1,5.2-2.8,7.4-4.9c0.4-0.4,1.1-0.6,1.6-0.6c2.3,0,4.7,0.3,7,0.3c0.5,0,1.4-0.5,1.4-0.9c0.2-1-0.7-1.1-1.5-1.1
	c-2-0.1-4.1-0.2-6.2-0.2c0.5-1.8,1.4-2.6,3-3c1.6-0.3,3-1.1,4.5-1.7c0.7-0.3,1.7-0.7,1.1-1.8C76.3,55.9,75.6,56.6,74.9,56.9
	 M60.6,22.1c0.2-0.5,1.4-0.9,2-0.9c2.2,0.2,3.8,1.5,4.9,3.3c2.8,4.1,2.1,10.4-1.5,13.6c-0.6,0.5-1.3,0.8-2,1.3
	c-0.9-4.4-3.1-7.7-6.5-10.1C58.6,26.9,59.4,24.4,60.6,22.1 M30,38.6C24.8,35,25.2,25.3,30.5,22c0.4-0.2,0.8-0.4,1.2-0.6
	c2.4-0.8,3-0.4,3.8,2c0.7,2,1.7,4,2.7,6.2c-3,2.3-5.2,5.6-6,10C31.4,39.3,30.6,39,30,38.6 M68.3,57.8c-0.3,1.1-0.8,1.6-1.9,1.6
	c-0.9,0-1.9,0.1-2.8,0.3c-0.4,0.1-0.8,0.7-1.1,1c0.4,0.3,0.8,0.9,1.2,0.9c0.8,0.1,1.7-0.1,2.7-0.1c-0.2,1.2-0.8,1.5-1.9,1.4
	c-0.6-0.1-1.3,0.3-1.9,0.4c0.2,0.6,0.5,1.2,0.9,2.1c-1.1,0.8-2.6,1.8-4.2,3c0.4-2.5,0.7-4.7,1-6.9c0-0.3,0-0.7,0.1-1
	c0-0.7-0.2-1.5-1.1-1.4c-0.4,0.1-0.9,0.8-1,1.3c-0.2,3.1-0.7,6.1-2,8.9c-1.7,3.5-4.3,5.7-8.3,5.8c-4,0-6.8-2-8.3-5.6
	c-0.8-1.8-1.3-3.7-1.8-5.5c-0.3-1.2-0.2-2.4-0.4-3.6c-0.1-0.5-0.7-0.9-1-1.3c-0.3,0.5-1,0.9-0.9,1.3c0.2,2.1,0.5,4.2,0.8,6.4
	c0.1,0.4,0.2,0.8,0.3,1.2c-0.1,0.1-0.2,0.2-0.3,0.3c-1.4-1-2.9-2-4.5-3.1c0.5-0.3,0.7-0.3,0.9-0.5c0.2-0.4,0.6-1,0.5-1.1
	c-0.4-0.3-0.9-0.7-1.4-0.7c-1.8,0.1-1.8,0.2-2.5-1.3c0.9,0.1,1.7,0.2,2.5,0.1c0.6-0.1,1.4-0.5,1.5-0.9c0.2-0.9-0.5-1.1-1.3-1.1
	c-0.6,0-1.3-0.2-1.9-0.2c-2.3-0.2-2.5-0.5-2.8-2.9c-0.7-5.4,1.4-9.7,5.4-13.2c0.9-0.8,1.3-1.6,1.5-2.8c0.7-4.5,2.9-7.9,7.1-9.9
	c2.1-1,4-0.9,5.9,0.6c0.4,0.3,1.4,0.3,1.7,0.1c2.2-2,4.6-1.5,6.8-0.2c3.8,2.3,5.8,5.7,6.4,10.2c0.1,0.8,0.7,1.8,1.4,2.4
	C67.7,47.3,69.6,52,68.3,57.8"/>
<path id="XMLID_464_" class="st1" d="M48.1,0C21.6,0,0,21.6,0,48.1c0,26.5,21.6,48.1,48.1,48.1c26.5,0,48.1-21.6,48.1-48.1
	C96.2,21.6,74.7,0,48.1,0 M93.7,48.1c0,25.1-20.4,45.6-45.6,45.6S2.6,73.2,2.6,48.1S23,2.6,48.1,2.6S93.7,23,93.7,48.1"/>
<path id="XMLID_463_" class="st1" d="M51.3,68.8c-0.9-0.2-1.9-0.4-2.8-0.5c-1,0.2-1.9,0.2-2.8,0.4c-1.4,0.4-1.8,1.2-1.1,2.5
	c0.8,1.6,2.2,2.3,3.9,2.3c1.6,0,3.2-1.1,3.8-2.5C52.7,69.9,52.5,69.1,51.3,68.8"/>
<path id="XMLID_462_" class="st1" d="M66.5,32.6c-0.7-0.4-1.4-0.5-2.4-0.8c-0.3,0.3-0.8,0.6-0.9,0.9c-0.1,0.3,0.3,0.9,0.6,1.1
	c0.6,0.3,1.3,0.6,2,0.7c0.4,0,1-0.4,1.2-0.7C67.2,33.5,66.8,32.8,66.5,32.6"/>
<path id="XMLID_461_" class="st1" d="M65,28.9c0.8-0.2,1.4-0.7,2.4-1.3c-0.6-0.6-1-1.1-1.2-1.1c-1,0.3-2.1,0.7-3,1.1
	c-0.1,0.1,0,1.1,0.1,1.1C63.8,29,64.4,29.1,65,28.9"/>
</svg>
