<?xml version="1.0" encoding="utf-8"?>
<!-- Generator: Adobe Illustrator 19.0.0, SVG Export Plug-In . SVG Version: 6.00 Build 0)  -->
<svg version="1.1" id="Calque_1" xmlns="http://www.w3.org/2000/svg" xmlns:xlink="http://www.w3.org/1999/xlink" x="0px" y="0px"
	 viewBox="0 0 96.2 96.2" style="enable-background:new 0 0 96.2 96.2;" xml:space="preserve">
<style type="text/css">
	.st0{fill:#1F1D50;}
</style>
<path id="XMLID_71_" class="st0" d="M47.8,45.7h-6.3c-0.9,0-1.7-0.8-1.7-1.7c0-0.9,0.8-1.7,1.7-1.7h6.3c0.9,0,1.7,0.8,1.7,1.7
	C49.5,44.9,48.8,45.7,47.8,45.7"/>
<path id="XMLID_70_" class="st0" d="M93.9,90.9c-0.1,0-0.1,0-0.2,0c-0.8-0.1-1.4-0.7-1.5-1.5c-1.2-9.8-7.9-10-8.2-10H15.2
	c-4.1,0-7.8-2-10.1-5.3C2.4,70,1,65.4,1,60.8c0-4.7,1.4-9.1,4.1-13.1c2.3-3.4,6.2-5.5,10.3-5.5h20.9c0.9,0,1.7,0.8,1.7,1.7
	c0,0.9-0.8,1.7-1.7,1.7H15.4c-3,0-5.8,1.5-7.5,3.9C5.6,53,4.4,56.8,4.4,60.8c0,4,1.2,7.8,3.6,11.3c1.6,2.4,4.4,3.8,7.3,3.8H84
	c0.1,0,5.7,0.2,9.2,5.7c-0.1-3.6-1.1-7.8-4.6-10.9c-2.3-2-5.4-3.2-8.8-3.2H21.2c-2.7,0-5.1-1.4-6.4-3.6c-0.5-1-0.9-2-0.9-3.1
	c-0.1-1.4,0.3-2.9,1-4.1c1.3-2.1,3.7-3.4,6.3-3.4H71c0.9,0,1.7,0.8,1.7,1.7s-0.8,1.7-1.7,1.7H21.2c-1.4,0-2.8,0.7-3.4,1.8
	c-0.4,0.7-0.6,1.4-0.5,2.2c0,0.6,0.2,1.1,0.5,1.6c0.6,1.1,2,1.8,3.4,1.8h58.6c4.2,0,8.1,1.4,11,4c9,7.9,4.8,21,4.6,21.5
	C95.3,90.4,94.6,90.9,93.9,90.9"/>
<path id="XMLID_69_" class="st0" d="M8,48.4c-0.3,0-0.6-0.1-0.9-0.2c-0.8-0.5-1.1-1.5-0.6-2.3l16.1-27.3c1.5-2.5,4.2-4,7.1-4h28.8
	c2.8,0,5.4,1.5,6.8,3.8l15,24.7c0.3,0.5,0.3,1.2,0,1.7c-0.3,0.5-0.9,0.9-1.5,0.9H52.4c-0.9,0-1.7-0.8-1.7-1.7c0-0.9,0.8-1.7,1.7-1.7
	h23.5L62.4,20.1c-0.8-1.4-2.3-2.2-3.9-2.2H29.7c-1.7,0-3.3,0.9-4.1,2.4L9.5,47.6C9.2,48.1,8.6,48.4,8,48.4"/>
<path id="XMLID_68_" class="st0" d="M78.9,67.6c-0.2,0-0.4,0-0.6-0.1c-0.9-0.3-1.3-1.3-1-2.2c0-0.1,4.7-12.9,0.1-20.4
	C77,44,77.2,43,78,42.5c0.8-0.5,1.9-0.2,2.3,0.6c5.4,8.9,0.4,22.8,0.1,23.4C80.3,67.1,79.6,67.6,78.9,67.6"/>
</svg>
