<?xml version="1.0" encoding="utf-8"?>
<!-- Generator: Adobe Illustrator 19.0.0, SVG Export Plug-In . SVG Version: 6.00 Build 0)  -->
<svg version="1.1" id="Calque_1" xmlns="http://www.w3.org/2000/svg" xmlns:xlink="http://www.w3.org/1999/xlink" x="0px" y="0px"
	 viewBox="0 0 74.1 85.7" style="enable-background:new 0 0 74.1 85.7;" xml:space="preserve">
<style type="text/css">
	.st0{fill:#199BAC;}
</style>
<path class="st0" d="M71.5,40.9c-1.6-1.2-3-1.3-4-1.1c-1.6,0.3-3.1,1.4-4.4,3.2c-0.9,1.2-1.6,2.5-2.4,3.7c-0.5,0.9-1.1,1.7-1.6,2.6
	c-3.1,4.6-6.3,7.2-11.6,8.9c-0.6-2.1-1.7-3.7-3.4-4.7c-1.8-1.1-4-1.4-6-1.7C22.9,49.8,12.9,55.4,7.4,69c-1.1,2.8-2.8,5.4-4.7,8.2
	c-0.8,1.3-1.7,2.6-2.5,3.9c-0.3,0.5-0.3,1.1-0.2,1.6c0.2,0.5,0.6,1,1.1,1.2c3.3,1.2,6.4,1.8,9.2,1.8c1.4,0,2.8-0.2,4.1-0.5
	c4.1-1,7.4-3.3,9.9-7.1c1.2-1.7,2.2-2,4.2-2c2.1,0,4.3,0,6.4,0c2.9,0,6-0.1,9,0.1c0.4,0,0.8,0,1.2,0c6.6,0,11.4-2.6,14.8-7.8
	c3.9-6,8-12.1,12.5-18.8c1.1-1.6,1.6-3.2,1.4-4.7C73.9,43.4,73,42,71.5,40.9 M69.5,47.6c-4.6,6.7-8.7,12.9-12.6,18.9
	c-2.8,4.4-6.7,6.3-12.6,6c-3.1-0.1-6.2-0.1-9.2-0.1c-2.1,0-4.2,0-6.3,0c-2.9-0.1-5.3,0.5-7.4,3.7c-2,2.9-4.5,4.8-7.6,5.5
	c-2.6,0.6-5.6,0.4-8.9-0.5c0.4-0.6,0.8-1.2,1.2-1.8c1.8-2.8,3.7-5.7,5-8.9c2.5-6.1,5.8-10.3,10.3-12.7c4.3-2.3,9.7-3.1,16.4-2.2
	c4,0.5,5.6,1.1,6.2,3.6c-3.4,0.7-6.8,0.8-10.3,1c-2,0.1-4,0.2-6.1,0.4c-1,0.1-1.8,1-1.7,2.1c0.1,1,1,1.8,2.1,1.7
	c2-0.2,4-0.3,5.9-0.3c4.7-0.2,9.6-0.4,14.7-2c6.3-2,10.4-5,14-10.5c0.6-0.9,1.1-1.8,1.7-2.7c0.7-1.2,1.5-2.4,2.3-3.6
	c0.6-0.9,1.3-1.5,1.9-1.6c0.1,0,0.5-0.1,1.1,0.4C70.8,45.1,70.3,46.4,69.5,47.6"/>
<path class="st0" d="M31.6,29.3c0,0.1,0.1,0.2,0.1,0.3v17.9c0,0.9,0.7,1.6,1.6,1.6c0.9,0,1.6-0.7,1.6-1.6v-15
	c0.9,0.4,2.1,0.7,3.5,0.8c2.6,0.2,6.5-0.6,10.1-5.3C55,19.6,51.2,2,51.1,1.3c-0.1-0.4-0.4-0.8-0.8-1.1C49.9,0,49.4-0.1,49,0.1
	C40.4,3,34.7,7.6,32,13.7c-0.3,0.6-0.5,1.2-0.7,1.8c-2.5-2.5-7.4-6.1-15.8-6.3c-0.8,0-1.6,0.6-1.6,1.5c0,0.3-0.7,8.1,4.4,13.6
	C21.4,27.5,25.9,29.2,31.6,29.3 M34.9,15c2.1-4.8,6.6-8.6,13.3-11.2c0.3,1.7,0.7,4.5,0.8,7.6c0.2,6.7-0.8,11.7-3.1,14.7
	c-2.2,2.8-4.6,4.2-7.2,4.1c-2-0.1-3.4-1-3.4-1l-0.4,0.6v-0.4c0-0.2,0-0.4-0.1-0.6c0,0-0.2-0.6-0.5-1.5c0,0,0,0,0,0
	C33.6,24.8,32.8,19.9,34.9,15 M27.2,16.1c2,1.5,3,3,3.3,3.4c-0.3,2.5-0.1,4.8,0.3,6.6c-4.3-0.3-7.7-1.6-10-4.1
	c-2.9-3.1-3.5-7.3-3.6-9.6C21,12.8,24.4,14,27.2,16.1"/>
</svg>
