<?xml version="1.0" encoding="utf-8"?>
<!-- Generator: Adobe Illustrator 19.0.0, SVG Export Plug-In . SVG Version: 6.00 Build 0)  -->
<svg version="1.1" id="Calque_1" xmlns="http://www.w3.org/2000/svg" xmlns:xlink="http://www.w3.org/1999/xlink" x="0px" y="0px"
	 viewBox="0 0 96.2 96.2" style="enable-background:new 0 0 96.2 96.2;" xml:space="preserve">
<style type="text/css">
	.st0{clip-path:url(#XMLID_79_);fill:#71AAC4;}
	.st1{fill:#1F1D50;}
</style>
<g id="XMLID_75_">
	<g id="XMLID_76_">
		<defs>
			<rect id="XMLID_77_" x="1.2" y="1.2" width="93.9" height="93.9"/>
		</defs>
		<clipPath id="XMLID_79_">
			<use xlink:href="#XMLID_77_"  style="overflow:visible;"/>
		</clipPath>
		<path id="XMLID_78_" class="st0" d="M95.1,48.1c0,25.9-21,47-47,47c-25.9,0-47-21-47-47c0-25.9,21-47,47-47
			C74.1,1.2,95.1,22.2,95.1,48.1"/>
	</g>
</g>
<path id="XMLID_71_" class="st1" d="M60.5,39.4c0.4,0,0.7,0,1.1,0c0.6,0,1.5,0,2.3-0.1c3.8-0.4,6.6-1.9,8.5-4.5c0.7-1,0.7-1.5,0.1-2
	c-0.6-0.5-1.1-0.3-1.8,0.6c-1.3,1.7-3,2.8-5.3,3.3c-1.1,0.3-2.3,0.4-3.6,0.4c-0.6,0-1.2,0-1.8-0.1c-0.6-0.1-1.1-0.1-1.8-0.2
	c-0.2,0-0.4-0.1-0.7-0.1c-0.1,0-0.3,0-0.4-0.1c-0.2-0.4-0.3-0.7-0.4-0.9c-0.1-0.3-0.3-0.5-0.5-0.8c1.1,0,2.1-0.2,3.1-0.3
	c4.5-0.9,7.6-2.8,9.5-5.8c0.3-0.5,0.4-0.8-0.1-1.2c-1.4-1.4-2.9-2.8-4.2-4.2c-0.4-0.4-0.8-0.8-1.2-1.2c-0.7-0.7-1.2-0.8-1.8-0.3
	c-0.3,0.3-0.4,0.5-0.4,0.7c0,0.3,0.2,0.7,0.6,1.1c0.4,0.4,0.8,0.8,1.3,1.3c0.8,0.8,1.6,1.6,2.4,2.4c0.4,0.4,0.6,0.7,0.6,1
	c0,0.4-0.3,0.8-0.6,1.1c-1.2,1.1-2.7,1.9-4.5,2.5c-0.6,0.2-1.3,0.4-2,0.5c-1.5,0.3-3,0.4-4.5,0.4c-0.1-0.1-0.1-0.1-0.2-0.2
	c-0.3-0.3-0.5-0.5-0.7-0.7c-0.1-0.1-0.2-0.1-0.3-0.2c0-0.3,0-0.6,0-1c0-1.2,0-2.4-0.1-3.6c-0.1-1.9-0.6-4.4-3.1-6.2
	c-0.3-0.2-0.6-0.2-0.9-0.1c-0.3,0.1-0.5,0.5-0.5,0.8l0,0.6l0,0.8c0,0.5,0,0.9,0,1.4c0,1.1,0,2.2,0,3.2c0,0.2-0.1,0.4-0.2,0.5
	c-0.1,0.1-0.3,0.1-0.4,0.1c-0.2,0-0.5,0-0.5-0.6c0-0.4,0-0.7,0-1.1c0-0.2,0-0.3,0-0.5c0-1,0-2.1,0-3.2v-1.2c0-0.3-0.2-0.7-0.5-0.8
	c-0.3-0.1-0.7-0.1-0.9,0.1c-1.8,1.4-2.4,3-2.8,4.3c-0.4,1.6-0.4,3.1-0.3,4.6c0,0.5,0,0.9,0,1.4c0,0.2-0.1,0.6-0.3,0.9
	c-0.2,0.1-0.4,0.2-0.6,0.4c-0.3,0-0.6,0-0.9,0c-0.8,0-1.7,0-2.5-0.1c-3.4-0.4-5.9-1.4-7.8-3.2c-0.3-0.3-0.6-0.6-0.6-1.1
	c0-0.3,0.2-0.6,0.6-1c0.8-0.7,1.6-1.5,2.3-2.3c0.5-0.5,0.9-0.9,1.4-1.4c0.4-0.4,0.7-0.8,0.7-1.1c0-0.2-0.1-0.5-0.4-0.7
	c-0.2-0.2-0.4-0.3-0.7-0.3c-0.3,0-0.6,0.2-1.1,0.6l-0.7,0.7c-1.5,1.6-3.1,3.2-4.7,4.7c-0.4,0.4-0.5,0.7-0.1,1.2
	c1.1,1.8,2.6,3.2,4.5,4.2c0.7,0.4,1.4,0.7,2.1,1c0.4,0.1,0.7,0.3,1.1,0.4c1.5,0.4,3.1,0.7,4.8,0.8c-0.2,0.3-0.3,0.6-0.5,0.9
	c0,0.1-0.1,0.3-0.4,0.9c-0.8,0.2-1.6,0.3-2.4,0.4c-7,0.7-9.8-1.8-11.4-4c-0.3-0.4-0.5-0.5-0.9-0.5c-0.2,0-0.4,0.1-0.7,0.2
	c-0.6,0.4-0.7,0.9-0.3,1.6c0.2,0.4,0.5,0.7,0.8,1.1c1.9,2.2,4.5,3.5,8,3.9c1,0.1,2.1,0.1,3.1,0l0.3,0c0.4,0,0.8,0,1.3-0.1
	c0.4,0,0.8,0,1.1,0c-0.2,0.6-0.5,1.3-0.8,2c0,0.1,0,0.1-0.1,0.2c-4.5,2.7-8.5,3.5-12.6,2.5c-0.1,0-0.3-0.1-0.4-0.1
	c-0.2,0-0.5,0.1-0.6,0.2c-0.2,0.1-0.4,0.4-0.4,0.7c-0.1,0.9,0.7,1.2,1.2,1.3c2.8,0.6,5.6,0.6,8.2-0.2c0.3-0.1,0.7-0.2,1-0.3
	c0.6-0.2,1.2-0.4,1.8-0.6c0.3-0.1,0.5-0.2,0.8-0.3c-0.2,0.7-0.4,1.4-0.5,2c-7.4,8.3-7.4,19.6,0.1,27.9c0.4,0.4,1.1,1,1.8,0.4
	c0.2-0.2,0.3-0.3,0.3-0.5c0-0.3-0.2-0.7-0.6-1.2c-1.4-1.6-2.5-3.3-3.3-5c-0.6-1.3-1.1-2.7-1.4-4c-0.1-0.2-0.1-0.4-0.1-0.7
	c-0.1-0.7-0.2-1.4-0.3-2.1l0-0.1c-0.2-3.3,0.7-6.5,2.6-9.7c0,0.3-0.1,0.6-0.1,0.9c0,0.4-0.1,0.7-0.1,1.1c-0.2,2.1-0.3,4.3,0.1,6.4
	c1.4,6.2,6.9,10.7,12.9,10.7c0.4,0,0.9,0,1.3-0.1c7.4-0.8,12.4-6.3,12.4-13.6c0-1.5-0.1-3-0.2-4.5c0-0.4-0.1-0.7-0.1-1.1
	c3.3,5.3,3.5,10.9,0.7,16.7c-0.8,1.6-1.9,3.2-3.4,5.1c-0.3,0.3-0.4,0.6-0.3,0.9c0,0.2,0.2,0.5,0.4,0.6c0.3,0.2,0.5,0.3,0.7,0.3
	c0.3,0,0.5-0.2,0.7-0.5c0.3-0.4,0.6-0.8,0.9-1.2c0.6-0.7,1.1-1.5,1.6-2.2c1.3-2,2.2-4,2.7-6.1c0.2-0.9,0.4-1.7,0.5-2.6
	c0.1-1.1,0.2-2.2,0.1-3.4c0-0.1,0-0.1,0-0.2l0-0.1c-0.1-1.4-0.4-2.9-0.9-4.3c-0.1-0.4-0.2-0.7-0.4-1.1l0-0.1c0-0.1,0-0.1-0.1-0.2
	c-0.9-2.3-2.2-4.5-4-6.5c0-0.2-0.1-0.4-0.1-0.7l0-0.2c-0.1-0.5-0.2-1-0.4-1.4c0.2,0.1,0.4,0.2,0.6,0.3c0.1,0.1,0.2,0.1,0.4,0.2
	c4,1.6,7.3,1.8,10.6,0.9c0.5-0.2,0.9-0.4,1-0.6c0.1-0.2,0.1-0.5,0-0.8c-0.2-0.7-0.7-0.9-1.7-0.7c-1.7,0.4-3.3,0.5-5,0.3
	c-0.9-0.1-1.9-0.3-2.8-0.7c-0.2-0.1-0.5-0.2-0.7-0.2c-0.3-0.1-0.5-0.2-0.8-0.3c-0.1-0.1-0.3-0.1-0.4-0.2c-0.3-0.1-0.5-0.2-0.8-0.4
	c-0.4-0.2-0.7-0.4-1.1-0.6c-0.2-0.1-0.3-0.2-0.5-0.3c-0.2-0.8-0.5-1.5-0.8-2.3c0.1,0,0.1,0,0.2,0C59.2,39.4,59.8,39.4,60.5,39.4
	 M41.1,41.6c0.6-2.5,1.6-4.8,2.6-6.9c0.2-0.4,0.5-1.2,0.6-1.4c0.1-0.3,0.5-1.2,0.5-1.9c0-0.5,0-1,0-1.4c0-1.4-0.1-2.8,0.3-4.1
	c0.2-0.6,0.4-1.2,0.7-1.8c0,0.7,0,1.4,0,2.1c0,0.1,0,0.3,0,0.4c0,0.4,0,0.8,0,1.2c0.1,1.4,0.9,2.3,2.2,2.3c0.8,0,1.4-0.3,1.7-0.6
	c0.4-0.4,0.7-1,0.7-1.8c0-1.1,0-2.2,0-3.3l0-0.5c0.7,1.1,0.8,2.2,0.9,3.4c0.1,1.1,0.1,2.3,0.1,3.4c0,0.5,0,1,0,1.6c0,0,0,0,0,0
	c0,0.1,0,0.1,0,0.2c0,0,0,0,0,0c0,0.1,0,0.1,0.1,0.2c1.4,2.7,2.9,5.6,3.6,8.7c0.3,1.6,0.7,3.4,0.3,5.1c-0.7,3.6-4.3,6.3-8.1,5.9
	c-3.8-0.4-6.7-3.6-6.7-7.4C40.7,43.9,40.9,42.7,41.1,41.6 M58.8,46.6l0,0.2c0.3,1.6,0.6,3.3,0.7,5.1c0,0.4,0.1,0.8,0.1,1.2
	c0.1,1.4,0.2,2.9,0.2,4.4c0,6.3-4.3,11.1-10.8,11.8c-5.6,0.6-11-3.4-12.3-9.2c-0.4-1.9-0.3-3.9-0.1-5.9c0-0.4,0.1-0.7,0.1-1.1
	c0.1-1.1,0.2-2.1,0.4-3.1l0-0.1c0.4-2.6,1.1-5.3,2.1-7.8c0.1-0.2,0.2-0.4,0.2-0.6c0,0.1,0,0.1,0,0.2c0,0.2-0.1,0.4-0.1,0.5
	c0,0.1,0,0.2-0.1,0.3c0,0.2-0.1,0.4-0.1,0.5c0,0.1,0,0.2,0,0.3c0,0.2,0,0.4-0.1,0.6c0,0.1,0,0.2,0,0.3c0,0.3,0,0.6,0,0.9
	c0,4.7,3.6,8.7,8.3,9.2c0.1,0,0.3,0,0.4,0c0.1,0,0.1,0,0.2,0c0.1,0,0.1,0,0.2,0h0c0,0,0.1,0,0.1,0c0.1,0,0.2,0,0.3,0
	c0.1,0,0.1,0,0.2,0c0.1,0,0.2,0,0.2,0c0.1,0,0.1,0,0.2,0c0.1,0,0.2,0,0.2,0c0.1,0,0.1,0,0.2,0c0.1,0,0.2,0,0.2,0c0.1,0,0.1,0,0.2,0
	c0.1,0,0.1,0,0.2,0c0.1,0,0.1,0,0.2,0c0.1,0,0.1,0,0.2-0.1c0.1,0,0.1,0,0.2-0.1c0.1,0,0.1,0,0.2-0.1c0.1,0,0.1,0,0.2-0.1
	c0.1,0,0.1-0.1,0.2-0.1c0.1,0,0.1,0,0.2-0.1c0.1,0,0.1-0.1,0.2-0.1c0.1,0,0.1,0,0.2-0.1c0.1,0,0.1-0.1,0.2-0.1
	c0.1,0,0.1-0.1,0.2-0.1c0.1,0,0.1-0.1,0.2-0.1c0.1,0,0.1-0.1,0.2-0.1c0.1,0,0.1-0.1,0.2-0.1c0,0,0.1-0.1,0.1-0.1
	c0.1,0,0.2-0.1,0.2-0.1c0,0,0.1-0.1,0.1-0.1c0.1-0.1,0.2-0.1,0.3-0.2c0,0,0.1,0,0.1-0.1c0.1-0.1,0.2-0.2,0.3-0.3l0,0
	c0.1-0.1,0.2-0.2,0.3-0.3c0,0,0.1-0.1,0.1-0.1c0.1-0.1,0.1-0.1,0.2-0.2c0,0,0.1-0.1,0.1-0.1c0.1-0.1,0.1-0.1,0.2-0.2
	c0,0,0.1-0.1,0.1-0.1c0.1-0.1,0.1-0.1,0.2-0.2c0,0,0.1-0.1,0.1-0.1c0.1-0.1,0.1-0.1,0.2-0.2c0,0,0.1-0.1,0.1-0.1
	c0-0.1,0.1-0.1,0.1-0.2c0,0,0.1-0.1,0.1-0.1c0-0.1,0.1-0.1,0.1-0.2c0,0,0.1-0.1,0.1-0.2c0-0.1,0.1-0.1,0.1-0.2
	c0-0.1,0.1-0.1,0.1-0.2c0-0.1,0.1-0.1,0.1-0.2c0-0.1,0.1-0.1,0.1-0.2c0-0.1,0.1-0.1,0.1-0.2c0-0.1,0.1-0.1,0.1-0.2
	c0-0.1,0.1-0.1,0.1-0.2c0-0.1,0-0.1,0.1-0.2c0-0.1,0.1-0.1,0.1-0.2c0-0.1,0-0.1,0.1-0.2c0-0.1,0.1-0.2,0.1-0.2c0-0.1,0-0.1,0-0.2
	c0-0.1,0-0.2,0.1-0.3c0,0,0-0.1,0-0.1c0-0.1,0.1-0.3,0.1-0.4c0.4-2,0-3.9-0.4-5.8c0-0.2-0.1-0.4-0.2-0.7c0-0.1,0-0.1,0-0.2
	c0-0.2-0.1-0.3-0.1-0.5c0,0,0,0,0-0.1c0.4,0.9,0.7,1.8,1,2.7c0.1,0.5,0.4,1.2,0.7,2.1C58.4,45.2,58.6,45.9,58.8,46.6"/>
<path id="XMLID_68_" class="st1" d="M48.1,0C21.6,0,0,21.6,0,48.1c0,26.5,21.6,48.1,48.1,48.1c26.5,0,48.1-21.6,48.1-48.1
	C96.2,21.6,74.7,0,48.1,0 M93.7,48.1c0,25.1-20.4,45.6-45.6,45.6S2.6,73.2,2.6,48.1S23,2.6,48.1,2.6S93.7,23,93.7,48.1"/>
</svg>
