<?xml version="1.0" encoding="utf-8"?>
<!-- Generator: Adobe Illustrator 19.0.0, SVG Export Plug-In . SVG Version: 6.00 Build 0)  -->
<svg version="1.1" id="Calque_1" xmlns="http://www.w3.org/2000/svg" xmlns:xlink="http://www.w3.org/1999/xlink" x="0px" y="0px"
	 viewBox="0 0 47.5 77.6" style="enable-background:new 0 0 47.5 77.6;" xml:space="preserve">
<style type="text/css">
	.st0{fill:#199BAC;}
</style>
<path class="st0" d="M45.6,16.4c-1.5-1.4-3.8-1.6-6-1.4c-0.1-2.5-0.8-4.5-2-6c-1.6-1.8-4-2.8-7.3-3c-0.2-1.4-0.8-2.7-1.6-3.7
	C27.6,1,26,0.2,24.1,0c-2.3-0.2-3.7,0.7-4.5,1.4c-1.5,1.4-2.2,3.6-2.1,6.5c0,0.4,0,0.9,0,1.3c-2.5-0.4-5-0.4-6.7,1
	c-2,1.6-2.2,4.5-2.3,7.3c0,4.3,0,8.6,0,12.9c-2.7-1.2-4.6-1.6-6.2-0.6C0.2,31.1,0,34.1,0,37.4c0,0.7,0,1.5,0,2.2c0,3.5,0,7.2,0,10.8
	c0,0.7,0,1.5,0,2.2c-0.1,3-0.1,6.1,1.3,9.3c2.1,4.8,6.1,9.2,10.9,12.2c3.8,2.3,7.7,3.5,11.4,3.5c1.3,0,2.5-0.1,3.7-0.4
	c6.7-1.6,11.9-4.7,15.4-9.2c3.2-4.1,4.9-9.4,4.8-15.3c-0.1-9.1-0.2-18.9,0-28.8C47.6,20.4,47.3,18,45.6,16.4 M43.7,23.8
	c-0.3,10-0.2,19.8,0,29c0.1,5.1-1.3,9.4-4,12.9c-3,3.8-7.4,6.4-13.3,7.8c-3.6,0.9-8.1-0.1-12.2-2.6c-4.2-2.5-7.6-6.3-9.4-10.4
	c-1-2.4-1-5-1-7.7c0-0.8,0-1.6,0-2.4c-0.1-3.6,0-7.2,0-10.8c0-0.7,0-1.5,0-2.2c0-3.2,0.3-4.1,0.5-4.4c0.3,0,1.2,0.1,4.2,1.5
	c0,0,0,0,0.1,0c0,1.8,0,3.6,0,5.4c0,3.2,0,6.4,0,9.7c0,0.9,0.6,1.7,1.5,1.8c7.7,1.6,11.6,5.9,12.1,13.2c0.1,1,0.9,1.8,1.9,1.8
	c0,0,0.1,0,0.1,0c1-0.1,1.8-1,1.8-2c-0.3-4.6-1.8-8.4-4.5-11.3c-2.2-2.3-5.3-4-9.1-5c0-2.8,0-5.5,0-8.2c0-7.7,0-15,0-22.4
	c0-2.4,0.3-3.9,0.9-4.4c0.8-0.7,3.2-0.3,4.4-0.1c0.1,5,0,10.1,0,15.1c0,2.7,0,5.4,0,8.1c0,1,0.8,1.9,1.9,1.9c1,0,1.9-0.8,1.9-1.9
	c0-2.7,0-5.4,0-8.1c0-6.7,0.1-13.5-0.1-20.3c0-1.7,0.3-3.1,0.9-3.7c0.1-0.1,0.5-0.5,1.6-0.4c0.8,0.1,1.5,0.4,2,0.9
	c0.7,0.9,1,2.4,0.8,4.1C26,15,26,21.3,26.1,27.3c0,3.3,0.1,6.7,0,10.1c0,1,0.8,1.9,1.8,1.9c0,0,0,0,0.1,0c1,0,1.9-0.8,1.9-1.8
	c0.1-3.4,0-6.9,0-10.2c-0.1-5.7-0.1-11.6,0.5-17.4c2.1,0.1,3.5,0.7,4.4,1.7c1.1,1.2,1.4,3.4,1,6.4c-0.6,4.2-0.5,8.3-0.5,12.4
	c0,2.3,0.1,4.8,0,7.1c0,1,0.8,1.9,1.8,2c0,0,0.1,0,0.1,0c1,0,1.8-0.8,1.9-1.8c0.1-2.5,0.1-4.9,0-7.3c0-3.9-0.1-7.6,0.4-11.3
	c2.4-0.2,3.4,0.1,3.7,0.4C43.8,19.8,43.8,22.1,43.7,23.8"/>
</svg>
