<?xml version="1.0" encoding="utf-8"?>
<!-- Generator: Adobe Illustrator 19.0.0, SVG Export Plug-In . SVG Version: 6.00 Build 0)  -->
<svg version="1.1" id="Calque_1" xmlns="http://www.w3.org/2000/svg" xmlns:xlink="http://www.w3.org/1999/xlink" x="0px" y="0px"
	 viewBox="0 0 87.1 72" style="enable-background:new 0 0 87.1 72;" xml:space="preserve">
<style type="text/css">
	.st0{fill:#199BAC;}
</style>
<path class="st0" d="M51.3,39.6C49.9,39,48.4,39,47.1,39c-0.3,0-0.7,0-1,0c-2.7-0.1-5.4,0-8.1,0c-3.8,0.1-7.5,0.2-11.1-0.2
	c0.4-0.7,0.6-1.4,0.9-2c0.3-0.7,0.5-1.4,0.8-1.9c0.8-1.4,0.9-3,0.4-4.5c-0.7-1.8-2.3-3.3-4.5-4c-0.7-0.2-1.4-0.1-1.9,0.4
	c-1.7,1.6-3.4,3.3-5.1,4.9c-4,3.9-8.1,7.9-12.2,11.8c-2.6,2.5-4.3,5.4-4.9,8.4c-0.7,3-0.3,6.3,1.1,9.7c2.6,6.4,7.8,9.7,15.9,10.3
	c1.1,0.1,2.2,0.1,3.3,0.1c0.9,0,1.7,0,2.6,0c1.5,0,3-0.1,4.5,0c2.3,0.1,5.2-0.1,7-1.9c1.1-1.1,1.7-2.7,1.7-4.6c0-0.5-0.1-1-0.2-1.5
	c1.5-0.8,2.4-2,2.6-3.5c0.2-1.4-0.2-2.8-0.5-4c0,0,0,0,0,0c0.2-0.2,0.5-0.3,0.7-0.5c1.5-1.4,1.7-3.5,1.6-5.7c1.8,0,3.6,0,5.4,0
	c0.3,0,0.6,0,0.9,0c1.9,0,4.2-0.2,5.8-1.7c1-1,1.5-2.5,1.4-4.2C54,41.4,52.5,40.2,51.3,39.6 M49.9,45.8c-0.6,0.7-2.7,0.6-3.9,0.6
	c-3.6-0.1-7.3,0-10.9,0c-1.5,0-3,0-4.6,0c-1.1,0-1.9,0.9-1.9,1.9c0,1.1,0.9,1.9,1.9,1.9c1.5,0,3,0,4.6,0c0.5,0,1,0,1.6,0
	c0.1,2-0.1,2.7-0.4,3c-0.3,0.3-1.5,0.6-5,0.1c-1-0.1-2,0.6-2.1,1.6c-0.1,1,0.6,2,1.6,2.1c1.3,0.2,2.5,0.3,3.5,0.3c0.1,0,0.1,0,0.2,0
	c0,0,0,0.1,0,0.1c0.7,2.4,0.7,2.8-0.7,3.4c-0.1,0-0.2,0.1-0.3,0.2c-1.2-0.4-2.6-0.4-3.7-0.3c-0.5,0-1.1,0.1-1.5,0
	c-0.3,0-0.7,0-0.9,0c-0.1,0-0.2,0-0.3,0c-1.1,0-1.9,0.9-1.9,1.9c0,1.1,0.9,1.9,1.9,1.9c0.1,0,0.3,0,0.4,0c0.2,0,0.4,0,0.6,0
	c0.6,0,1.3,0,1.9,0c0.7,0,2-0.1,2.3,0.1c0,0,0.2,0.3,0.2,0.9c0,1.3-0.4,1.7-0.5,1.8c-0.6,0.6-2,0.9-4.2,0.8c-1.6-0.1-3.2,0-4.7,0
	c-1.9,0-3.7,0.1-5.5-0.1c-3.2-0.2-5.7-0.9-7.7-2.1c-2.2-1.3-3.9-3.2-4.9-5.9c-2.1-5.3-1.2-9.9,3-13.9c4.1-4,8.2-7.9,12.2-11.8
	c1.4-1.4,2.8-2.7,4.2-4c0.6,0.4,1,0.8,1.2,1.3c0.2,0.4,0.1,0.9-0.1,1.3c-0.4,0.8-0.8,1.6-1.1,2.4c-1.1,2.7-1.7,3.8-3.9,3.7
	c-1.1-0.1-1.9,0.8-2,1.8c-0.1,1,0.8,1.9,1.8,2c1.4,0.1,13.3,0.1,17.9,0c2.6-0.1,5.2-0.1,7.8,0c0.4,0,0.7,0,1.1,0
	c3.1,0,3.2,0.3,3.3,1.6C50.3,45.1,50.2,45.6,49.9,45.8"/>
<path class="st0" d="M85.7,10.4C83.1,4,77.9,0.6,69.8,0.1C68.7,0,67.6,0,66.5,0c-0.9,0-1.7,0-2.6,0c-1.5,0-3,0.1-4.5,0
	c-2.3-0.1-5.2,0.1-7,1.9c-1.1,1.1-1.7,2.7-1.7,4.6c0,0.5,0.1,1,0.2,1.5c-1.5,0.8-2.4,2-2.6,3.5c-0.2,1.4,0.2,2.8,0.5,4c0,0,0,0,0,0
	c-0.2,0.2-0.5,0.3-0.7,0.5c-1.5,1.4-1.7,3.5-1.6,5.7c-1.8,0-3.6,0-5.4,0c-0.3,0-0.6,0-0.9,0c-1.9,0-4.2,0.2-5.8,1.7
	c-1,1-1.5,2.5-1.4,4.2c0.1,2.8,1.6,4.1,2.8,4.6C37.1,33,38.7,33,40,33c0.3,0,0.7,0,1,0c2.7,0.1,5.4,0,8.1,0
	c3.8-0.1,7.5-0.2,11.1,0.2c-0.4,0.7-0.6,1.4-0.9,2c-0.3,0.7-0.6,1.4-0.9,1.9c-0.8,1.4-0.9,3-0.4,4.5c0.7,1.8,2.3,3.3,4.5,4
	c0.7,0.2,1.4,0.1,1.9-0.4c1.7-1.6,3.4-3.3,5.1-4.9c4-3.9,8.1-7.9,12.2-11.8c2.6-2.5,4.3-5.4,4.9-8.4C87.4,17,87.1,13.8,85.7,10.4
	 M79.2,25.7c-4.1,4-8.2,7.9-12.2,11.8c-1.4,1.4-2.8,2.7-4.2,4c-0.6-0.4-1-0.8-1.2-1.3c-0.2-0.4-0.1-0.9,0.1-1.3
	c0.4-0.8,0.8-1.6,1.1-2.4c1.1-2.7,1.7-3.8,3.9-3.7c1.1,0.1,1.9-0.8,2-1.8c0.1-1.1-0.8-1.9-1.8-2c-1.4-0.1-13.3-0.1-17.9,0
	c-2.6,0.1-5.2,0.1-7.8,0c-0.4,0-0.7,0-1.1,0c-3.1,0-3.2-0.3-3.3-1.6c0-0.7,0.1-1.2,0.4-1.5c0.6-0.6,2.7-0.6,3.9-0.6
	c3.6,0.1,7.3,0,10.9,0c1.5,0,3,0,4.6,0c1.1,0,1.9-0.9,1.9-1.9c0-1.1-0.9-1.9-1.9-1.9c-1.5,0-3,0-4.6,0c-0.5,0-1,0-1.6,0
	c-0.1-2,0.1-2.7,0.4-3c0.3-0.3,1.5-0.6,5-0.1c1,0.1,2-0.6,2.1-1.6c0.1-1-0.6-2-1.6-2.1c-1.3-0.2-2.5-0.3-3.5-0.3c-0.1,0-0.1,0-0.2,0
	c0,0,0-0.1,0-0.1c-0.7-2.4-0.7-2.8,0.7-3.4c0.1,0,0.2-0.1,0.3-0.2c1.2,0.4,2.6,0.4,3.7,0.3c0.5,0,1.1-0.1,1.5,0c0.3,0,0.7,0,0.9,0
	c0.1,0,0.2,0,0.3,0c1.1,0,1.9-0.9,1.9-1.9c0-1.1-0.9-1.9-1.9-1.9c-0.1,0-0.3,0-0.4,0c-0.2,0-0.4,0-0.6,0c-0.6,0-1.3,0-1.9,0
	c-0.7,0-2,0.1-2.3-0.1c0,0-0.2-0.3-0.2-0.9c0-1.3,0.4-1.7,0.5-1.8c0.6-0.6,2-0.9,4.2-0.8c1.6,0.1,3.2,0,4.7,0c1.9,0,3.7-0.1,5.5,0.1
	c3.2,0.2,5.7,0.9,7.7,2c2.2,1.3,3.8,3.2,4.9,5.9C84.3,17.1,83.3,21.7,79.2,25.7"/>
</svg>
