<?xml version="1.0" encoding="utf-8"?>
<!-- Generator: Adobe Illustrator 19.0.0, SVG Export Plug-In . SVG Version: 6.00 Build 0)  -->
<svg version="1.1" id="Calque_1" xmlns="http://www.w3.org/2000/svg" xmlns:xlink="http://www.w3.org/1999/xlink" x="0px" y="0px"
	 viewBox="0 0 79.2 62.1" style="enable-background:new 0 0 79.2 62.1;" xml:space="preserve">
<style type="text/css">
	.st0{fill:#199BAC;}
</style>
<path class="st0" d="M78.9,5.9c-0.3-2.6-1.3-4.4-3-5.3c-0.9-0.5-2.1-0.7-3.7-0.5c-1,0.1-1.9,0.4-2.8,0.9c-2.4,1.4-8.4,4.9-11.4,6.6
	c-1,0.6-2.1,0.9-3.2,0.9c-1.7,0-3.4,0-5.2-0.1c-2.5,0-5-0.1-7.5-0.1c-5.4-2.7-10.6-2.8-10.8-2.8h0c-0.2,0-4,0-7.4,0.7
	c-2.5,0.5-5.5-0.6-5.9-0.8l-8.1-3.9c-2.2-1-4.7-0.9-6.8,0.4C1.2,3.2,0,5.4,0,7.8v11.2c0,5.3,2,10.3,5.7,14l2.7,2.7
	c-1.6,1.8-1.9,3.9-1,6.2c0.9,2.2,3,3.4,5.9,3.3c0.2,1.7,0.9,3,2,3.9c1.2,1,2.7,1.2,4.1,1.3c0.1,2.4,1.2,4.1,3.3,5.2
	c1.9,0.9,3.9,0.8,5.9-0.5c0.9,2.4,2.3,3.5,4.4,3.5c0.4,0,0.9,0,1.3-0.1l0.8,1.2c1.1,1.6,2.8,2.5,4.6,2.5c0.2,0,0.3,0,0.5,0
	c1-0.1,1.8-0.4,2.5-1c1-0.8,1.6-1.8,1.8-3c0.6,0.2,1.2,0.3,1.8,0.3c1.7,0,3-0.8,3.3-1c0,0,0.1-0.1,0.1-0.1c0.1-0.1,0.2-0.2,0.4-0.4
	c0.6-0.7,1.1-1.5,1.3-2.4c0.6,0.2,1.2,0.2,1.9,0.2c1.2-0.1,2.2-0.4,3.1-1.1c1.1-0.8,1.7-1.9,2-3.2c1.6,0.2,3.1-0.3,4.3-1.5
	c1.6-1.5,2.3-3.7,1.8-5.7c0-0.1,0-0.2-0.1-0.2c-0.3-1.1-1.5-3-2.6-4.5l0,0c2.5-3,5.1-6.2,8.9-7.9l0.1,0c0,0,0.1,0,0.1,0
	c0,0,0.1,0,0.1,0l0.9-0.3c4.2-1.6,6.9-5.5,7-9.9C79.3,15.7,79.3,9.6,78.9,5.9 M3.9,19.1V7.8c0-1.1,0.5-2,1.4-2.6
	C5.9,4.9,6.5,4.7,7,4.7c0.5,0,0.9,0.1,1.3,0.3l8.1,3.9c0,0,0.1,0,0.1,0c0.2,0.1,4.3,1.8,8.2,1c3-0.6,6.4-0.6,6.6-0.6
	c0.3,0,4.8,0.2,9.3,2.5c4.1,2.1,5.7,3.7,6,4c0.1,0.2,0.4,1,0.5,2.9c0.2,2.9,1,5.8,1.4,6.9c-0.1,0-0.2,0.1-0.5,0.1
	c-1.4,0.1-2-1.2-2.1-1.4c0,0,0,0,0-0.1l0,0c-0.9-1.8-1.8-3.7-1.9-4.1c-0.3-1.1-1.8-3-4.7-5.7c-0.7-0.7-1.8-0.7-2.5-0.2L11.2,33
	l-2.7-2.7C5.6,27.3,3.9,23.3,3.9,19.1 M33.2,52.3c-0.4,0.8-0.6,1.6-0.5,2.5c-0.3-0.2-0.5-0.5-0.6-0.9c-0.1-0.6,0.1-1.1,0.8-1.6
	c0.2-0.2,0.5-0.3,0.7-0.5C33.4,51.9,33.3,52.1,33.2,52.3 M40.7,58.3c-0.2,0.2-0.4,0.2-0.7,0.3c-0.7,0.1-1.4-0.3-1.8-0.9l-1.9-2.7
	c-0.2-0.3-0.2-0.6-0.1-0.9c0.1-0.2,0.3-0.3,0.5-0.4c0,0,0.1,0,0.1,0c0.2-0.1,0.4-0.1,0.6-0.1c0.5,0,1,0.2,1.4,0.7l1.9,2.4
	c0.2,0.3,0.4,0.7,0.3,1C41.1,57.9,41,58.1,40.7,58.3 M47.4,54.2c-0.2,0.1-0.5,0.2-0.8,0.3c-0.6,0.1-1.1-0.1-1.6-0.7L43.2,51
	c-0.2-0.3-0.3-0.7-0.2-1c0.1-0.3,0.3-0.6,0.6-0.8c0,0,0.1,0,0.1-0.1c0,0,0.1,0,0.1-0.1c0.6-0.3,1.4-0.1,1.8,0.5l1.9,2.8
	C47.9,52.9,47.9,53.7,47.4,54.2 M54.2,50.4c-0.3,0.2-0.6,0.3-0.9,0.3c-0.8,0-1.6-0.4-2.1-1.1l-2.1-3.2c-0.2-0.3-0.3-0.7-0.1-1.1
	c0.1-0.2,0.3-0.4,0.6-0.5c0,0,0.1,0,0.1-0.1c0.2-0.1,0.5-0.1,0.7-0.1c0.6,0,1.2,0.3,1.6,0.8l2.2,2.8c0.3,0.4,0.4,0.8,0.4,1.3
	C54.7,49.9,54.5,50.2,54.2,50.4 M60.2,46c-0.5,0.5-0.9,0.5-1.2,0.4c-0.4-0.1-0.8-0.3-1-0.7l-3.1-3.9c-0.1-0.2-0.3-0.7-0.4-1.3
	c-0.1-0.8,0.1-1.3,0.8-1.8c0.6-0.4,1.1-0.5,1.7-0.1c0.6,0.4,1.1,0.9,1.1,1l0,0c1.3,1.8,2.6,3.8,2.8,4.3c0,0,0,0.1,0,0.1
	C61,44.7,60.7,45.5,60.2,46 M75.2,20.1c-0.1,2.8-1.8,5.3-4.5,6.3l-1,0.4c-0.4,0.2-0.8,0.4-1.1,0.6c-2.9,1.7-5.2,3.7-7.1,6.1
	c-0.6,0.8-1.2,1.5-1.9,2.2c-0.9-0.7-1.8-1.1-2.8-1.2c-1.4-0.2-2.8,0.2-4,1.1c-1.7,1.3-2.6,3.1-2.4,5.3h0c-0.8,0-1.5,0.2-2.2,0.4
	c-0.1,0-0.2,0.1-0.2,0.1c-1.1,0.5-1.9,1.2-2.4,2.1c-0.3,0.5-0.5,1-0.6,1.6c-1-0.1-2.1,0.1-3,0.5c-0.1,0-0.1,0.1-0.2,0.1
	c-0.1,0.1-0.2,0.1-0.3,0.2c-1.2,0.7-2.1,1.9-2.4,3.3c-0.1,0.3-0.1,0.7-0.1,1c-1.2-0.3-2.4-0.3-3.5,0.2c0,0-0.1,0-0.1,0.1
	c0.6-0.4,1.2-0.9,1.8-1.3l1.7-1.3l0.1-0.1c0.1-0.1,0.2-0.1,0.2-0.2c0.9-0.7,1.1-1.7,0.4-2.6c-0.6-0.8-1.7-1-2.6-0.3
	c-1.5,1.1-3,2.1-4.4,3.2c-0.6,0.4-1.2,0.8-1.7,1.3c-0.4,0.3-0.8,0.6-1.2,0.9c-0.9,0.7-1.9,1.4-2.8,2c-0.7,0.5-1.5,0.6-2.2,0.4
	c-0.7-0.2-1.1-0.7-1.4-1.5c-0.3-1,0.1-1.9,1-2.6c1.3-0.9,2.5-1.8,3.8-2.7c0.6-0.4,1.2-0.9,1.8-1.3l1.3-0.9c1.7-1.2,3.5-2.5,5.2-3.7
	c1.1-0.8,1-1.7,0.8-2.1c-0.3-0.8-0.8-1.2-1.6-1.2h-0.1c-0.4,0-0.8,0.1-1.1,0.3l-1,0.7c-3.9,2.8-8,5.7-12,8.7
	c-0.8,0.6-1.8,0.9-2.8,0.7c-0.9-0.1-1.5-0.6-1.7-1.4c-0.2-0.9,0.1-1.8,0.9-2.3c2.3-1.6,4.7-3.3,7.1-4.8l1.8-1.2
	c1.9-1.3,3.7-2.5,5.6-3.8c0.9-0.6,0.9-1.3,0.8-1.9C33,30.6,32.4,30,31.7,30c-0.5,0-1.2,0.1-1.7,0.5c-2.9,1.9-6,4.1-9.8,6.6
	c-1.1,0.7-2.2,1.5-3.2,2.3c-1,0.7-1.9,1.4-2.9,2c-0.6,0.4-1.4,0.6-2.1,0.3c-0.7-0.2-1.2-0.8-1.4-1.5c-0.2-0.9,0.1-1.8,1-2.4
	c1.2-0.9,2.4-1.8,3.6-2.6c0.5-0.4,1.1-0.8,1.6-1.2l21-15.5c1.4,1.4,2.2,2.4,2.4,2.8c0.4,1.2,1.7,4,2.2,4.8c0.8,1.7,2.7,3.6,5.5,3.6
	c0.1,0,0.2,0,0.4,0c1.9-0.1,2.9-0.9,3.5-1.6c1-1.4,0.7-2.9,0.7-3.1c0-0.1,0-0.1-0.1-0.2c0,0-1.1-3.2-1.3-6.2
	c-0.2-2.6-0.6-4.3-1.4-5.2c-0.2-0.2-0.7-0.7-1.6-1.4c2.4,0,4.8,0,7.2,0.1c1.7,0,3.3-0.4,4.8-1.3c2.5-1.5,5-3,7.5-4.4
	c0.9-0.5,1.7-1,2.6-1.5C71.2,4.1,73.1,3.3,74,4c0.6,0.5,0.9,1.5,1,2.3C75.4,9.8,75.3,15.7,75.2,20.1"/>
</svg>
