<?xml version="1.0" encoding="utf-8"?>
<!-- Generator: Adobe Illustrator 19.0.0, SVG Export Plug-In . SVG Version: 6.00 Build 0)  -->
<svg version="1.1" id="Calque_1" xmlns="http://www.w3.org/2000/svg" xmlns:xlink="http://www.w3.org/1999/xlink" x="0px" y="0px"
	 viewBox="0 0 107.5 102.1" style="enable-background:new 0 0 107.5 102.1;" xml:space="preserve">
<style type="text/css">
	.st0{fill:#1F1D50;}
</style>
<path id="XMLID_108_" class="st0" d="M84.9,72.4c0,0.7-0.6,1.3-1.3,1.3H63.8c-0.7,0-1.3-0.6-1.3-1.3c0-0.7,0.6-1.3,1.3-1.3h19.8
	C84.3,71.1,84.9,71.7,84.9,72.4"/>
<path id="XMLID_107_" class="st0" d="M73.7,76.7h9.9c0.7,0,1.3,0.6,1.3,1.3c0,0.7-0.6,1.3-1.3,1.3h-9.9c-0.7,0-1.3-0.6-1.3-1.3
	C72.4,77.3,73,76.7,73.7,76.7"/>
<path id="XMLID_79_" class="st0" d="M84.2,64.6H62.9c-3.2,0-5.8,2.6-5.8,5.8v15c0,3.3,2.7,6.1,6.1,6.1h20.2c3.6,0,6.5-2.9,6.5-6.5
	V70.3C89.9,67.2,87.4,64.6,84.2,64.6 M62.9,67.2h21.3c1.7,0,3.1,1.4,3.1,3.1V85c0,2.1-1.7,3.9-3.9,3.9H63.2c-1.9,0-3.4-1.5-3.4-3.4
	v-15C59.8,68.6,61.2,67.2,62.9,67.2"/>
<path id="XMLID_72_" class="st0" d="M0,70.7v3h40v-3c0-2.7-2.2-4.9-4.9-4.9h-7.9c-0.6-1.2-1.7-2.1-3-2.3l-0.1-6.8V27.1
	c0-10.6,9.9-19.5,22.1-19.8c6.8-0.2,13.3,2.3,17.8,6.6c3.6,3.5,5.6,8,5.6,12.7v10.8c-20.7,2.6-22,27.3-22,27.6l0,15.8
	c-0.1,0-0.3,0-0.4,0h-4.1c-2.1,0-3.9,1.7-3.9,3.9v9.5c0,2.6,2.1,4.7,4.7,4.7h2.3c1,0,1.9-0.4,2.6-1c1.3,1.9,3.4,3.1,5.8,3.1h37.4
	c2.3,0,4.3-1.1,5.6-2.8c0.5,0.4,1.2,0.7,1.9,0.7h4.1c2.1,0,3.9-1.7,3.9-3.9v-9.5c0-2.6-2.1-4.7-4.7-4.7h-2.3c-0.5,0-1,0.1-1.4,0.3
	V64.7c0-0.3-1.3-24.1-21.3-27.2v-11C77.7,12.1,64.1,0.2,47.5-0.1C38.5-0.2,30,3.2,23.9,9.1c-5.1,5-7.9,11.4-7.9,18.1l-0.2,29.8
	l0,6.6c-1.3,0.3-2.4,1.1-3,2.3H4.9C2.3,65.9,0,68.1,0,70.7 M99.1,84.9c0-0.8,0.6-1.4,1.4-1.4h2.3c1.1,0,2.1,0.9,2.1,2.1V95
	c0,0.7-0.6,1.2-1.2,1.2h-4.1c-0.2,0-0.4-0.2-0.4-0.4v-1.8V84.9z M47.6,94.8c0,0.8-0.6,1.4-1.4,1.4h-2.3c-1.1,0-2.1-0.9-2.1-2.1v-9.5
	c0-0.7,0.6-1.2,1.2-1.2h4.1c0.2,0,0.4,0.2,0.4,0.4V94.8z M77.8,50.1c0.6,0.9,0.9,1.9,0.9,3c0,3-2.4,5.4-5.4,5.4S68,56.1,68,53.1
	c0-1.6,0.7-2.9,1.7-3.9c0.4-0.4,0.8-0.7,1.3-0.9c0.4-0.2,0.8-0.4,1.3-0.4c0.3-0.1,0.7-0.1,1-0.1c0.6,0,1.3,0.1,1.8,0.3
	c0.5,0.2,0.9,0.4,1.3,0.7C77,49.1,77.4,49.6,77.8,50.1 M69.7,40.1V46c-2.6,1.3-4.3,4-4.3,7.1c0,4.4,3.6,8,8,8c4.4,0,8-3.6,8-8
	c0-2.8-1.4-5.2-3.5-6.6v-6.2c6.8,1.2,12,5.2,15.3,12c3,6.2,3.4,12.5,3.4,12.6l0,20.1v0v9.1c0,2.4-2,4.4-4.4,4.4H54.7
	c-2.5,0-4.4-2-4.4-4.4v-10V65.1c0,0,0.3-6.5,3.4-12.8C57.1,45.2,62.5,41.1,69.7,40.1 M2.6,70.7c0-1.2,1.1-2.2,2.3-2.2h9.9l0.2-1.1
	c0.1-0.8,0.8-1.3,1.6-1.3h1.8l0-9.2l0.2-29.8c0-5.9,2.5-11.7,7.1-16.2c5.5-5.4,13.4-8.5,21.7-8.4c15.2,0.2,27.7,11,27.8,24v10.8v2.6
	v5.4c-0.6-0.1-1.2-0.2-1.8-0.2c-0.4,0-0.7,0-1,0.1v-5.3v-2.6V26.7c0-5.4-2.3-10.6-6.4-14.6c-5-4.9-12.2-7.6-19.7-7.4
	C32.6,5,21.6,15.1,21.6,27.1v29.7l0.1,9.3h1.8c0.8,0,1.5,0.5,1.6,1.3l0.2,1.1h9.9c1.3,0,2.3,1,2.3,2.2v0.4H2.6V70.7z"/>
<path id="XMLID_71_" class="st0" d="M18.8,91.1V75.9c0-0.7,0.6-1.3,1.3-1.3c0.7,0,1.3,0.6,1.3,1.3v15.2c0,0.7-0.6,1.3-1.3,1.3
	C19.4,92.5,18.8,91.9,18.8,91.1"/>
<path id="XMLID_70_" class="st0" d="M14.6,84.8v-8.9c0-0.7,0.6-1.3,1.3-1.3c0.7,0,1.3,0.6,1.3,1.3v8.9c0,0.7-0.6,1.3-1.3,1.3
	C15.2,86.2,14.6,85.6,14.6,84.8"/>
<path id="XMLID_69_" class="st0" d="M24.3,86.2L24.3,86.2c-0.7,0-1.3-0.6-1.3-1.3l0-8.9c0-0.7,0.6-1.3,1.3-1.3h0
	c0.7,0,1.3,0.6,1.3,1.3l0,8.9C25.6,85.6,25,86.2,24.3,86.2"/>
<path id="XMLID_68_" class="st0" d="M8,80.8c0.4-0.8,1.4-1.8,3.6-2c0.7-0.1,1.4,0.5,1.4,1.2c0.1,0.7-0.5,1.4-1.2,1.4
	c-0.4,0-1.2,0.2-1.4,0.6c-0.3,0.6,0.2,2.1,0.7,2.9c0.4,0.6,0.2,1.4-0.4,1.8c-0.1,0.1-2,1.4-1,3.6c0.9,1.9,2.6,1.3,3.1,1.1
	c0.4-0.2,0.9-0.1,1.3,0.1c0.4,0.3,0.6,0.7,0.5,1.2c0,0-0.4,3.8,1.5,5.8c0.9,0.9,2.1,1.3,3.8,1.2c1.9-0.1,3.3-0.8,4.3-1.9
	c1.7-2,1.4-4.9,1.4-5c-0.1-0.5,0.2-1,0.6-1.2c0.4-0.3,0.9-0.3,1.4-0.1c0.4,0.2,1.8,0.8,3-1.3c1.4-2.3-0.7-4.1-1-4.3
	c-0.5-0.4-0.6-1-0.4-1.6c0.5-1.1,0.6-1.9,0.4-2.4c-0.3-0.4-1-0.6-1.2-0.6c-0.7-0.1-1.3-0.7-1.2-1.4c0-0.7,0.7-1.3,1.4-1.2
	c0.2,0,2.3,0.2,3.3,1.9c0.6,1.1,0.7,2.4,0.1,3.9c1.3,1.4,2.6,4.1,0.8,7c-1.4,2.3-3.2,2.9-4.6,2.8c-0.1,1.4-0.6,3.4-1.9,5.1
	c-1.4,1.7-3.5,2.7-6.1,2.9c-0.3,0-0.5,0-0.8,0c-2.1,0-3.9-0.7-5.1-2c-1.7-1.8-2.2-4.4-2.3-6.1c-1.7,0.1-3.6-0.6-4.7-2.8
	c-1.3-2.6-0.2-4.9,1-6.1C7.8,84.1,7.3,82.3,8,80.8"/>
</svg>
