<?xml version="1.0" encoding="utf-8"?>
<!-- Generator: Adobe Illustrator 19.0.0, SVG Export Plug-In . SVG Version: 6.00 Build 0)  -->
<svg version="1.1" id="Calque_1" xmlns="http://www.w3.org/2000/svg" xmlns:xlink="http://www.w3.org/1999/xlink" x="0px" y="0px"
	 viewBox="0 0 56.7 77.3" style="enable-background:new 0 0 56.7 77.3;" xml:space="preserve">
<style type="text/css">
	.st0{fill:#199BAC;}
</style>
<path class="st0" d="M56.5,44.2c-0.1-1.5-0.1-3-0.2-4.6c-0.1-2.2-0.7-3.9-2.1-5c-1.7-1.5-4.3-1.9-8.1-1.5C45.7,32,45.1,31,44,30.3
	c-2.2-1.4-4.9-0.7-7.2,0.2c-0.3-0.7-0.7-1.3-1.2-1.8c-1.5-1.4-3.8-1.6-7.2-1.3c0-0.3,0-0.6,0-0.9c0,0,0.1,0,0.1,0
	c5.8-2.9,8-7,7.3-13.4C35.2,7.3,31,2,25.9,0.6C19.8-1.1,14.2,1,10.1,6.4c-2.7,3.7-3.6,8.3-2.2,12.4c1.2,3.7,4,6.4,7.6,7.6
	c0,4.5,0,9.1,0,13.5l0,3.1c0,0.5,0,0.9,0,1.4c0,0.5,0,1,0,1.5c-1.1-0.9-2.2-1.8-3.3-2.6c-3.8-2.9-8.8-2.1-11.8,1.8
	c-0.6,0.7-0.5,1.8,0.1,2.5c2.4,2.7,4.9,5.5,7.2,8.2C13,62,18.5,68.5,25,73.5c3.3,2.5,7,3.8,10.8,3.8c1.8,0,3.7-0.3,5.5-0.9
	c6.4-2,11.8-7.5,13.8-13.9C57.1,56.4,56.8,50.2,56.5,44.2 M11.5,17.7c-1-2.9-0.3-6.3,1.7-9c3.1-4.2,7.2-5.7,11.7-4.5
	c3.6,1,6.8,5.1,7.2,9.3c0.4,4.1-0.6,6.6-3.6,8.6c0-1.2,0-2.4,0-3.6c0.1-2.6-0.6-4.5-1.8-5.9c-1.1-1.2-2.7-1.7-4.7-1.7
	c-2,0-3.5,0.6-4.7,1.7c-1.3,1.3-1.9,3.2-1.9,5.9c0,1.3,0,2.6,0,3.9C13.5,21.4,12.1,19.8,11.5,17.7 M51.5,61.4
	c-1.6,5.2-6.1,9.7-11.3,11.4c-4.5,1.4-9.1,0.6-12.9-2.3C21.1,65.7,16,59.7,10.6,53.3c-2-2.3-4-4.7-6.1-7c1.5-1.1,3.4-1.4,5.3,0
	c1.5,1.1,2.9,2.3,4.3,3.5c0.7,0.5,1.3,1.1,2,1.6c0.8,0.7,2,0.5,2.7-0.3c0.6-0.7,0.5-1.7,0-2.3c0.5-1.6,0.5-3.1,0.4-4.5
	c0-0.4,0-0.8,0-1.2l0-3.1c0-7.1,0.1-14.4,0-21.6c0-1.5,0.2-2.6,0.8-3.1c0.1-0.1,0.6-0.6,1.9-0.6c1.4,0,1.8,0.4,2,0.6
	c0.5,0.5,0.8,1.6,0.8,3.1c-0.1,4.5-0.1,9,0,13.4c0,1.9,0,3.7,0,5.6c0,1.1,0.9,1.9,1.9,1.9c1.1,0,1.9-0.9,1.9-1.9c0-1.9,0-3.7,0-5.6
	c0-0.2,0-0.4,0-0.6c1.5-0.1,4-0.3,4.7,0.3c0.7,0.6,0.7,3.5,0.7,4.8v3.4c0,1.1,0.9,1.9,1.9,1.9c1.1,0,1.9-0.9,1.9-1.9l0-1.1l0-2.3
	c0-0.7,0-1.3,0-1.9c3-1.3,4.1-1,4.4-0.8c0.3,0.2,1.1,1.1,1,4.4c0,1.3,0.2,2.6,0.3,3.8c0.1,0.5,0.2,1,0.2,1.6c0.1,1,0.9,1.7,1.9,1.7
	c0.1,0,0.1,0,0.2,0c1-0.1,1.8-1.1,1.7-2.1c-0.1-0.6-0.1-1.1-0.2-1.7c-0.2-1.1-0.3-2.2-0.3-3.2c0-0.3,0-0.7,0-1.1
	c3.1-0.3,4.5,0.1,5,0.6c0.2,0.1,0.7,0.6,0.7,2.2c0,1.5,0.1,3.1,0.2,4.6C53,50.3,53.2,55.9,51.5,61.4"/>
</svg>
