<?xml version="1.0" encoding="utf-8"?>
<!-- Generator: Adobe Illustrator 19.0.0, SVG Export Plug-In . SVG Version: 6.00 Build 0)  -->
<svg version="1.1" id="Calque_1" xmlns="http://www.w3.org/2000/svg" xmlns:xlink="http://www.w3.org/1999/xlink" x="0px" y="0px"
	 viewBox="0 0 147.7 61" style="enable-background:new 0 0 147.7 61;" xml:space="preserve">
<style type="text/css">
	.st0{fill:#1F1D50;}
</style>
<path class="st0" d="M147.6,28.8c-0.4-2-1.7-3.6-4-4.7c-1.9-1-3.4-1.2-4.7-1l1.3-9.1c0.1-0.7,1.1-6-1.9-9.8c-2-2.5-5.2-3.9-9.4-4
	C123.1,0,115.3,0,108.1,0l0.1,0L74.2,0.1L40.3,0l0.1,0c-7.1,0-15,0-20.7,0.1c-4.3,0.1-7.4,1.4-9.4,4c-3,3.9-2.1,9.1-1.9,9.8l1.3,9.4
	c-1.4-0.4-3.3-0.3-5.5,0.9c-2.3,1.2-3.6,2.8-4,4.7c-0.7,3.5,2.1,6.8,2.2,6.9c0.1,0.1,2.2,2.7,2,8.2L4.2,56.6c0,1.2,0.4,2.3,1.3,3.1
	C6.3,60.5,7.4,61,8.6,61h6.1v-0.1c0.3,0.1,0.6,0.1,0.9,0.1H132c0.4,0,0.8-0.1,1.2-0.1h5.9c1.2,0,2.3-0.5,3.1-1.3
	c0.8-0.8,1.3-1.9,1.3-3.1l-0.1-12.7c-0.2-5.4,1.9-8,2-8.1C145.5,35.5,148.3,32.3,147.6,28.8 M11.7,38.4v1.1V58h-0.6H8.6
	c-0.4,0-0.7-0.1-1-0.4c-0.3-0.3-0.4-0.6-0.4-1L7.3,44c0.3-6.7-2.6-10-2.8-10.2c0,0-1.9-2.3-1.5-4.4c0.2-1,1-1.9,2.4-2.6
	c1-0.5,1.8-0.7,2.6-0.7c0.8,0,1.5,0.3,2.1,0.8c0.1,0.1,0.2,0.1,0.3,0.2c0.9,0.8,1.4,2.1,1.4,3.5V38.4z M133,40.4v8.9H24.7
	c-0.8,0-1.5,0.7-1.5,1.5c0,0.8,0.7,1.5,1.5,1.5H133v5.5c-0.3,0.2-0.6,0.3-1,0.3H15.5c-0.3,0-0.6-0.1-0.9-0.2V40.6v-0.5h0.7h24.3v4.6
	c0,0.8,0.7,1.5,1.5,1.5c0.8,0,1.5-0.7,1.5-1.5v-4.6H72v4.6c0,0.8,0.7,1.5,1.5,1.5c0.8,0,1.5-0.7,1.5-1.5v-4.6h29.6v4.6
	c0,0.8,0.7,1.5,1.5,1.5c0.8,0,1.5-0.7,1.5-1.5v-4.6h25h0.5V40.4z M135.3,24.8c-1.4,1.4-2.3,3.4-2.3,5.6v6.7c0,0,0,0,0.1,0H133v0
	c-0.5-0.2-1.1-0.2-1.7-0.2H16.6c-0.6,0-1.2,0.1-1.8,0.3h-0.2v-6.6c0-1.9-0.6-3.7-1.8-5.1l-1.7-12l0-0.1c0,0-1-4.4,1.4-7.4
	c1.4-1.8,3.8-2.8,7.1-2.8C27.5,2.9,39.2,3,47.7,3l7.4,0.1L55,3l19.3,0.1L93.5,3l-0.2,0.1l7.4-0.1c8.5-0.1,20.2-0.1,28,0.1
	c3.3,0.1,5.7,1,7.1,2.8c2.3,3,1.4,7.4,1.4,7.4l-1.5,11C135.6,24.5,135.4,24.7,135.3,24.8 M143.2,33.7c-0.1,0.1-3,3.5-2.8,10.1
	l0.1,12.6c0,0.4-0.1,0.7-0.4,1c-0.3,0.3-0.6,0.4-1,0.4h-2.4H136v-5.7v-2.9v-9.2v-0.9v-8.8c0-1.4,0.5-2.6,1.4-3.5
	c0.3-0.3,0.7-0.6,1.1-0.7c1.1-0.4,2.3-0.3,3.8,0.5c1.4,0.7,2.2,1.6,2.4,2.6C145,31.1,143.7,33.1,143.2,33.7"/>
<path class="st0" d="M16.4,10.2c-0.8,0.2-1.3,1-1.1,1.8c0,0.1,1.9,8.3,1.8,12.7c0,0.8,0.6,1.5,1.5,1.5h0c0.8,0,1.5-0.6,1.5-1.5
	c0.1-4.8-1.8-13.1-1.9-13.4C18,10.5,17.2,10,16.4,10.2"/>
</svg>
