<?xml version="1.0" encoding="utf-8"?>
<!-- Generator: Adobe Illustrator 19.0.0, SVG Export Plug-In . SVG Version: 6.00 Build 0)  -->
<svg version="1.1" id="Calque_1" xmlns="http://www.w3.org/2000/svg" xmlns:xlink="http://www.w3.org/1999/xlink" x="0px" y="0px"
	 viewBox="0 0 96.2 96.2" style="enable-background:new 0 0 96.2 96.2;" xml:space="preserve">
<style type="text/css">
	.st0{fill:#1F1D50;}
</style>
<path id="XMLID_69_" class="st0" d="M81.2,39.7l4.3,0.3c0,0,0.1,0,0.1,0c0.8,0,1.6-0.6,1.6-1.5c0.1-0.9-0.6-1.7-1.5-1.8l-4.4-0.4
	C81.2,35.2,80.8,34,80,33c-1.4-2-3.5-3.3-6-3.6l-13.6-1.5c0.6-7.3-3.6-14.4-10.7-17.2l-1.5-0.6c-8.7-3.4-18.6,0.9-22,9.6L10.7,59.3
	c-1.7,4.2-1.6,8.8,0.3,13c1.4,3.2,3.7,5.8,6.7,7.6c2.3,1.6,5,2.6,7.9,3c0.8,0.1,1.7,0.2,2.5,0.2c0.4,0,0.9,0,1.3-0.1l0,0.1l29.1,4
	c0.5,0.1,0.9,0.1,1.4,0.1c2.9,0,5.6-1.2,7.5-3.2c0.1,0,0.1,0,0.2,0l5.8,0.5c0,0,0.1,0,0.1,0c0.8,0,1.6-0.6,1.6-1.5
	c0.1-0.9-0.6-1.7-1.5-1.8L69.4,81c0.2-0.4,0.4-0.9,0.5-1.4l0.5-1.7l4.6,0.4c0,0,0.1,0,0.1,0c0.8,0,1.6-0.6,1.6-1.5
	c0.1-0.9-0.6-1.7-1.5-1.8l-3.9-0.3l0.9-3.2l5.2,0.4c0,0,0.1,0,0.1,0c0.8,0,1.6-0.6,1.6-1.5c0.1-0.9-0.6-1.7-1.5-1.8l-4.5-0.4
	l0.9-3.1l5,0.4c0,0,0.1,0,0.1,0c0.8,0,1.6-0.6,1.6-1.5c0.1-0.9-0.6-1.7-1.5-1.8l-4.4-0.4l0.9-3.2l5,0.4c0,0,0.1,0,0.1,0
	c0.8,0,1.6-0.6,1.6-1.5c0.1-0.9-0.6-1.7-1.5-1.8l-4.3-0.4l0.9-3.2l5,0.4c0,0,0.1,0,0.1,0c0.8,0,1.6-0.6,1.6-1.5
	c0.1-0.9-0.6-1.7-1.5-1.8l-4.3-0.4l0.9-3.2l4.9,0.4c0,0,0.1,0,0.1,0c0.8,0,1.6-0.6,1.6-1.5c0.1-0.9-0.6-1.7-1.5-1.8l-4.2-0.3
	l0.8-2.9C81.2,39.8,81.2,39.7,81.2,39.7 M29.2,20.9c2.8-7,10.7-10.5,17.8-7.8l1.5,0.6c7,2.8,10.5,10.7,7.8,17.8L44.8,61
	c-1.9-7.7-8.9-13.5-17.2-13.5c-3.7,0-7.1,1.1-10,3.1L29.2,20.9z M23,78.9l-1.5-0.6c-0.8-0.3-1.5-0.7-2.1-1.1
	c-3.8-2.6-6.3-7-6.3-11.9c0-8,6.5-14.5,14.5-14.5c8,0,14.5,6.5,14.5,14.5c0,8-6.5,14.5-14.5,14.5c-0.4,0-0.9,0-1.3-0.1
	C25.2,79.5,24.1,79.3,23,78.9 M58.8,83.9l-22.3-3c3.3-1.9,5.9-4.8,7.4-8.6l15.5-39.6c0.2-0.5,0.4-1,0.5-1.6l13.8,1.5
	c1.5,0.2,2.8,0.9,3.6,2.2c0.8,1.2,1.1,2.7,0.7,4.2L66.8,78.7C65.8,82.1,62.4,84.4,58.8,83.9"/>
<path id="XMLID_68_" class="st0" d="M39.1,62.6c-0.6-0.7-1.7-0.7-2.3,0L24.4,74.5c-0.7,0.6-0.7,1.7,0,2.3c0.3,0.3,0.7,0.5,1.2,0.5
	c0.4,0,0.8-0.2,1.1-0.5L39,65C39.7,64.3,39.7,63.3,39.1,62.6"/>
</svg>
