<?xml version="1.0" encoding="utf-8"?>
<!-- Generator: Adobe Illustrator 19.0.0, SVG Export Plug-In . SVG Version: 6.00 Build 0)  -->
<svg version="1.1" id="Calque_1" xmlns="http://www.w3.org/2000/svg" xmlns:xlink="http://www.w3.org/1999/xlink" x="0px" y="0px"
	 viewBox="0 0 96.2 96.2" style="enable-background:new 0 0 96.2 96.2;" xml:space="preserve">
<style type="text/css">
	.st0{clip-path:url(#XMLID_108_);fill:#71AAC4;}
	.st1{fill:#1F1D50;}
</style>
<g id="XMLID_78_">
	<g id="XMLID_79_">
		<defs>
			<rect id="XMLID_80_" x="1.4" y="1.2" width="93.9" height="93.9"/>
		</defs>
		<clipPath id="XMLID_108_">
			<use xlink:href="#XMLID_80_"  style="overflow:visible;"/>
		</clipPath>
		<path id="XMLID_81_" class="st0" d="M95.3,48.1c0,25.9-21,47-47,47c-25.9,0-47-21-47-47c0-25.9,21-47,47-47
			C74.3,1.2,95.3,22.2,95.3,48.1"/>
	</g>
</g>
<path id="XMLID_75_" class="st1" d="M48.1,0C21.6,0,0,21.6,0,48.1c0,26.5,21.6,48.1,48.1,48.1c26.5,0,48.1-21.6,48.1-48.1
	C96.2,21.6,74.7,0,48.1,0 M93.7,48.1c0,25.1-20.4,45.6-45.6,45.6S2.6,73.2,2.6,48.1S23,2.6,48.1,2.6S93.7,23,93.7,48.1"/>
<path id="XMLID_67_" class="st1" d="M76.5,29c-0.4-0.1-1,0.1-1.3,0.4c-0.6,0.6-1.1,1.4-1.6,2.2c-2.1,3.7-2.9,7.8-3.2,12
	c0,0.4-0.1,0.9-0.4,1.1c-1.5,1-3,2-4.6,3c0.1-0.3,0.1-0.6,0.2-0.8c1.1-3.7,2.2-7.4,3.2-11.2c0.2-0.6,0.2-1.5-0.1-2.1
	c-2.1-4-4.3-8-6.5-12c-0.2-0.4-1-1-1.3-0.9c-0.5,0.2-0.8,0.9-1,1.4c-0.1,0.3-0.1,0.7,0,1c0.6,3.3,1.2,6.7,1.9,10
	c0.2,0.8,0.1,1.4-0.4,2.1c-1.1,1.7-2,3.6-2.9,5.4c-0.1,0.3-0.3,0.6-0.4,0.8c-0.1,0-0.3,0-0.4,0.1c-0.4-0.9-0.8-1.7-1.1-2.6
	c-1.1-3.6-2.8-6.8-5.5-9.5c-0.4-0.4-1.1-0.7-1.5-0.6c-0.4,0.1-0.7,0.9-0.8,1.4c-0.2,0.8-0.2,1.6-0.3,2.5c-0.4-0.8-0.3-1.7-0.5-2.4
	c-0.1-0.6-0.5-1.2-1-1.5c-0.3-0.1-1.1,0.3-1.4,0.7c-2.6,2.8-4.4,6.1-5.5,9.8c-0.2,0.8-0.8,1.5-1.2,2.2c-1.2-2.2-2.3-4.3-3.5-6.2
	c-0.5-0.8-0.5-1.5-0.3-2.4c0.7-3.4,1.3-6.8,1.8-10.2c0.1-0.6-0.3-1.7-0.8-2c-1-0.5-1.3,0.5-1.7,1.2C32.6,25,31,28,29.4,30.9
	c-2.4,4.5-2.2,2.6-0.8,7.5c0.9,3.1,1.8,6.2,2.6,9.4c-1.3-0.9-2.5-1.9-3.8-2.6c-0.9-0.5-1.2-1-1.2-2c-0.3-4.8-1.3-9.4-4.2-13.3
	c-0.4-0.5-1.2-1-1.7-0.9c-0.9,0.1-0.8,1-0.8,1.7c0,5.3,0,10.6,0,15.9c0,0.7,0.3,1.5,0.7,2.1c2.9,3.6,5.9,7.2,8.8,10.8
	c0.7,0.9,1.2,1.8,1.1,3c-0.1,1.6,0,3.2,0,4.7c0.2,5.4,3.1,9.2,8.2,10.4c6.3,1.5,12.6,1.4,18.9,0.3c4.4-0.8,7.9-3,8.8-7.7
	c0.5-2.5,0.5-5.2,0.5-7.8c0-1.1,0.3-2,1.1-2.9c3-3.6,6-7.2,9-10.8c0.3-0.4,0.7-1,0.7-1.5c0-5.7,0-11.3,0-17
	C77.2,29.7,76.9,29.1,76.5,29 M60.7,41.5c1-1.9,2-3.8,3.2-5.6c0.5-0.8,0.7-1.4,0.4-2.4c-0.5-1.7-0.9-3.4-1.4-5.1
	c0.1,0,0.3-0.1,0.4-0.1c1.1,2,2.2,4.1,3.3,6.1c0.1,0.3,0.1,0.7,0,1c-1.2,4.2-2.4,8.4-3.6,12.6c0,0.1-0.1,0.2-0.3,0.5
	c-0.9-1.5-2-2.8-2.6-4.3C59.8,43.6,60.3,42.4,60.7,41.5 M45,34c0.2-0.3,0.3-0.5,0.5-0.7c0-0.1,0.1,0,0.3-0.1
	c0.4,4.3,0.8,8.5,1.2,12.7c0.1,0.6,0,1.2,0.3,1.8c0.2,0.4,0.8,1.1,1,1c0.4-0.1,1.1-0.6,1.1-1.1c0.3-2.2,0.5-4.5,0.7-6.7
	c0.2-2.5,0.5-5.1,1-7.7c0.5,0.9,1.1,1.7,1.6,2.6c1.7,3.3,2.6,6.8,2.5,10.6c-0.1,2.2-1,3.6-3.1,4.1c-2.5,0.6-5,0.6-7.5,0
	c-2.2-0.5-3.2-1.8-3.2-4C41.4,41.9,42.6,37.8,45,34 M30.9,38.5c-1-2.7-0.8-5,0.9-7.2c0.7-0.9,1.1-2,1.6-3l0.3,0.2
	c-0.4,1.6-0.8,3.3-1.3,4.9c-0.4,1.1-0.2,1.8,0.5,2.7c1.8,2.2,3.1,4.6,3.6,7.4c0.1,0.5-0.1,1.1-0.3,1.5c-0.7,1.2-1.5,2.4-2.4,3.8
	C32.9,45.1,32.1,41.7,30.9,38.5 M31.6,53.7c-0.5,1.1-0.8,2.3-1.3,3.6c-1.4-1.6-2.6-3.2-3.9-4.7c-1.4-1.6-2.7-3.3-4-5
	c-0.3-0.4-0.6-0.9-0.6-1.3c-0.1-3.6,0-7.2,0-10.7c0-0.2,0.1-0.4,0.1-0.6c0.1,0,0.3,0,0.4-0.1c0.5,2,1,3.9,1.4,5.9
	c0.2,1.3,0.3,2.7,0.3,4.1c0,0.9,0.4,1.4,1.2,1.7c2.6,1,4.5,2.9,6.1,5.1C31.8,52.3,32,52.9,31.6,53.7 M63.6,70.2
	c-0.6,2.5-2.5,4.1-4.9,4.7c-2.3,0.6-4.8,1.1-7.1,1.1c-3.9,0-7.9-0.1-11.7-0.7c-4.9-0.8-6.5-3-7.3-7.9c-1.3-8.2,1.3-15.3,6-21.8
	c0.1-0.1,0.2-0.1,0.3-0.2c0.2,1.2,0.3,2.3,0.7,3.3c0.8,2.4,2.8,3.5,5.1,3.9c2.9,0.5,5.8,0.5,8.6-0.4c2.6-0.8,4.1-3,4.3-5.8
	c0-0.3,0-0.6,0.3-1.1c0.5,0.7,0.9,1.3,1.4,2c2,3.1,3.8,6.3,4.6,9.9C64.8,61.8,64.5,66,63.6,70.2 M74.9,46c0,0.4-0.1,1-0.3,1.3
	c-2.6,3.2-5.2,6.4-7.9,9.6c-0.1,0.1-0.2,0.1-0.4,0.3c-0.5-1.4-1-2.8-1.4-4.2c-0.1-0.3,0.1-0.7,0.3-1c1.6-2.2,3.5-4.2,6.1-5.2
	c0.9-0.4,1.3-1,1.3-2.1c0-3.4,0.6-6.6,2.1-9.7c0,0.3,0.1,0.6,0.1,0.9C74.9,39.2,74.9,42.6,74.9,46"/>
</svg>
