<?xml version="1.0" encoding="utf-8"?>
<!-- Generator: Adobe Illustrator 19.0.0, SVG Export Plug-In . SVG Version: 6.00 Build 0)  -->
<svg version="1.1" id="Calque_1" xmlns="http://www.w3.org/2000/svg" xmlns:xlink="http://www.w3.org/1999/xlink" x="0px" y="0px"
	 viewBox="0 0 96.2 96.2" style="enable-background:new 0 0 96.2 96.2;" xml:space="preserve">
<style type="text/css">
	.st0{clip-path:url(#SVGID_2_);fill:#71AAC4;}
	.st1{fill:#1F1D50;}
</style>
<g>
	<g>
		<defs>
			<rect id="SVGID_1_" x="1.2" y="1.2" width="93.9" height="93.9"/>
		</defs>
		<clipPath id="SVGID_2_">
			<use xlink:href="#SVGID_1_"  style="overflow:visible;"/>
		</clipPath>
		<path class="st0" d="M95.2,48.1c0,25.9-21,47-47,47c-25.9,0-47-21-47-47c0-25.9,21-47,47-47C74.1,1.2,95.2,22.2,95.2,48.1"/>
	</g>
</g>
<path class="st1" d="M73.5,46.7c-0.2-2.2-0.3-4.3-0.6-6.5C71.9,34.4,70,29,65.9,24.6C60.8,19,52,20.3,48.7,27.1
	c-0.1,0.3-0.3,0.6-0.6,1.1c-0.3-0.6-0.4-0.8-0.6-1.1c-2.4-5.1-8.3-7.4-13.5-5c-2.6,1.2-4.4,3.2-5.9,5.5c-3,4.5-4.4,9.5-5,14.8
	c-0.2,1.7-0.3,3.5-0.3,5.2c0,0.7,0.3,1.2,1.1,1.3c0.8,0,1.1-0.5,1.2-1.2c0-0.6,0-1.2,0.1-1.8c0.2-5,1.1-9.9,3.4-14.5
	c1.4-2.8,3.1-5.4,6-6.9c4.1-2.3,9.6-0.2,11,4.2c-1.4,1-2.4,2.2-1.8,4.1c0,0.1-0.2,0.5-0.4,0.6c-1.6,1.2-2.7,2.8-3.2,4.7
	c-2.2-0.1-2.2-0.1-2.5-2.1c-0.2-1.3-0.6-2.5-1.2-3.7c-0.1-0.3-1-0.3-1.5-0.4c-0.1,0.5-0.4,1.1-0.3,1.6c0.2,1.4,0.7,2.8,0.9,4.2
	c0.2,1.8,0.2,1.9,2,2.3c0.9,0.2,1.8,0.5,2.7,0.8c-0.4,1.7-0.7,3.3-1,4.9c-1.6-0.3-3.1-0.7-4.6-1c-1.8-0.4-2-0.3-2.7,1.5
	c-1.2,3.3-2.5,6.5-5.2,8.9c-0.3,0.2-0.3,1.2-0.1,1.5c0.3,0.3,1.2,0.4,1.5,0.2c1-0.8,2-1.7,2.6-2.8c1.3-2.2,2.4-4.6,3.6-7
	c1.3,0.3,2.8,0.6,4.2,0.9c0.2,0.1,0.5,0.4,0.5,0.6c0,2.4,0,4.9,0,7.4c-1.1-0.3-2.4-0.6-3.7-0.9c-1.5-0.4-1.9-0.1-2.1,1.5
	c-0.2,3.2-0.3,6.5-0.7,9.6c-0.3,2.6-1.1,5.2-1.5,7.8c-0.1,0.4,0.1,1.1,0.4,1.4c0.3,0.2,1,0.1,1.3-0.1c0.4-0.3,0.7-0.9,0.8-1.4
	c0.4-1.7,0.8-3.4,1-5.1c0.4-3.7,0.7-7.3,1-11.2c1,0.3,2,0.6,3,0.8c0.8,0.2,1.2,0.5,1.4,1.4c0.7,2.9,1.7,5.7,3.8,8
	c2.5,2.8,5.9,2.9,8.6,0.1c0.6-0.7,1.3-1.4,1.6-2.3c0.9-1.9,1.5-3.9,2.3-5.9c0.2-0.4,0.4-1,0.7-1.1c1.2-0.4,2.4-0.7,3.6-1
	c0.4,4.3,0.8,8.4,1.3,12.5c0.2,1.7,0.8,3.3,1.3,4.9c0.1,0.3,1.1,0.7,1.5,0.5c0.7-0.2,0.7-0.9,0.4-1.7c-0.5-1.2-0.9-2.5-1-3.8
	c-0.5-4.5-0.8-9-1.2-13.4c-0.1-1.6-0.5-1.8-2-1.5c-1.3,0.3-2.5,0.6-3.9,1c0.1-1.6,0.2-3.1,0.3-4.5c0.1-1.2-0.3-2.7,0.3-3.4
	c0.6-0.7,2.2-0.7,3.3-0.9c0.9-0.2,1.3-0.1,1.7,0.9c0.7,1.9,1.6,3.8,2.6,5.5c0.8,1.2,1.9,2.3,3,3.2c0.2,0.2,1.2,0,1.5-0.3
	c0.2-0.2,0.1-1-0.1-1.4c-0.5-0.7-1.4-1.2-1.8-2c-1.2-2.4-2.4-4.8-3.5-7.2c-0.7-1.5-0.8-1.7-2.5-1.3c-1.6,0.3-3.1,0.7-4.8,1
	c-0.3-1.7-0.6-3.3-0.9-4.9c1-0.3,1.9-0.6,2.9-0.7c1.3-0.2,1.7-0.9,1.8-2.2c0.1-1.4,0.6-2.8,0.8-4.2c0.1-0.5,0-1.4-0.3-1.6
	c-0.7-0.5-1.5-0.1-1.7,0.7c-0.4,1.1-0.7,2.3-0.9,3.4c-0.4,2-0.4,2-2.3,2.1c-0.6-1.1-1.1-2.2-1.9-3.2c-0.9-1.1-2.2-1.8-1.9-3.7
	c0.1-0.8-1.1-1.8-1.9-3c0.7-0.8,1.4-2.1,2.4-2.9c3.3-2.7,7.9-2.1,11.1,1.2c3.4,3.5,5.1,7.8,5.9,12.5c0.6,2.9,0.6,5.9,1,8.8
	c0.1,0.4,0.6,1,1,1.1c0.8,0.2,1.1-0.4,1.1-1.2C73.5,47.3,73.5,47,73.5,46.7 M50.5,31.6h-4.6C46.8,29.9,49.1,29.9,50.5,31.6
	 M46.9,66.6c-0.1,0.1-0.2,0.2-0.3,0.3c-0.7-0.8-1.6-1.6-2.2-2.6c-1.6-2.5-2.3-5.4-2.8-8.3c-0.6-4.1-0.6-8.2,0.1-12.3
	c0.1-0.4,0.2-0.8,0.3-1.2c1.6,0.6,3.2,1.1,4.8,1.7V66.6z M49.4,66.7V44.3c1.6-0.5,3.1-1.1,4.7-1.6C56.3,49.1,54.7,64,49.4,66.7
	 M53.4,37.3c0.7,1.3,0.5,2.4-0.8,3.1c-1.4,0.7-2.9,1.1-4.5,1.7c-1.6-0.5-3.1-0.9-4.4-1.5c-1.4-0.7-1.7-1.9-1-3.3
	c1.2-2.1,2.9-3.5,5.4-3.4C50.6,33.9,52.3,35.3,53.4,37.3"/>
<path class="st1" d="M48.1,0C21.6,0,0,21.6,0,48.1c0,26.5,21.6,48.1,48.1,48.1c26.5,0,48.1-21.6,48.1-48.1C96.2,21.6,74.7,0,48.1,0
	 M93.7,48.1c0,25.1-20.4,45.6-45.6,45.6S2.6,73.2,2.6,48.1S23,2.6,48.1,2.6S93.7,23,93.7,48.1"/>
</svg>
