<?xml version="1.0" encoding="utf-8"?>
<!-- Generator: Adobe Illustrator 19.0.0, SVG Export Plug-In . SVG Version: 6.00 Build 0)  -->
<svg version="1.1" id="Calque_1" xmlns="http://www.w3.org/2000/svg" xmlns:xlink="http://www.w3.org/1999/xlink" x="0px" y="0px"
	 viewBox="0 0 96.2 96.2" style="enable-background:new 0 0 96.2 96.2;" xml:space="preserve">
<style type="text/css">
	.st0{fill:#4199A8;}
	.st1{fill:#95D1DA;}
	.st2{fill:#71AAC4;}
	.st3{fill:#025080;}
	.st4{fill:#1F1D50;}
	.st5{fill:#233972;}
</style>
<path id="XMLID_107_" class="st0" d="M83.5,90.5H49.1c-2.9,0-5.3-2.4-5.3-5.3V58.7c0,0,1.1-24.4,22.4-24.4
	c21.3,0,22.4,24.1,22.4,24.1v26.9C88.7,88.1,86.4,90.5,83.5,90.5"/>
<path id="XMLID_81_" class="st1" d="M76.4,36.6c-3.5,13.2-9.1,30.3-16.3,37.1c-6.6,6.3-10.8,11-13.5,16.1c0.7,0.4,1.6,0.6,2.5,0.6
	h34.4c2.9,0,5.2-2.3,5.2-5.2V58.4C88.7,58.4,88,42.6,76.4,36.6"/>
<path id="XMLID_80_" class="st2" d="M76.3,59.5H56.7c-2.3,0-4.1,1.8-4.1,4.1v13.8c0,2.4,2,4.4,4.4,4.4h18.6c2.6,0,4.7-2.1,4.7-4.7
	V63.5C80.3,61.3,78.5,59.5,76.3,59.5"/>
<path id="XMLID_79_" class="st3" d="M75.7,66.4H57.4c-0.5,0-0.9-0.4-0.9-0.9s0.4-0.9,0.9-0.9h18.2c0.5,0,0.9,0.4,0.9,0.9
	S76.2,66.4,75.7,66.4"/>
<path id="XMLID_78_" class="st3" d="M75.7,71.5h-9.1c-0.5,0-0.9-0.4-0.9-0.9s0.4-0.9,0.9-0.9h9.1c0.5,0,0.9,0.4,0.9,0.9
	S76.2,71.5,75.7,71.5"/>
<path id="XMLID_77_" class="st3" d="M91.2,74.4h2.1c1.7,0,3.1,1.4,3.1,3.1v8.7c0,1.3-1,2.3-2.3,2.3h-3.8c-0.9,0-1.6-0.7-1.6-1.6v-10
	C88.7,75.5,89.8,74.4,91.2,74.4"/>
<path id="XMLID_76_" class="st4" d="M3.3,60.7h8.1c0.2-1.2,1.3-2.2,2.7-2.2h0.4l0-7.2l0.2-27.4c0-13.1,12.5-24,27.7-23.8
	c14.8,0.2,26.7,10.5,26.7,23.2v23.2h-5.1V23.4c0-10.7-10.3-19.3-22.8-19c-12,0.3-21.5,9.1-21.5,19.4v27.3l0.1,7.4h0.4
	c1.3,0,2.4,0.9,2.7,2.2h8.1c1.8,0,3.3,1.5,3.3,3.3v1.5H0v-1.5C0,62.1,1.5,60.7,3.3,60.7"/>
<path id="XMLID_75_" class="st3" d="M60.1,47.7c0,3.4,2.8,6.1,6.1,6.1c3.4,0,6.1-2.8,6.1-6.1c0-3.4-2.8-6.1-6.1-6.1
	C62.9,41.5,60.1,44.3,60.1,47.7"/>
<polygon id="XMLID_74_" class="st1" points="9.5,71.3 8.5,72.8 6.9,75 7.6,77.5 6.2,81.5 7.6,83.9 11.2,83.9 11.6,87.8 13.4,91.1 
	17.2,91.1 20.7,91.1 23.3,87.1 23.3,83.9 26,83.9 28.2,81.7 28.2,79.2 27.1,76.2 27.7,74.4 26.4,72.8 25.1,71.3 "/>
<path id="XMLID_73_" class="st3" d="M41.3,88.5h-2.1c-1.7,0-3.1-1.4-3.1-3.1v-8.7c0-1.3,1-2.3,2.3-2.3h3.8c0.9,0,1.6,0.7,1.6,1.6v10
	C43.8,87.4,42.7,88.5,41.3,88.5"/>
<path id="XMLID_72_" class="st0" d="M17.3,83.9c-0.7,0-1.2-0.5-1.2-1.2v-14c0-0.7,0.5-1.2,1.2-1.2c0.7,0,1.2,0.5,1.2,1.2v14
	C18.5,83.4,18,83.9,17.3,83.9"/>
<path id="XMLID_71_" class="st0" d="M13.4,78.1c-0.7,0-1.2-0.5-1.2-1.2v-8.2c0-0.7,0.5-1.2,1.2-1.2c0.7,0,1.2,0.5,1.2,1.2v8.2
	C14.6,77.6,14.1,78.1,13.4,78.1"/>
<path id="XMLID_70_" class="st0" d="M21.1,78.1L21.1,78.1c-0.7,0-1.2-0.5-1.2-1.2l0-8.2c0-0.7,0.5-1.2,1.2-1.2h0
	c0.7,0,1.2,0.5,1.2,1.2l0,8.2C22.3,77.6,21.8,78.1,21.1,78.1"/>
<path id="XMLID_69_" class="st0" d="M16.7,92.9c-2,0-3.5-0.6-4.7-1.8c-1.6-1.7-2-4-2.1-5.6c-1.5,0.1-3.3-0.5-4.3-2.6
	c-1.2-2.4-0.2-4.5,0.9-5.6c-0.5-1-1-2.7-0.3-4.1c0.4-0.8,1.3-1.7,3.3-1.8c0.7-0.1,1.2,0.4,1.3,1.1c0.1,0.7-0.4,1.2-1.1,1.3
	c-0.4,0-1.1,0.1-1.3,0.5c-0.3,0.6,0.2,1.9,0.7,2.7l0.6,1l-0.9,0.7c-0.2,0.1-1.8,1.4-0.9,3.3c0.8,1.7,2.4,1.2,2.9,1l1.9-0.8l-0.2,2
	c0,0-0.3,3.5,1.4,5.3c0.8,0.8,2,1.2,3.5,1.1c1.7-0.1,3.1-0.7,3.9-1.8c1.5-1.8,1.3-4.5,1.3-4.6l-0.3-2.4l2.1,1.2
	c0.3,0.2,1.6,0.7,2.8-1.2c1.3-2.1-0.7-3.7-0.9-3.9l-0.7-0.6l0.4-0.9c0.5-1,0.6-1.7,0.3-2.2c-0.2-0.4-0.9-0.6-1.1-0.6
	c-0.7-0.1-1.2-0.6-1.1-1.3c0.1-0.7,0.6-1.2,1.3-1.1c0.2,0,2.1,0.2,3,1.7c0.6,1,0.6,2.2,0.1,3.6c1.2,1.3,2.4,3.7,0.8,6.4
	c-1.3,2.1-2.9,2.6-4.3,2.6c-0.1,1.3-0.5,3.1-1.8,4.7c-1.3,1.6-3.2,2.5-5.6,2.6C17.1,92.9,16.9,92.9,16.7,92.9"/>
<path id="XMLID_68_" class="st5" d="M14.5,58.4h-0.4c-1.3,0-2.4,1-2.7,2.2H3.3c-1.8,0-3.3,1.5-3.3,3.3v1.5h34.4v-1.5
	c0-1.8-1.5-3.3-3.3-3.3H23c-0.2-1.3-1.3-2.2-2.7-2.2h-0.4l0-4.1h-5.3L14.5,58.4z"/>
</svg>
